<svg width="81" height="18" viewBox="0 0 81 18" fill="none" xmlns="http://www.w3.org/2000/svg">
<path d="M7.9834 12.4287C7.97363 12.7998 8.05664 13.0049 8.23242 13.0439C8.30078 13.0635 8.38867 13.0732 8.49609 13.0732V10.1875H8.0127C7.65137 11.5449 7.01172 12.3506 6.09375 12.6045C5.83984 12.6729 5.55664 12.707 5.24414 12.707C4.00391 12.707 3.22754 12.0039 2.91504 10.5977C2.79785 10.041 2.73926 9.35254 2.73926 8.53223C2.74902 5.85645 3.62305 4.51367 5.36133 4.50391C6.2793 4.50391 6.95801 4.87988 7.39746 5.63184C7.60254 5.99316 7.7832 6.45703 7.93945 7.02344L8.45215 7.02344L8.4082 4.1377C8.1543 4.1377 8.00293 4.21582 7.9541 4.37207C7.93457 4.46973 7.92969 4.59668 7.93945 4.75293C7.08984 4.29395 6.15234 4.06445 5.12695 4.06445C3.48633 4.06445 2.23145 4.63574 1.3623 5.77832C0.74707 6.59863 0.439453 7.54102 0.439453 8.60547C0.439453 9.86523 0.844727 10.9248 1.65527 11.7842C2.52441 12.6924 3.66699 13.1465 5.08301 13.1465C6.08887 13.1465 7.05566 12.9072 7.9834 12.4287ZM12.1729 12.6191H11.8066V9.10352C11.8066 8.24414 12.0703 7.67285 12.5977 7.38965C12.7637 7.30176 12.9248 7.25781 13.0811 7.25781C13.6768 7.25781 14.0088 7.62402 14.0771 8.35645C14.0869 8.43457 14.0918 8.52246 14.0918 8.62012V11.8574C14.0918 12.248 14.0332 12.4775 13.916 12.5459C13.8184 12.5947 13.6865 12.6191 13.5205 12.6191V13L16.8018 13C16.8018 12.7754 16.7383 12.6533 16.6113 12.6338C16.5527 12.624 16.4941 12.6191 16.4355 12.6191H15.9521V8.86914C15.9521 7.64844 15.5176 6.8916 14.6484 6.59863C14.4336 6.52051 14.1992 6.48145 13.9453 6.48145C13.1543 6.48145 12.5244 6.78418 12.0557 7.38965C11.958 7.52637 11.875 7.66309 11.8066 7.7998L11.8066 3.47852L9.08203 3.47852V3.85937L9.94629 3.85937L9.94629 11.8574C9.94629 12.3164 9.72656 12.5654 9.28711 12.6045C9.21875 12.6143 9.15039 12.6191 9.08203 12.6191V13H12.5244C12.5244 12.7754 12.4609 12.6533 12.334 12.6338C12.2852 12.624 12.2314 12.6191 12.1729 12.6191ZM20.7422 6.8623C21.3672 6.88184 21.6846 7.41406 21.6943 8.45898C21.6943 8.91797 21.5576 9.20117 21.2842 9.30859C21.0889 9.37695 20.7959 9.40137 20.4053 9.38184L19.4678 9.33789C19.5361 7.7168 19.9609 6.8916 20.7422 6.8623ZM23.4814 11.4912L23.1299 11.374C22.8564 11.9697 22.4268 12.375 21.8408 12.5898C21.6064 12.6777 21.3672 12.7217 21.123 12.7217C20.3418 12.7217 19.8389 12.2236 19.6143 11.2275C19.5264 10.8174 19.4775 10.3291 19.4678 9.7627L20.8154 9.80664C22.3877 9.85547 23.3008 9.60645 23.5547 9.05957C23.6133 8.92285 23.6426 8.77148 23.6426 8.60547C23.6426 7.77539 23.2178 7.16992 22.3682 6.78906C21.8896 6.58398 21.3477 6.48145 20.7422 6.48145C19.6387 6.48145 18.7793 6.85742 18.1641 7.60937C17.6953 8.19531 17.4609 8.92285 17.4609 9.79199C17.4609 11.208 17.9932 12.1943 19.0576 12.751C19.5654 13.0146 20.1416 13.1465 20.7861 13.1465C21.9287 13.1465 22.749 12.7461 23.2471 11.9453C23.3447 11.7988 23.4229 11.6475 23.4814 11.4912ZM24.4336 9.83594C24.4336 11.2617 24.9756 12.2432 26.0596 12.7803C26.5674 13.0244 27.1484 13.1465 27.8027 13.1465C28.8184 13.1465 29.5996 12.8389 30.1465 12.2236C30.332 12.0088 30.4736 11.7744 30.5713 11.5205L30.1904 11.418C29.917 12.0039 29.4531 12.3994 28.7988 12.6045C28.5449 12.6826 28.291 12.7217 28.0371 12.7217C27.3633 12.7217 26.9141 12.4189 26.6895 11.8135C26.5234 11.3643 26.4404 10.7295 26.4404 9.90918C26.4404 8.26855 26.6992 7.29199 27.2168 6.97949C27.373 6.8916 27.5586 6.84766 27.7734 6.84766C28.2031 6.84766 28.4668 7.04785 28.5645 7.44824C28.584 7.52637 28.6084 7.6582 28.6377 7.84375C28.6963 8.29297 28.8135 8.58105 28.9893 8.70801C29.126 8.80566 29.3115 8.85449 29.5459 8.85449C30.0439 8.85449 30.3516 8.66895 30.4688 8.29785C30.4883 8.21973 30.498 8.1416 30.498 8.06348C30.498 7.63379 30.2393 7.25781 29.7217 6.93555C29.2139 6.63281 28.5791 6.48145 27.8174 6.48145C26.7822 6.48145 25.9424 6.81836 25.2979 7.49219C24.7217 8.09766 24.4336 8.87891 24.4336 9.83594ZM34.5996 12.6191H33.8379V10.3633L34.292 9.92383L36.0791 13.0146L38.5107 13C38.5107 12.7852 38.4521 12.6631 38.335 12.6338C38.2861 12.624 38.2275 12.6191 38.1592 12.6191H37.9395L35.5811 8.67871L36.665 7.63867C37.0068 7.31641 37.2705 7.13574 37.4561 7.09668C37.5342 7.08691 37.6123 7.08203 37.6904 7.08203C37.9053 7.08203 38.0273 7.00391 38.0566 6.84766C38.0664 6.79883 38.0713 6.75 38.0713 6.70117L35.5957 6.70117V7.08203L36.665 7.08203L33.8379 9.7627V3.47852L30.8643 3.47852V3.85937L31.9775 3.85937L31.9775 11.8574C31.958 12.3652 31.5869 12.6191 30.8643 12.6191V13H34.9512C34.9512 12.7754 34.8877 12.6533 34.7607 12.6338C34.7119 12.624 34.6582 12.6191 34.5996 12.6191Z" fill="#DDDDDD"/>
<path d="M69.2041 3L79 9L49 9" stroke="#DDDDDD"/>
</svg>
