<svg width="156" height="80" viewBox="0 0 156 80" fill="none" xmlns="http://www.w3.org/2000/svg">
<path d="M21.086 58.572L20.592 68.088L20.8 69.076V69.206C20.8 69.2753 20.774 69.388 20.722 69.544C20.6873 69.6827 20.4707 69.934 20.072 70.298C19.6733 70.6447 19.3613 70.818 19.136 70.818C18.928 70.818 18.798 70.7487 18.746 70.61C18.694 70.4713 18.5553 69.934 18.33 68.998C18.4167 68.8247 18.4687 68.634 18.486 68.426L12.818 68.634C11.8473 68.634 10.3133 68.9027 8.216 69.44C7.50533 69.7 7.10667 69.83 7.02 69.83H6.448C5.772 69.83 5.08733 69.4487 4.394 68.686C3.718 67.906 3.38 67.256 3.38 66.736C3.38 66.476 3.49267 66.346 3.718 66.346C3.874 66.346 4.16 66.554 4.576 66.97C5.00933 67.386 5.44267 67.6547 5.876 67.776C9.048 67.6373 11.284 67.4813 12.584 67.308L18.694 66.554C19.1447 64.0927 19.37 60.9293 19.37 57.064C19.37 56.5787 19.3353 56.2667 19.266 56.128L18.824 56.102C18.3387 56.0673 17.6453 56.05 16.744 56.05C15.86 56.05 14.6033 56.1713 12.974 56.414C11.362 56.6567 9.87133 56.882 8.502 57.09L7.982 57.272C7.39267 57.4627 7.03733 57.558 6.916 57.558C6.43067 57.558 5.78933 57.2807 4.992 56.726C4.212 56.154 3.822 55.4867 3.822 54.724C3.822 54.464 3.93467 54.334 4.16 54.334H4.186C4.32467 54.334 4.53267 54.464 4.81 54.724C5.08733 54.984 5.47733 55.1833 5.98 55.322C6.5 55.4433 7.24533 55.504 8.216 55.504C9.18667 55.504 10.608 55.3653 12.48 55.088C14.352 54.7933 16.5707 54.5767 19.136 54.438C19.396 54.0393 19.9073 53.632 20.67 53.216L22.1 54.906C22.1173 54.9233 22.126 55.0013 22.126 55.14C22.126 55.2787 21.996 55.5127 21.736 55.842C21.476 56.154 21.3373 56.414 21.32 56.622C21.32 56.8127 21.242 57.4627 21.086 58.572ZM39.026 61.692C36.5127 61.692 34.164 62.03 31.98 62.706C31.5987 62.706 31.2173 62.5673 30.836 62.29C30.1427 61.7353 29.6053 61.146 29.224 60.522C28.86 59.8807 28.678 59.4473 28.678 59.222C28.678 58.9967 28.7733 58.884 28.964 58.884C29.172 58.884 29.2933 58.91 29.328 58.962C29.38 59.014 29.51 59.1527 29.718 59.378C30.2727 59.9847 32.5 60.288 36.4 60.288C41.496 60.288 44.902 59.9673 46.618 59.326C46.7567 59.274 46.8953 59.248 47.034 59.248C47.1727 59.248 47.424 59.3433 47.788 59.534C48.8107 60.0193 49.322 60.4613 49.322 60.86C49.322 61.2413 49.1227 61.5707 48.724 61.848C48.3427 62.108 47.9527 62.238 47.554 62.238C45.5607 61.874 43.2293 61.692 40.56 61.692H39.026ZM74.568 52.826C74.568 53.4327 74.2733 53.736 73.684 53.736C73.112 53.736 72.748 53.5107 72.592 53.06L72.358 52.28C72.1847 51.6907 71.864 51.1447 71.396 50.642C70.928 50.1393 70.694 49.8533 70.694 49.784V49.732C70.694 49.4893 70.902 49.368 71.318 49.368C71.3873 49.368 71.474 49.4027 71.578 49.472C73.4153 50.5813 74.4033 51.5693 74.542 52.436C74.5593 52.5747 74.568 52.7047 74.568 52.826ZM77.87 52.02C77.87 52.7133 77.5147 53.06 76.804 53.06C76.3187 53.06 75.998 52.8347 75.842 52.384L75.608 51.604C75.452 51.0667 75.14 50.538 74.672 50.018C74.204 49.4807 73.97 49.1773 73.97 49.108C73.97 48.8653 74.126 48.744 74.438 48.744C74.5073 48.744 74.594 48.7613 74.698 48.796C76.8127 49.9573 77.87 51.032 77.87 52.02ZM66.092 59.716C67.0627 60.184 67.548 60.6 67.548 60.964C67.548 61.0333 67.4267 61.172 67.184 61.38C66.9413 61.588 66.8027 61.848 66.768 62.16L66.586 63.408C66.3087 67.256 64.09 69.96 59.93 71.52C59.1153 71.4507 58.708 71.2773 58.708 71C58.708 70.584 58.9593 70.298 59.462 70.142C63.0673 68.79 64.87 66.1033 64.87 62.082C64.87 61.822 64.87 61.562 64.87 61.302L64.818 60.418C64.818 60.2793 64.7573 60.1147 64.636 59.924H64.584C64.532 59.924 62.2873 60.4267 57.85 61.432C57.4687 61.432 57.096 61.3193 56.732 61.094C56.368 60.8513 55.8653 60.4093 55.224 59.768C54.5827 59.1267 54.262 58.6847 54.262 58.442C54.262 58.1993 54.392 58.078 54.652 58.078C54.7733 58.078 54.8687 58.104 54.938 58.156C55.6487 59.092 56.524 59.56 57.564 59.56C57.6507 59.56 57.746 59.5513 57.85 59.534C64.1593 58.9793 69.0993 58.1647 72.67 57.09C73.346 56.8993 73.7273 56.804 73.814 56.804C73.9007 56.804 74.126 56.8907 74.49 57.064C75.4953 57.5493 75.998 57.9913 75.998 58.39C75.998 58.7713 75.7727 59.0573 75.322 59.248C75.062 59.352 74.8453 59.404 74.672 59.404C74.516 59.404 74.1693 59.352 73.632 59.248C73.0947 59.144 72.5053 59.092 71.864 59.092C69.94 59.3173 68.016 59.5253 66.092 59.716ZM65.234 54.36H65.026C64.9047 54.36 64.298 54.5247 63.206 54.854C62.1313 55.166 61.2387 55.4173 60.528 55.608C60.1467 55.608 59.774 55.5213 59.41 55.348C59.0633 55.1747 58.6387 54.7933 58.136 54.204C57.6333 53.5973 57.382 53.1727 57.382 52.93C57.382 52.6873 57.512 52.566 57.772 52.566C57.9453 52.566 58.032 52.592 58.032 52.644C58.032 52.696 58.1187 52.8 58.292 52.956C58.8813 53.5453 59.4793 53.84 60.086 53.84C60.2073 53.84 60.32 53.8313 60.424 53.814L64.896 53.242L68.432 52.332C68.9867 52.176 69.4027 52.0547 69.68 51.968C69.9573 51.8813 70.1653 51.838 70.304 51.838C70.46 51.838 70.72 51.9247 71.084 52.098C72.0893 52.5833 72.592 53.0253 72.592 53.424C72.592 53.7013 72.41 53.9093 72.046 54.048C71.6993 54.1867 71.4567 54.256 71.318 54.256H70.98C69.94 54.0653 69.1253 53.97 68.536 53.97H68.484L65.234 54.36ZM98.488 56.076C98.488 56.4227 98.2973 56.596 97.916 56.596C97.7253 56.596 97.604 56.6133 97.552 56.648L97.37 56.986C95.6713 58.6847 94.224 59.9933 93.028 60.912C93.5307 61.1373 93.8167 61.3107 93.886 61.432C93.9727 61.536 94.016 61.6573 94.016 61.796C94.016 61.9347 93.8773 62.1167 93.6 62.342C93.3227 62.5673 93.184 62.7753 93.184 62.966V65.8C93.184 67.256 93.1927 68.088 93.21 68.296C93.2273 68.504 93.288 68.8247 93.392 69.258C93.496 69.674 93.548 70.0207 93.548 70.298C93.548 70.558 93.496 70.8267 93.392 71.104C93.184 71.624 92.898 71.884 92.534 71.884C92.4127 71.884 92.17 71.7627 91.806 71.52C91.286 71.1733 91.026 70.4107 91.026 69.232C91.026 68.8853 91.078 68.4953 91.182 68.062C91.3033 67.6287 91.364 66.9527 91.364 66.034C91.364 65.1153 91.2947 63.8327 91.156 62.186C89.4573 63.226 87.1173 64.1707 84.136 65.02C83.8067 65.124 83.6247 65.176 83.59 65.176C83.2607 65.176 83.096 65.0113 83.096 64.682C83.096 64.4567 83.33 64.2573 83.798 64.084C86.2593 63.2347 88.2787 62.264 89.856 61.172C91.7627 59.8547 93.5133 57.974 95.108 55.53C95.2467 55.3393 95.316 55.14 95.316 54.932C95.316 54.7067 95.264 54.5593 95.16 54.49C95.056 54.4207 94.8913 54.3427 94.666 54.256C94.4407 54.152 94.328 54.048 94.328 53.944C94.3453 53.7187 94.5187 53.606 94.848 53.606C95.576 53.606 96.1307 53.7447 96.512 54.022C97.8293 54.8887 98.488 55.5733 98.488 56.076ZM114.582 56.102C114.582 57.1247 114.27 57.636 113.646 57.636C113.143 57.636 112.753 57.376 112.476 56.856C111.557 55.0707 110.041 53.7187 107.926 52.8C107.649 52.748 107.501 52.6093 107.484 52.384C107.484 52.1067 107.649 51.968 107.978 51.968L108.446 52.02C109.226 52.1933 110.249 52.592 111.514 53.216C112.779 53.8227 113.698 54.4293 114.27 55.036C114.478 55.2787 114.582 55.634 114.582 56.102ZM126.516 55.426C126.655 55.426 126.724 55.5733 126.724 55.868C126.724 56.1627 126.698 56.388 126.646 56.544C124.618 60.7907 121.498 64.474 117.286 67.594C116.766 67.9927 115.449 68.7987 113.334 70.012L112.554 70.454C112.017 70.766 111.644 70.922 111.436 70.922C111.228 70.922 111.055 70.8787 110.916 70.792C110.223 70.48 109.633 70.0293 109.148 69.44C108.663 68.8507 108.333 68.3047 108.16 67.802C107.987 67.2993 107.9 66.9873 107.9 66.866L107.926 66.606C108.047 66.3633 108.186 66.242 108.342 66.242C108.498 66.242 108.611 66.294 108.68 66.398C108.767 66.502 108.871 66.6927 108.992 66.97C109.391 67.75 110.015 68.14 110.864 68.14C110.881 68.14 110.899 68.14 110.916 68.14C111.436 68.14 111.869 68.0447 112.216 67.854L115.362 66.45C116.541 65.6353 117.849 64.682 119.288 63.59C122.009 61.4753 124.15 59.04 125.71 56.284C126.039 55.712 126.308 55.426 126.516 55.426ZM152.308 52.124C152.308 52.7307 152.013 53.034 151.424 53.034C150.852 53.034 150.488 52.8087 150.332 52.358L150.098 51.578C149.925 50.9887 149.604 50.4427 149.136 49.94C148.668 49.4373 148.434 49.1513 148.434 49.082V49.03C148.434 48.7873 148.642 48.666 149.058 48.666C149.127 48.666 149.214 48.7007 149.318 48.77C151.155 49.8793 152.143 50.8673 152.282 51.734C152.299 51.8727 152.308 52.0027 152.308 52.124ZM155.61 51.318C155.61 52.0113 155.255 52.358 154.544 52.358C154.059 52.358 153.738 52.1327 153.582 51.682L153.348 50.902C153.192 50.3647 152.88 49.836 152.412 49.316C151.944 48.7787 151.71 48.4753 151.71 48.406C151.71 48.1633 151.866 48.042 152.178 48.042C152.247 48.042 152.334 48.0593 152.438 48.094C154.553 49.2553 155.61 50.33 155.61 51.318ZM148.85 55.478C148.677 55.426 148.399 55.4 148.018 55.4C147.637 55.4 146.961 55.4867 145.99 55.66C145.019 55.816 143.659 56.024 141.908 56.284C140.088 59.0573 137.843 61.1893 135.174 62.68C135.001 62.7667 134.836 62.81 134.68 62.81C134.541 62.81 134.429 62.7667 134.342 62.68C134.255 62.576 134.212 62.4807 134.212 62.394C134.212 62.2207 134.394 62.03 134.758 61.822C137.462 60.21 139.507 57.324 140.894 53.164C140.911 53.112 140.92 53.0773 140.92 53.06C140.92 52.5227 140.634 52.1847 140.062 52.046C139.785 51.9767 139.646 51.864 139.646 51.708C139.646 51.4827 139.828 51.37 140.192 51.37C141.007 51.37 141.891 51.5693 142.844 51.968C143.451 52.228 143.754 52.5313 143.754 52.878C143.754 53.0513 143.667 53.1813 143.494 53.268C143.321 53.3373 143.225 53.4067 143.208 53.476C143.017 53.9267 142.809 54.3513 142.584 54.75C142.809 54.7673 143.217 54.776 143.806 54.776C144.395 54.776 145.262 54.6373 146.406 54.36C147.567 54.0653 148.269 53.8747 148.512 53.788C149.084 53.3027 149.396 53.0513 149.448 53.034C149.5 52.9993 149.552 52.982 149.604 52.982C149.933 52.982 150.445 53.216 151.138 53.684C151.849 54.152 152.204 54.516 152.204 54.776C152.204 55.036 152.057 55.296 151.762 55.556C151.467 55.7987 151.311 55.9547 151.294 56.024C149.283 63.1653 144.352 68.2093 136.5 71.156C136.361 71.208 136.24 71.234 136.136 71.234C135.807 71.234 135.642 70.9653 135.642 70.428V70.402C135.642 70.298 135.937 70.116 136.526 69.856C143.91 66.4067 148.018 61.614 148.85 55.478Z" fill="black"/>
<path d="M33.9502 36.2861C33.9209 37.3994 34.1699 38.0146 34.6973 38.1318C34.9023 38.1904 35.166 38.2197 35.4883 38.2197L35.4883 29.5625H34.0381C32.9541 33.6348 31.0352 36.0518 28.2813 36.8135C27.5195 37.0186 26.6699 37.1211 25.7324 37.1211C22.0117 37.1211 19.6826 35.0117 18.7451 30.793C18.3936 29.123 18.2178 27.0576 18.2178 24.5967C18.2471 16.5693 20.8691 12.541 26.084 12.5117C28.8379 12.5117 30.874 13.6396 32.1924 15.8955C32.8076 16.9795 33.3496 18.3711 33.8184 20.0703H35.3564L35.2246 11.4131C34.4629 11.4131 34.0088 11.6475 33.8623 12.1162C33.8037 12.4092 33.7891 12.79 33.8184 13.2588C31.2695 11.8818 28.457 11.1934 25.3809 11.1934C20.459 11.1934 16.6943 12.9072 14.0869 16.335C12.2412 18.7959 11.3184 21.623 11.3184 24.8164C11.3184 28.5957 12.5342 31.7744 14.9658 34.3525C17.5732 37.0771 21.001 38.4395 25.249 38.4395C28.2666 38.4395 31.167 37.7217 33.9502 36.2861ZM43.7061 28.4639C43.7061 24.3623 44.2041 21.7402 45.2002 20.5977C45.8154 19.9238 46.6797 19.5869 47.793 19.5869C49.668 19.5869 50.8691 20.5391 51.3965 22.4434C51.748 23.6738 51.9238 25.6221 51.9238 28.2881C51.9238 32.5654 51.3672 35.2607 50.2539 36.374C49.6094 36.9893 48.7744 37.2969 47.749 37.2969C45.9326 37.2969 44.7607 36.3594 44.2334 34.4844C43.8818 33.2246 43.7061 31.2178 43.7061 28.4639ZM48.0127 18.4443C44.4092 18.4443 41.6406 19.6748 39.707 22.1357C38.3594 23.8936 37.6855 25.9443 37.6855 28.2881C37.6855 31.5986 38.8281 34.2207 41.1133 36.1543C42.9297 37.6777 45.0977 38.4395 47.6172 38.4395C51.0742 38.4395 53.7842 37.1943 55.7471 34.7041C57.2119 32.8291 57.9443 30.6611 57.9443 28.2002C57.9443 24.9189 56.7871 22.3555 54.4727 20.5098C52.6855 19.1328 50.5322 18.4443 48.0127 18.4443ZM75.8301 38L83.6963 38C83.6963 37.3262 83.5205 36.9453 83.1689 36.8574C83.0225 36.8281 82.8467 36.8135 82.6416 36.8135H80.6201V9.43555H71.04V10.5781H75.0391V20.334C73.5449 19.0449 71.7578 18.4004 69.6777 18.4004C66.8945 18.4004 64.624 19.4697 62.8662 21.6084C61.3428 23.542 60.5811 25.9736 60.5811 28.9033C60.5811 32.5361 61.7676 35.2168 64.1406 36.9453C65.4883 37.9414 66.9824 38.4395 68.623 38.4395C71.3477 38.4395 73.3691 37.2822 74.6875 34.9678C74.8926 34.6162 75.0684 34.25 75.2148 33.8691L75.8301 38ZM66.6016 28.376C66.6016 24.0986 67.5244 21.4033 69.3701 20.29C69.8975 19.9971 70.4541 19.8506 71.04 19.8506C73.1494 19.8506 74.4531 21.4766 74.9512 24.7285C75.0684 25.6074 75.127 26.5449 75.127 27.541C75.127 31.9355 74.2041 34.7334 72.3584 35.9346C71.8311 36.2568 71.2598 36.418 70.6445 36.418C68.5938 36.418 67.3193 34.748 66.8213 31.4082C66.6748 30.5 66.6016 29.4893 66.6016 28.376ZM95.21 36.8574H93.584V19.1035L85.4541 19.1035V20.2461L88.0029 20.2461V34.5723C88.0029 35.8613 87.4902 36.5937 86.4648 36.7695C86.1719 36.8281 85.835 36.8574 85.4541 36.8574V38H96.2646C96.2646 37.3262 96.0742 36.96 95.6934 36.9014C95.5469 36.8721 95.3857 36.8574 95.21 36.8574ZM93.9795 13.3467C93.9795 12.0576 93.4082 11.1055 92.2656 10.4902C91.7676 10.1973 91.2402 10.0508 90.6836 10.0508C89.4238 10.0508 88.4717 10.6221 87.8271 11.7646C87.5635 12.2627 87.4316 12.79 87.4316 13.3467C87.4316 14.6357 88.0029 15.5732 89.1455 16.1592C89.6436 16.4229 90.1562 16.5547 90.6836 16.5547C91.9727 16.5547 92.9248 16.0127 93.54 14.9287C93.833 14.4307 93.9795 13.9033 93.9795 13.3467ZM107.251 36.8574H106.152L106.196 25.6074C106.401 23.293 107.251 21.7695 108.745 21.0371C109.155 20.832 109.58 20.7295 110.02 20.7295C111.689 20.7295 112.671 21.7109 112.964 23.6738C113.022 24.0547 113.052 24.4502 113.052 24.8604V34.5723C113.052 35.8027 112.729 36.5205 112.085 36.7256C111.792 36.8135 111.44 36.8574 111.03 36.8574V38L121.182 38C121.182 37.3262 120.991 36.96 120.61 36.9014C120.435 36.8721 120.259 36.8574 120.083 36.8574H118.633V25.6074C118.633 21.9746 117.344 19.7041 114.766 18.7959C114.062 18.5615 113.33 18.4443 112.568 18.4443C110.43 18.4443 108.613 19.2939 107.119 20.9932C106.68 21.4912 106.328 22.0039 106.064 22.5312L105.845 19.1035H98.0225V20.2461H100.571V34.5723C100.571 35.9199 99.9414 36.667 98.6816 36.8135C98.4766 36.8428 98.2568 36.8574 98.0225 36.8574V38H108.306C108.306 37.3262 108.115 36.96 107.734 36.9014C107.588 36.8721 107.427 36.8574 107.251 36.8574ZM129.312 25.8711C129.312 22.9707 129.634 21.1396 130.278 20.3779C130.747 19.8506 131.436 19.5869 132.344 19.5869C133.809 19.5869 134.731 20.2607 135.112 21.6084C135.317 22.4287 135.42 23.8057 135.42 25.7393C135.42 28.6982 135.068 30.5732 134.365 31.3643C133.867 31.8623 133.179 32.1113 132.3 32.1113C130.864 32.1113 129.971 31.4375 129.619 30.0898C129.414 29.2988 129.312 27.8926 129.312 25.8711ZM132.52 18.4443C129.121 18.4443 126.631 19.5283 125.049 21.6963C124.17 22.8975 123.73 24.2451 123.73 25.7393C123.73 27.8486 124.756 29.6943 126.807 31.2764C127.188 31.5693 127.583 31.833 127.993 32.0674H127.949C126.221 32.0381 125.02 32.7998 124.346 34.3525C124.111 34.9385 123.994 35.5244 123.994 36.1104C124.023 37.5166 124.565 38.6592 125.62 39.5381C124.858 40.4463 124.478 41.3398 124.478 42.2187C124.478 43.8008 125.518 44.9873 127.598 45.7783C129.004 46.3057 130.703 46.5693 132.695 46.5693C137.5 46.5693 140.605 45.4414 142.012 43.1855C142.451 42.4824 142.671 41.75 142.671 40.9883C142.671 38.0293 141.06 36.3447 137.837 35.9346C137.456 35.876 137.061 35.8467 136.65 35.8467L127.554 35.6709C126.792 35.6416 126.338 35.3047 126.191 34.6602C126.162 34.5723 126.147 34.4844 126.147 34.3965C126.147 33.7227 126.514 33.3418 127.246 33.2539C127.363 33.2246 127.48 33.21 127.598 33.21L132.3 33.2539C135.522 33.2539 137.954 32.1553 139.595 29.958C140.532 28.6689 141.001 27.2334 141.001 25.6514C140.972 23.5127 140.166 21.7549 138.584 20.3779C139.111 19.5576 139.727 19.1328 140.43 19.1035C140.811 19.1035 141.279 19.3525 141.836 19.8506C142.275 20.2021 142.686 20.3779 143.066 20.3779C143.945 20.3779 144.487 19.9678 144.692 19.1475C144.722 19.001 144.736 18.8545 144.736 18.708C144.736 17.6533 144.224 16.9062 143.198 16.4668C142.729 16.2617 142.217 16.1592 141.66 16.1592C140.137 16.1592 138.95 17.0381 138.101 18.7959C137.954 19.1182 137.822 19.4404 137.705 19.7627C136.299 18.8838 134.57 18.4443 132.52 18.4443ZM132.695 45.3828C129.121 45.3828 126.968 44.5918 126.235 43.0098C126.089 42.6875 126.016 42.3652 126.016 42.043C126.016 41.4277 126.235 40.8125 126.675 40.1973C127.261 40.4316 127.876 40.5488 128.521 40.5488L137.397 40.6367C139.097 40.6367 140.093 40.9004 140.386 41.4277C140.503 41.6328 140.562 41.8818 140.562 42.1748C140.562 43.5518 139.199 44.5039 136.475 45.0312C135.332 45.2656 134.072 45.3828 132.695 45.3828Z" fill="black"/>
</svg>
