<svg width="105" height="65" viewBox="0 0 105 65" fill="none" xmlns="http://www.w3.org/2000/svg">
<path d="M17.976 51.352L17.672 57.208L17.8 57.816V57.896C17.8 57.9387 17.784 58.008 17.752 58.104C17.7307 58.1893 17.5973 58.344 17.352 58.568C17.1067 58.7813 16.9147 58.888 16.776 58.888C16.648 58.888 16.568 58.8453 16.536 58.76C16.504 58.6747 16.4187 58.344 16.28 57.768C16.3333 57.6613 16.3653 57.544 16.376 57.416L12.888 57.544C12.2907 57.544 11.3467 57.7093 10.056 58.04C9.61867 58.2 9.37333 58.28 9.32 58.28H8.968C8.552 58.28 8.13067 58.0453 7.704 57.576C7.288 57.096 7.08 56.696 7.08 56.376C7.08 56.216 7.14933 56.136 7.288 56.136C7.384 56.136 7.56 56.264 7.816 56.52C8.08267 56.776 8.34933 56.9413 8.616 57.016C10.568 56.9307 11.944 56.8347 12.744 56.728L16.504 56.264C16.7813 54.7493 16.92 52.8027 16.92 50.424C16.92 50.1253 16.8987 49.9333 16.856 49.848L16.584 49.832C16.2853 49.8107 15.8587 49.8 15.304 49.8C14.76 49.8 13.9867 49.8747 12.984 50.024C11.992 50.1733 11.0747 50.312 10.232 50.44L9.912 50.552C9.54933 50.6693 9.33067 50.728 9.256 50.728C8.95733 50.728 8.56267 50.5573 8.072 50.216C7.592 49.864 7.352 49.4533 7.352 48.984C7.352 48.824 7.42133 48.744 7.56 48.744H7.576C7.66133 48.744 7.78933 48.824 7.96 48.984C8.13067 49.144 8.37067 49.2667 8.68 49.352C9 49.4267 9.45867 49.464 10.056 49.464C10.6533 49.464 11.528 49.3787 12.68 49.208C13.832 49.0267 15.1973 48.8933 16.776 48.808C16.936 48.5627 17.2507 48.312 17.72 48.056L18.6 49.096C18.6107 49.1067 18.616 49.1547 18.616 49.24C18.616 49.3253 18.536 49.4693 18.376 49.672C18.216 49.864 18.1307 50.024 18.12 50.152C18.12 50.2693 18.072 50.6693 17.976 51.352ZM29.016 53.272C27.4693 53.272 26.024 53.48 24.68 53.896C24.4453 53.896 24.2107 53.8107 23.976 53.64C23.5493 53.2987 23.2187 52.936 22.984 52.552C22.76 52.1573 22.648 51.8907 22.648 51.752C22.648 51.6133 22.7067 51.544 22.824 51.544C22.952 51.544 23.0267 51.56 23.048 51.592C23.08 51.624 23.16 51.7093 23.288 51.848C23.6293 52.2213 25 52.408 27.4 52.408C30.536 52.408 32.632 52.2107 33.688 51.816C33.7733 51.784 33.8587 51.768 33.944 51.768C34.0293 51.768 34.184 51.8267 34.408 51.944C35.0373 52.2427 35.352 52.5147 35.352 52.76C35.352 52.9947 35.2293 53.1973 34.984 53.368C34.7493 53.528 34.5093 53.608 34.264 53.608C33.0373 53.384 31.6027 53.272 29.96 53.272H29.016ZM50.888 47.816C50.888 48.1893 50.7067 48.376 50.344 48.376C49.992 48.376 49.768 48.2373 49.672 47.96L49.528 47.48C49.4213 47.1173 49.224 46.7813 48.936 46.472C48.648 46.1627 48.504 45.9867 48.504 45.944V45.912C48.504 45.7627 48.632 45.688 48.888 45.688C48.9307 45.688 48.984 45.7093 49.048 45.752C50.1787 46.4347 50.7867 47.0427 50.872 47.576C50.8827 47.6613 50.888 47.7413 50.888 47.816ZM52.92 47.32C52.92 47.7467 52.7013 47.96 52.264 47.96C51.9653 47.96 51.768 47.8213 51.672 47.544L51.528 47.064C51.432 46.7333 51.24 46.408 50.952 46.088C50.664 45.7573 50.52 45.5707 50.52 45.528C50.52 45.3787 50.616 45.304 50.808 45.304C50.8507 45.304 50.904 45.3147 50.968 45.336C52.2693 46.0507 52.92 46.712 52.92 47.32ZM45.672 52.056C46.2693 52.344 46.568 52.6 46.568 52.824C46.568 52.8667 46.4933 52.952 46.344 53.08C46.1947 53.208 46.1093 53.368 46.088 53.56L45.976 54.328C45.8053 56.696 44.44 58.36 41.88 59.32C41.3787 59.2773 41.128 59.1707 41.128 59C41.128 58.744 41.2827 58.568 41.592 58.472C43.8107 57.64 44.92 55.9867 44.92 53.512C44.92 53.352 44.92 53.192 44.92 53.032L44.888 52.488C44.888 52.4027 44.8507 52.3013 44.776 52.184H44.744C44.712 52.184 43.3307 52.4933 40.6 53.112C40.3653 53.112 40.136 53.0427 39.912 52.904C39.688 52.7547 39.3787 52.4827 38.984 52.088C38.5893 51.6933 38.392 51.4213 38.392 51.272C38.392 51.1227 38.472 51.048 38.632 51.048C38.7067 51.048 38.7653 51.064 38.808 51.096C39.2453 51.672 39.784 51.96 40.424 51.96C40.4773 51.96 40.536 51.9547 40.6 51.944C44.4827 51.6027 47.5227 51.1013 49.72 50.44C50.136 50.3227 50.3707 50.264 50.424 50.264C50.4773 50.264 50.616 50.3173 50.84 50.424C51.4587 50.7227 51.768 50.9947 51.768 51.24C51.768 51.4747 51.6293 51.6507 51.352 51.768C51.192 51.832 51.0587 51.864 50.952 51.864C50.856 51.864 50.6427 51.832 50.312 51.768C49.9813 51.704 49.6187 51.672 49.224 51.672C48.04 51.8107 46.856 51.9387 45.672 52.056ZM45.144 48.76H45.016C44.9413 48.76 44.568 48.8613 43.896 49.064C43.2347 49.256 42.6853 49.4107 42.248 49.528C42.0133 49.528 41.784 49.4747 41.56 49.368C41.3467 49.2613 41.0853 49.0267 40.776 48.664C40.4667 48.2907 40.312 48.0293 40.312 47.88C40.312 47.7307 40.392 47.656 40.552 47.656C40.6587 47.656 40.712 47.672 40.712 47.704C40.712 47.736 40.7653 47.8 40.872 47.896C41.2347 48.2587 41.6027 48.44 41.976 48.44C42.0507 48.44 42.12 48.4347 42.184 48.424L44.936 48.072L47.112 47.512C47.4533 47.416 47.7093 47.3413 47.88 47.288C48.0507 47.2347 48.1787 47.208 48.264 47.208C48.36 47.208 48.52 47.2613 48.744 47.368C49.3627 47.6667 49.672 47.9387 49.672 48.184C49.672 48.3547 49.56 48.4827 49.336 48.568C49.1227 48.6533 48.9733 48.696 48.888 48.696H48.68C48.04 48.5787 47.5387 48.52 47.176 48.52H47.144L45.144 48.76ZM65.608 49.816C65.608 50.0293 65.4907 50.136 65.256 50.136C65.1387 50.136 65.064 50.1467 65.032 50.168L64.92 50.376C63.8747 51.4213 62.984 52.2267 62.248 52.792C62.5573 52.9307 62.7333 53.0373 62.776 53.112C62.8293 53.176 62.856 53.2507 62.856 53.336C62.856 53.4213 62.7707 53.5333 62.6 53.672C62.4293 53.8107 62.344 53.9387 62.344 54.056V55.8C62.344 56.696 62.3493 57.208 62.36 57.336C62.3707 57.464 62.408 57.6613 62.472 57.928C62.536 58.184 62.568 58.3973 62.568 58.568C62.568 58.728 62.536 58.8933 62.472 59.064C62.344 59.384 62.168 59.544 61.944 59.544C61.8693 59.544 61.72 59.4693 61.496 59.32C61.176 59.1067 61.016 58.6373 61.016 57.912C61.016 57.6987 61.048 57.4587 61.112 57.192C61.1867 56.9253 61.224 56.5093 61.224 55.944C61.224 55.3787 61.1813 54.5893 61.096 53.576C60.0507 54.216 58.6107 54.7973 56.776 55.32C56.5733 55.384 56.4613 55.416 56.44 55.416C56.2373 55.416 56.136 55.3147 56.136 55.112C56.136 54.9733 56.28 54.8507 56.568 54.744C58.0827 54.2213 59.3253 53.624 60.296 52.952C61.4693 52.1413 62.5467 50.984 63.528 49.48C63.6133 49.3627 63.656 49.24 63.656 49.112C63.656 48.9733 63.624 48.8827 63.56 48.84C63.496 48.7973 63.3947 48.7493 63.256 48.696C63.1173 48.632 63.048 48.568 63.048 48.504C63.0587 48.3653 63.1653 48.296 63.368 48.296C63.816 48.296 64.1573 48.3813 64.392 48.552C65.2027 49.0853 65.608 49.5067 65.608 49.816ZM75.512 49.832C75.512 50.4613 75.32 50.776 74.936 50.776C74.6267 50.776 74.3867 50.616 74.216 50.296C73.6507 49.1973 72.7173 48.3653 71.416 47.8C71.2453 47.768 71.1547 47.6827 71.144 47.544C71.144 47.3733 71.2453 47.288 71.448 47.288L71.736 47.32C72.216 47.4267 72.8453 47.672 73.624 48.056C74.4027 48.4293 74.968 48.8027 75.32 49.176C75.448 49.3253 75.512 49.544 75.512 49.832ZM82.856 49.416C82.9413 49.416 82.984 49.5067 82.984 49.688C82.984 49.8693 82.968 50.008 82.936 50.104C81.688 52.7173 79.768 54.984 77.176 56.904C76.856 57.1493 76.0453 57.6453 74.744 58.392L74.264 58.664C73.9333 58.856 73.704 58.952 73.576 58.952C73.448 58.952 73.3413 58.9253 73.256 58.872C72.8293 58.68 72.4667 58.4027 72.168 58.04C71.8693 57.6773 71.6667 57.3413 71.56 57.032C71.4533 56.7227 71.4 56.5307 71.4 56.456L71.416 56.296C71.4907 56.1467 71.576 56.072 71.672 56.072C71.768 56.072 71.8373 56.104 71.88 56.168C71.9333 56.232 71.9973 56.3493 72.072 56.52C72.3173 57 72.7013 57.24 73.224 57.24C73.2347 57.24 73.2453 57.24 73.256 57.24C73.576 57.24 73.8427 57.1813 74.056 57.064L75.992 56.2C76.7173 55.6987 77.5227 55.112 78.408 54.44C80.0827 53.1387 81.4 51.64 82.36 49.944C82.5627 49.592 82.728 49.416 82.856 49.416ZM98.728 47.384C98.728 47.7573 98.5467 47.944 98.184 47.944C97.832 47.944 97.608 47.8053 97.512 47.528L97.368 47.048C97.2613 46.6853 97.064 46.3493 96.776 46.04C96.488 45.7307 96.344 45.5547 96.344 45.512V45.48C96.344 45.3307 96.472 45.256 96.728 45.256C96.7707 45.256 96.824 45.2773 96.888 45.32C98.0187 46.0027 98.6267 46.6107 98.712 47.144C98.7227 47.2293 98.728 47.3093 98.728 47.384ZM100.76 46.888C100.76 47.3147 100.541 47.528 100.104 47.528C99.8053 47.528 99.608 47.3893 99.512 47.112L99.368 46.632C99.272 46.3013 99.08 45.976 98.792 45.656C98.504 45.3253 98.36 45.1387 98.36 45.096C98.36 44.9467 98.456 44.872 98.648 44.872C98.6907 44.872 98.744 44.8827 98.808 44.904C100.109 45.6187 100.76 46.28 100.76 46.888ZM96.6 49.448C96.4933 49.416 96.3227 49.4 96.088 49.4C95.8533 49.4 95.4373 49.4533 94.84 49.56C94.2427 49.656 93.4053 49.784 92.328 49.944C91.208 51.6507 89.8267 52.9627 88.184 53.88C88.0773 53.9333 87.976 53.96 87.88 53.96C87.7947 53.96 87.7253 53.9333 87.672 53.88C87.6187 53.816 87.592 53.7573 87.592 53.704C87.592 53.5973 87.704 53.48 87.928 53.352C89.592 52.36 90.8507 50.584 91.704 48.024C91.7147 47.992 91.72 47.9707 91.72 47.96C91.72 47.6293 91.544 47.4213 91.192 47.336C91.0213 47.2933 90.936 47.224 90.936 47.128C90.936 46.9893 91.048 46.92 91.272 46.92C91.7733 46.92 92.3173 47.0427 92.904 47.288C93.2773 47.448 93.464 47.6347 93.464 47.848C93.464 47.9547 93.4107 48.0347 93.304 48.088C93.1973 48.1307 93.1387 48.1733 93.128 48.216C93.0107 48.4933 92.8827 48.7547 92.744 49C92.8827 49.0107 93.1333 49.016 93.496 49.016C93.8587 49.016 94.392 48.9307 95.096 48.76C95.8107 48.5787 96.2427 48.4613 96.392 48.408C96.744 48.1093 96.936 47.9547 96.968 47.944C97 47.9227 97.032 47.912 97.064 47.912C97.2667 47.912 97.5813 48.056 98.008 48.344C98.4453 48.632 98.664 48.856 98.664 49.016C98.664 49.176 98.5733 49.336 98.392 49.496C98.2107 49.6453 98.1147 49.7413 98.104 49.784C96.8667 54.1787 93.832 57.2827 89 59.096C88.9147 59.128 88.84 59.144 88.776 59.144C88.5733 59.144 88.472 58.9787 88.472 58.648V58.632C88.472 58.568 88.6533 58.456 89.016 58.296C93.56 56.1733 96.088 53.224 96.6 49.448Z" fill="black"/>
<path d="M18.6279 27.667C18.6051 28.5329 18.7988 29.0114 19.209 29.1025C19.3685 29.1481 19.5736 29.1709 19.8242 29.1709V22.4375H18.6963C17.8532 25.6048 16.3607 27.4847 14.2188 28.0771C13.6263 28.2367 12.9655 28.3164 12.2363 28.3164C9.34245 28.3164 7.53092 26.6758 6.80176 23.3945C6.52832 22.0957 6.3916 20.4893 6.3916 18.5752C6.41439 12.3317 8.45378 9.19857 12.5098 9.17578C14.6517 9.17578 16.2354 10.0531 17.2607 11.8076C17.7393 12.6507 18.1608 13.7331 18.5254 15.0547H19.7217L19.6191 8.32129C19.0267 8.32129 18.6735 8.50358 18.5596 8.86816C18.514 9.09603 18.5026 9.39225 18.5254 9.75684C16.543 8.68587 14.3555 8.15039 11.9629 8.15039C8.13477 8.15039 5.20671 9.4834 3.17871 12.1494C1.74316 14.0635 1.02539 16.2624 1.02539 18.7461C1.02539 21.6855 1.97103 24.1579 3.8623 26.1631C5.8903 28.2822 8.55632 29.3418 11.8604 29.3418C14.2074 29.3418 16.4632 28.7835 18.6279 27.667ZM26.2158 21.583C26.2158 18.3929 26.6032 16.3535 27.3779 15.4648C27.8564 14.9408 28.5286 14.6787 29.3945 14.6787C30.8529 14.6787 31.7871 15.4193 32.1973 16.9004C32.4707 17.8574 32.6074 19.3727 32.6074 21.4463C32.6074 24.7731 32.1745 26.8695 31.3086 27.7354C30.8073 28.2139 30.1579 28.4531 29.3604 28.4531C27.9476 28.4531 27.0361 27.724 26.626 26.2656C26.3525 25.2858 26.2158 23.7249 26.2158 21.583ZM29.5654 13.79C26.7627 13.79 24.6094 14.7471 23.1055 16.6611C22.0573 18.0283 21.5332 19.6234 21.5332 21.4463C21.5332 24.0212 22.4219 26.0605 24.1992 27.5645C25.612 28.7493 27.2982 29.3418 29.2578 29.3418C31.9466 29.3418 34.0544 28.3734 35.5811 26.4365C36.7204 24.9782 37.29 23.292 37.29 21.3779C37.29 18.8258 36.39 16.832 34.5898 15.3965C33.1999 14.3255 31.5251 13.79 29.5654 13.79ZM51.2012 29L57.3193 29C57.3193 28.4759 57.1826 28.1797 56.9092 28.1113C56.7952 28.0885 56.6585 28.0771 56.499 28.0771L54.9268 28.0771L54.9268 6.7832L47.4756 6.7832V7.67187H50.5859V15.2598C49.4238 14.2572 48.0339 13.7559 46.416 13.7559C44.2513 13.7559 42.4854 14.5876 41.1182 16.251C39.9333 17.7549 39.3408 19.6462 39.3408 21.9248C39.3408 24.7503 40.2637 26.8353 42.1094 28.1797C43.1576 28.9544 44.3197 29.3418 45.5957 29.3418C47.7148 29.3418 49.2871 28.4417 50.3125 26.6416C50.472 26.3682 50.6087 26.0833 50.7227 25.7871L51.2012 29ZM44.0234 21.5146C44.0234 18.1878 44.7412 16.0915 46.1768 15.2256C46.5869 14.9977 47.0199 14.8838 47.4756 14.8838C49.1162 14.8838 50.1302 16.1484 50.5176 18.6777C50.6087 19.3613 50.6543 20.0905 50.6543 20.8652C50.6543 24.2832 49.9365 26.4593 48.501 27.3936C48.0908 27.6442 47.6465 27.7695 47.168 27.7695C45.5729 27.7695 44.5817 26.4707 44.1943 23.873C44.0804 23.1667 44.0234 22.3805 44.0234 21.5146ZM66.2744 28.1113H65.0098V14.3027L58.6865 14.3027V15.1914H60.6689L60.6689 26.334C60.6689 27.3366 60.2702 27.9062 59.4727 28.043C59.2448 28.0885 58.9827 28.1113 58.6865 28.1113V29H67.0947C67.0947 28.4759 66.9466 28.1911 66.6504 28.1455C66.5365 28.1227 66.4111 28.1113 66.2744 28.1113ZM65.3174 9.8252C65.3174 8.82259 64.873 8.08203 63.9844 7.60352C63.597 7.37565 63.1868 7.26172 62.7539 7.26172C61.7741 7.26172 61.0335 7.70605 60.5322 8.59473C60.3271 8.9821 60.2246 9.39225 60.2246 9.8252C60.2246 10.8278 60.6689 11.557 61.5576 12.0127C61.945 12.2178 62.3438 12.3203 62.7539 12.3203C63.7565 12.3203 64.4971 11.8988 64.9756 11.0557C65.2035 10.6683 65.3174 10.2581 65.3174 9.8252ZM75.6396 28.1113H74.7852L74.8193 19.3613C74.9788 17.5612 75.6396 16.3763 76.8018 15.8066C77.1208 15.6471 77.4512 15.5674 77.793 15.5674C79.0918 15.5674 79.8551 16.3307 80.083 17.8574C80.1286 18.1536 80.1514 18.4613 80.1514 18.7803V26.334C80.1514 27.291 79.9007 27.8493 79.3994 28.0088C79.1715 28.0771 78.8981 28.1113 78.5791 28.1113V29H86.4746C86.4746 28.4759 86.3265 28.1911 86.0303 28.1455C85.8936 28.1227 85.7568 28.1113 85.6201 28.1113H84.4922V19.3613C84.4922 16.5358 83.4896 14.7699 81.4844 14.0635C80.9375 13.8812 80.3678 13.79 79.7754 13.79C78.112 13.79 76.6992 14.4508 75.5371 15.7725C75.1953 16.1598 74.9219 16.5586 74.7168 16.9687L74.5459 14.3027L68.4619 14.3027V15.1914H70.4443V26.334C70.4443 27.3822 69.9544 27.9632 68.9746 28.0771C68.8151 28.0999 68.6442 28.1113 68.4619 28.1113V29H76.46C76.46 28.4759 76.3118 28.1911 76.0156 28.1455C75.9017 28.1227 75.7764 28.1113 75.6396 28.1113ZM92.7979 19.5664C92.7979 17.3105 93.0485 15.8864 93.5498 15.2939C93.9144 14.8838 94.4499 14.6787 95.1562 14.6787C96.2956 14.6787 97.0133 15.2028 97.3096 16.251C97.4691 16.889 97.5488 17.96 97.5488 19.4639C97.5488 21.7653 97.2754 23.2236 96.7285 23.8389C96.3411 24.2262 95.8057 24.4199 95.1221 24.4199C94.0055 24.4199 93.3105 23.8958 93.0371 22.8477C92.8776 22.2324 92.7979 21.1387 92.7979 19.5664ZM95.293 13.79C92.6497 13.79 90.7129 14.6331 89.4824 16.3193C88.7988 17.2536 88.457 18.3018 88.457 19.4639C88.457 21.1045 89.2546 22.54 90.8496 23.7705C91.1458 23.9984 91.4535 24.2035 91.7725 24.3857H91.7383C90.3939 24.363 89.4596 24.9554 88.9355 26.1631C88.7533 26.6188 88.6621 27.0745 88.6621 27.5303C88.6849 28.624 89.1064 29.5127 89.9268 30.1963C89.3343 30.9027 89.0381 31.5977 89.0381 32.2812C89.0381 33.5117 89.847 34.4346 91.4648 35.0498C92.5586 35.46 93.8802 35.665 95.4297 35.665C99.1667 35.665 101.582 34.7878 102.676 33.0332C103.018 32.4863 103.188 31.9167 103.188 31.3242C103.188 29.0228 101.935 27.7126 99.4287 27.3936C99.1325 27.348 98.8249 27.3252 98.5059 27.3252L91.4307 27.1885C90.8382 27.1657 90.485 26.9036 90.3711 26.4023C90.3483 26.334 90.3369 26.2656 90.3369 26.1973C90.3369 25.6732 90.6217 25.377 91.1914 25.3086C91.2826 25.2858 91.3737 25.2744 91.4648 25.2744L95.1221 25.3086C97.6286 25.3086 99.5199 24.4541 100.796 22.7451C101.525 21.7425 101.89 20.626 101.89 19.3955C101.867 17.7321 101.24 16.3649 100.01 15.2939C100.42 14.6559 100.898 14.3255 101.445 14.3027C101.742 14.3027 102.106 14.4964 102.539 14.8838C102.881 15.1572 103.2 15.2939 103.496 15.2939C104.18 15.2939 104.601 14.9749 104.761 14.3369C104.784 14.223 104.795 14.109 104.795 13.9951C104.795 13.1748 104.396 12.5937 103.599 12.252C103.234 12.0924 102.835 12.0127 102.402 12.0127C101.217 12.0127 100.295 12.6963 99.6338 14.0635C99.5199 14.3141 99.4173 14.5648 99.3262 14.8154C98.2324 14.1318 96.888 13.79 95.293 13.79ZM95.4297 34.7422C92.6497 34.7422 90.9749 34.127 90.4053 32.8965C90.2913 32.6458 90.2344 32.3952 90.2344 32.1445C90.2344 31.666 90.4053 31.1875 90.7471 30.709C91.2028 30.8913 91.6813 30.9824 92.1826 30.9824L99.0869 31.0508C100.409 31.0508 101.183 31.2559 101.411 31.666C101.502 31.8255 101.548 32.0192 101.548 32.2471C101.548 33.318 100.488 34.0586 98.3691 34.4687C97.4805 34.651 96.5007 34.7422 95.4297 34.7422Z" fill="black"/>
</svg>
