<svg xmlns="http://www.w3.org/2000/svg" xmlns:xlink="http://www.w3.org/1999/xlink" width="233" height="33" viewBox="0 0 233 33">
  <defs>
    <linearGradient id="linear-gradient" x1="-0.013" y1="-0.204" x2="1.022" y2="1" gradientUnits="objectBoundingBox">
      <stop offset="0" stop-color="#d2e6ea"/>
      <stop offset="1" stop-color="#efd8d0"/>
    </linearGradient>
  </defs>
  <path id="パス_9" data-name="パス 9" d="M29.194-30.9a18.758,18.758,0,0,0-8.031-1.763,18.923,18.923,0,0,0-11.014,3.074c-4.681,3.21-7.481,7.73-7.481,13.607C2.668-5.853,9.69.34,18.96.34A18.512,18.512,0,0,0,27.4-1.649a8.229,8.229,0,0,0,4.268-4.927c.551-1.356-.413-2.034-1.423-.768-2.8,3.616-4.406,4.837-9.133,4.837-7.389,0-14-4.475-14-14.873,0-8.905,5.37-13.019,11.565-13.019,4.406,0,6.93.995,8.582,2.4,1.285.995,1.469,1.447,1.836,4.159.138,1.582,1.606,1.447,1.7-.226A34.705,34.705,0,0,1,31.9-31.3c.275-.768-.184-1.085-.6-.995C30.709-32.253,29.837-31.439,29.194-30.9Zm20.79,8.589a12.6,12.6,0,0,0-8.123,3.074,10.705,10.705,0,0,0-3.9,8.815C37.96-4.994,41.585.25,47.689.25a12.345,12.345,0,0,0,9.225-4.34,11.76,11.76,0,0,0,2.708-8.092A9.875,9.875,0,0,0,49.984-22.308Zm5.783,11.844c0,5.153-2.478,8.5-6.15,8.5-5.691,0-7.848-5.063-7.848-9.9,0-3.21,1.1-8.137,6.241-8.137C53.747-20,55.766-14.487,55.766-10.464Zm12.8,2.079a30.968,30.968,0,0,1-.138,4.249C68.341-2.824,68.2-2.508,66.138-2.1c-1.377.226-1.423,1.627.138,1.627,1.193,0,2.478-.09,3.993-.09,1.652,0,3.167.09,4.176.09,1.469,0,1.56-1.4.229-1.627C72.38-2.508,72.2-2.824,72.15-4.09a23.88,23.88,0,0,1-.138-3.616v-7.685a1.51,1.51,0,0,1,.321-1.175,7.419,7.419,0,0,1,5.186-2.758c3.488,0,5.186,2.17,5.186,5.515v3.029c0,4.385-.092,5.425-.138,6.329-.046,1.447-.184,1.9-2.616,2.351-1.423.226-1.423,1.627.229,1.627.872,0,2.662-.09,3.855-.09,1.56,0,2.8.09,4.268.09,1.514,0,1.56-1.4.138-1.627-2.019-.362-2.295-.542-2.295-1.989v-10.4c0-5.063-2.524-7.821-6.379-7.821a7.278,7.278,0,0,0-3.855,1.175A33.5,33.5,0,0,0,72.1-18.42a15.215,15.215,0,0,0-.229-3.164c-.092-.5-.275-.723-.688-.723a3.146,3.146,0,0,0-1.193.5A16.242,16.242,0,0,1,66.322-20a.729.729,0,0,0-.092,1.4c2.111.678,2.341,1.085,2.341,2.441Zm31.85-10.578h2.386c2.019,0,2.524-.09,2.708-.316a3.108,3.108,0,0,0,.643-1.808c0-.316-.092-.452-.367-.407s-1.423.09-2.478.09h-2.891c.046-5.515.184-6.555.413-7.052.367-.859-.138-1.311-.918-.814a9.556,9.556,0,0,0-2.57,2.486c-.138.362-.321,1.356-.367,5.379a9.363,9.363,0,0,0-2.8.181c-.275.136-1.239,1.13-1.239,1.627,0,.271.092.542.413.588.367.045.964.045,3.029.045h.6V-6.486c0,5.605,2.111,6.555,4.314,6.555a7.267,7.267,0,0,0,4.589-1.718c1.239-1.175.688-2.079-.275-1.808a5.909,5.909,0,0,1-2.478.452c-1.928,0-2.708-1.175-2.708-3.933Zm24.094,7.1c-.688-.045-1.331-.09-1.79-.09-5.186,0-11.2,2.305-11.2,6.464,0,4.114,3.075,5.605,4.911,5.605,2.111,0,4.543-.995,7.848-3.752.092,2.26.275,3.526,1.744,3.571a8.3,8.3,0,0,0,4.36-1.085c.964-.542.964-1.763,0-1.718-.872,0-2.2.045-2.616-.678a1.923,1.923,0,0,1-.138-.9c0-.542.138-7.549.138-10.488s-1.056-7.368-6.517-7.368c-1.606,0-5.645,1.718-7.985,3.526a1.553,1.553,0,0,0-.643,1.356,4.544,4.544,0,0,0,.459,2.034c.6,1.356,1.652,1.085,2.019.136.413-.995.643-2.26,1.1-3.119.459-.9,1.331-1.537,3.121-1.537,2.249,0,5,1.266,5.186,5.741Zm0,4.792a1.876,1.876,0,0,1-.551,1.627c-2.019,2.26-3.717,2.622-5.14,2.622-2.57,0-3.534-1.582-3.534-3.345,0-2.351,2.111-3.8,5.278-3.842a17.257,17.257,0,0,1,3.626.181c.184.045.321.045.321.316ZM148.7-22.308a12.793,12.793,0,0,0-7.022,2.17,11.535,11.535,0,0,0-5.461,9.674c0,5.741,3.947,10.488,8.949,10.488a11.373,11.373,0,0,0,8.582-3.616c1.1-1.221.5-2.4-.78-1.447A8.453,8.453,0,0,1,147.6-3.05c-3.258,0-7.572-1.989-7.572-8.86,0-5.515,2.478-7.911,6.012-7.911a5.944,5.944,0,0,1,5.553,2.893c.551.995,1.147.452,1.514-.136a4.906,4.906,0,0,0,.78-2.351,1.9,1.9,0,0,0-.78-1.537A6.229,6.229,0,0,0,148.7-22.308Zm17.99,3.345h2.386c2.019,0,2.524-.09,2.708-.316a3.108,3.108,0,0,0,.643-1.808c0-.316-.092-.452-.367-.407s-1.423.09-2.478.09H166.69c.046-5.515.184-6.555.413-7.052.367-.859-.138-1.311-.918-.814a9.556,9.556,0,0,0-2.57,2.486c-.138.362-.321,1.356-.367,5.379a9.362,9.362,0,0,0-2.8.181c-.275.136-1.239,1.13-1.239,1.627,0,.271.092.542.413.588.367.045.964.045,3.029.045h.6V-6.486c0,5.605,2.111,6.555,4.314,6.555a7.267,7.267,0,0,0,4.589-1.718c1.239-1.175.688-2.079-.275-1.808a5.909,5.909,0,0,1-2.478.452c-1.928,0-2.708-1.175-2.708-3.933ZM197.9-16.115a20.1,20.1,0,0,1,.413-5.153c.138-.633-.229-.995-.643-.995a7.173,7.173,0,0,0-1.239.452,17.054,17.054,0,0,1-3.9.995c-1.056.181-1.285,1.266-.229,1.582,1.7.5,1.973,1.085,2.019,1.673.092.995.092,1.944.092,2.758v7.459c0,3.255.964,4.882,1.836,5.741A5.755,5.755,0,0,0,200.56.069c3.075,0,5.6-2.4,7.572-4.159.092,2.26.229,4.114,1.377,4.114a9.485,9.485,0,0,0,5.094-1.9c.734-.633.551-1.537-.275-1.492-1.514.136-1.928.136-2.432-.542-.275-.316-.367-1.763-.367-4.068v-8.363a28.34,28.34,0,0,1,.275-4.7.642.642,0,0,0-.6-.9c-.184,0-.643.181-1.423.362a16.994,16.994,0,0,1-4.406.5c-1.423.045-1.469,1.447-.275,1.627,2.432.452,2.754.814,2.891,1.944a15.712,15.712,0,0,1,.092,1.944v8.725a1.411,1.411,0,0,1-.184.949A6.968,6.968,0,0,1,202.4-3.005a4.043,4.043,0,0,1-4.222-3.029A13.717,13.717,0,0,1,197.9-9.56Zm29.463,2.441c-1.744-.678-3.121-1.492-3.121-3.571,0-1.537.78-3.074,3.488-3.074,1.836,0,3.3.678,3.947,1.944a7.581,7.581,0,0,1,.78,2.305c.229,1.221,1.652.995,1.652-.5a32.966,32.966,0,0,1,.459-5.7c.138-.723-.688-.768-1.239-.362-.275.181-.5.542-.826.768-.138.09-.184.136-.5.045a9.444,9.444,0,0,0-3.029-.5,9,9,0,0,0-5.507,1.718,5.794,5.794,0,0,0-2.524,4.7c0,3.119,2.57,4.611,4.314,5.289,1.331.5,3.075,1.13,4.406,1.673,1.514.723,2.432,1.718,2.432,3.345q0,3.662-3.993,3.662c-2.8,0-4.406-1.175-5.232-3.029-.184-.5-.551-1.492-.643-1.763-.413-1.356-1.836-1.085-1.7.316a55.713,55.713,0,0,1,.367,5.56c0,1.266,1.147.949,1.652.362.275-.362.5-.271.78-.136a9.1,9.1,0,0,0,3.717.723A9.824,9.824,0,0,0,232-1.2c2.662-1.673,3.671-3.752,3.671-6.012,0-2.758-2.157-4.2-4.268-5.063Z" transform="translate(-2.668 32.66)" fill="url(#linear-gradient)"/>
</svg>
