<svg xmlns="http://www.w3.org/2000/svg" xmlns:xlink="http://www.w3.org/1999/xlink" width="442" height="50" viewBox="0 0 442 50">
  <defs>
    <linearGradient id="linear-gradient" x2="1" y2="0.855" gradientUnits="objectBoundingBox">
      <stop offset="0" stop-color="#d2e6ea"/>
      <stop offset="1" stop-color="#efd8d0"/>
    </linearGradient>
  </defs>
  <path id="アクセントtext" d="M14.967-11.779c-.688-.045-1.331-.091-1.79-.091-5.186,0-11.2,2.32-11.2,6.506,0,4.14,3.075,5.641,4.911,5.641,2.111,0,4.544-1,7.848-3.776C14.829-1.224,15.013.05,16.481.1A8.26,8.26,0,0,0,20.842-1c.964-.546.964-1.774,0-1.729-.872,0-2.2.045-2.616-.682a1.946,1.946,0,0,1-.138-.91c0-.546.138-7.6.138-10.555s-1.056-7.416-6.517-7.416c-1.606,0-5.645,1.729-7.986,3.549a1.567,1.567,0,0,0-.643,1.365,4.6,4.6,0,0,0,.459,2.047c.6,1.365,1.652,1.092,2.019.136.413-1,.643-2.275,1.1-3.139.459-.91,1.331-1.547,3.121-1.547,2.249,0,5,1.274,5.186,5.778Zm0,4.823a1.894,1.894,0,0,1-.551,1.638C12.4-3.044,10.7-2.68,9.276-2.68c-2.57,0-3.534-1.592-3.534-3.367,0-2.366,2.111-3.822,5.278-3.867a17.152,17.152,0,0,1,3.626.182c.184.045.321.045.321.318ZM63.25-13.235c0-4.14-3.259-9.054-8.17-9.054-2.478,0-7.068,2.775-8.307,3.367V-33.253a10.621,10.621,0,0,1,.367-2.73c.092-.591-.092-.955-.5-.955a2.706,2.706,0,0,0-1.147.409,23.344,23.344,0,0,1-4.773,1.547c-1.331.182-1.285,1.274-.092,1.547,1.606.409,2.111.682,2.341,1.046.184.273.321,1.319.321,5.141V-9.686c0,2.957-.092,6.324-.229,8.007-.092.864,0,1.319.551,1.274.5-.045,1.469-.591,1.836-.409A10.083,10.083,0,0,0,49.986.277a11.828,11.828,0,0,0,6.655-1.956A12.882,12.882,0,0,0,63.25-13.235ZM59.3-11.279c0,5.914-2.891,9.008-7.16,9.008A7.529,7.529,0,0,1,47.37-3.817c-.367-.273-.321-.591-.413-1.274a14.986,14.986,0,0,1-.184-2.73v-8.053c0-.591.046-.955.367-1.228A7.75,7.75,0,0,1,52.694-19.2C56.825-19.2,59.3-16.192,59.3-11.279Zm23.178-11.01c-1.469,0-2.846.728-6.655,4.459a22.935,22.935,0,0,0-.275-3.594c-.092-.5-.321-.864-.688-.864a1.471,1.471,0,0,0-.78.273,39.63,39.63,0,0,1-4.177,2.093c-.734.318-.734,1.092,0,1.365,1.744.546,2.2.864,2.249,1.547a14.922,14.922,0,0,1,.138,3v7.461a17.583,17.583,0,0,1-.138,2.866c-.092,1.092-.184,1.274-2.111,1.774-1.239.318-1.1,1.592.138,1.592,1.1,0,2.295-.091,4.268-.091s3.58.091,4.544.091c1.285,0,1.469-1.274.092-1.547-2.662-.5-3.075-.682-3.167-2-.046-.682-.092-1.592-.092-2.73v-8.963a.952.952,0,0,1,.229-.682c1.469-1.683,2.8-2.184,3.947-2.184a3.178,3.178,0,0,1,2.433,1.137c.688.773.78.864,1.193.864.459,0,.872-.5,1.01-.864a4.561,4.561,0,0,0,.643-2.411A2.652,2.652,0,0,0,82.481-22.289ZM95.286-.405c1.652,0,2.754.091,3.9.091,1.606,0,1.606-1.456.184-1.683-2.111-.409-2.295-.773-2.295-2.912V-15.464a31.426,31.426,0,0,1,.367-5.823c.092-.682-.184-1-.643-1a2.435,2.435,0,0,0-1.147.455,11.6,11.6,0,0,1-3.9,1.41c-1.1.182-1.056,1.183-.229,1.5,1.836.728,1.974.91,2.019,1.638a12.173,12.173,0,0,1,.092,2.047V-4.682c0,1.911-.275,2.275-2.249,2.684-1.469.273-1.423,1.683.138,1.683C92.349-.314,94-.405,95.286-.405ZM95.378-33.3a2.6,2.6,0,0,0-2.57,2.73,2.414,2.414,0,0,0,2.433,2.548,2.579,2.579,0,0,0,2.57-2.775A2.485,2.485,0,0,0,95.378-33.3ZM109.56-14.373c.5-4,2.662-5.641,5.095-5.641a5.329,5.329,0,0,1,5.462,5.232c0,.227-.046.409-.229.5a55.734,55.734,0,0,1-8.353.409,15.8,15.8,0,0,1-1.7-.091C109.606-14.009,109.56-14.1,109.56-14.373Zm-.138,2.593c8.766,0,11.107-.5,12.943-1,.826-.227,1.744-.819,1.744-1.638,0-.409-.229-.546-.5-.682a7.218,7.218,0,0,0-7.435-7.188,10.091,10.091,0,0,0-6.426,2.593,11.919,11.919,0,0,0-3.947,9.1c0,6.187,3.718,10.783,9.042,10.783a12.034,12.034,0,0,0,8.032-3.139c1.147-1.137.734-2.411-.688-1.547a8.922,8.922,0,0,1-5.14,1.638C112.589-2.862,109.514-5.728,109.422-11.779Zm23.729,3.958a29.088,29.088,0,0,1-.138,3.594c-.092,1.456-.23,1.865-2.157,2.229-1.606.273-1.606,1.683.138,1.683.826,0,2.341-.091,4.223-.091,2.2,0,3.121.091,4.131.091,1.836,0,1.882-1.5.092-1.683-2.387-.318-2.616-.591-2.708-2.184-.046-.773-.092-2-.092-3.822V-18.877h1.882c2.387,0,2.8-.091,2.983-.318a3.834,3.834,0,0,0,.734-1.911c0-.318-.184-.5-.5-.409a15.7,15.7,0,0,1-2.478.136h-2.616v-.682c0-10.919,2.524-11.874,4.957-11.874a6.175,6.175,0,0,1,4.544,2.32.8.8,0,0,0,1.193-.136,4.076,4.076,0,0,0,1.239-2.548,1.958,1.958,0,0,0-.6-1.456,5.327,5.327,0,0,0-3.947-1.228c-2.341,0-5.737,1.456-8.216,5.05-2.157,3.094-2.57,5.551-2.662,10.555a11.126,11.126,0,0,0-2.937.182,3.081,3.081,0,0,0-1.1,1.638c0,.318.092.546.367.591s1.469.091,3.672.091Zm32.77-10.419c-.275-.773-.138-1.092,2.065-1.638,1.423-.364,1.377-1.638-.092-1.638-.78,0-3.167.136-4.406.136-1.285,0-2.754-.045-4.039-.045-1.469,0-1.561,1.41-.138,1.638,1.974.364,2.249.591,3.075,2.73C163.9-13.1,167.161-3.363,167.8-1.406c.321,1.137.6,1.82,1.056,1.82.643,0,.964-.728,1.285-1.319.459-.637,4.452-10.419,5.554-12.966.229-.455.367-.546.643-.045.872,2.138,4.223,10.692,5.278,13.467,0,.045.321.864.872.864.643,0,1.193-1.092,1.652-2.138,1.606-4.095,5.462-14.058,6.609-16.47.459-.864.643-1.183,2.616-1.638,1.239-.227,1.331-1.638-.138-1.638-1.01,0-2.249.091-3.35.091-1.79,0-3.718-.136-4.452-.091-1.285.045-1.331,1.41-.138,1.592,2.662.455,2.983.773,2.8,1.774-.367,1.683-3.029,8.826-4.314,12.147-.23.591-.367.728-.643.182-.918-2.138-3.442-8.508-4.452-11.419-.688-2-.826-2.821-1.056-3.594-.092-.409-.643-.409-1.1.045a3.871,3.871,0,0,0-.826,1.228c-.688,1.956-4.085,10.646-5.416,13.785-.138.227-.275.182-.321,0C168.951-8.686,166.748-15.009,165.921-18.24Zm44.29-4.049a12.56,12.56,0,0,0-8.124,3.094,10.8,10.8,0,0,0-3.9,8.872c0,5.46,3.626,10.737,9.73,10.737a12.319,12.319,0,0,0,9.225-4.368A11.881,11.881,0,0,0,219.85-12.1C219.85-17.512,215.765-22.289,210.212-22.289Zm5.783,11.92c0,5.187-2.478,8.553-6.15,8.553-5.691,0-7.848-5.1-7.848-9.964,0-3.23,1.1-8.189,6.242-8.189C213.975-19.969,215.995-14.418,215.995-10.369Zm22.994-11.92c-1.469,0-2.846.728-6.655,4.459a22.937,22.937,0,0,0-.275-3.594c-.092-.5-.321-.864-.688-.864a1.471,1.471,0,0,0-.78.273,39.63,39.63,0,0,1-4.177,2.093c-.734.318-.734,1.092,0,1.365,1.744.546,2.2.864,2.249,1.547a14.922,14.922,0,0,1,.138,3v7.461a17.583,17.583,0,0,1-.138,2.866c-.092,1.092-.184,1.274-2.111,1.774-1.239.318-1.1,1.592.138,1.592,1.1,0,2.295-.091,4.268-.091s3.58.091,4.544.091c1.285,0,1.469-1.274.092-1.547-2.662-.5-3.075-.682-3.167-2-.046-.682-.092-1.592-.092-2.73v-8.963a.952.952,0,0,1,.229-.682c1.469-1.683,2.8-2.184,3.947-2.184a3.178,3.178,0,0,1,2.433,1.137c.688.773.78.864,1.193.864.459,0,.872-.5,1.01-.864a4.561,4.561,0,0,0,.643-2.411A2.652,2.652,0,0,0,238.989-22.289Zm13.4-9.236a19.807,19.807,0,0,1,.275-4.186c.275-.773,0-1.274-.551-1.274a2.863,2.863,0,0,0-1.147.455,20.044,20.044,0,0,1-4.911,1.456c-1.147.227-1.1,1.274-.046,1.547,2.249.5,2.708.682,2.8,1.956.092.864.092,1.774.092,5.278V-8.959c0,3.594-.092,4.6-.138,5.187-.138,1-.275,1.456-2.295,1.82-1.423.227-1.239,1.638.138,1.638,1.469,0,2.249-.091,4.223-.091,1.423,0,3.121.091,3.993.091,1.515,0,1.606-1.41.184-1.638-2.157-.409-2.433-.819-2.524-1.865-.046-.591-.092-1.41-.092-4.413V-9.413c.734-.5,1.469-.955,2.249-1.5.321-.273.459-.182.551,0,2.478,3.685,4.681,6.642,5.875,8.235,1.377,1.82,2.341,2.366,3.213,2.457a17.907,17.907,0,0,0,4.727-.045c1.606-.273,1.469-1.638.092-1.683-2.341-.091-2.937-.364-4.911-2.548-1.744-2.047-4.544-5.505-6.609-8.508,2.065-1.774,4.085-3.5,5.921-5a9.556,9.556,0,0,1,3.213-1.911c.826-.318,1.056-.637,1.056-1.046,0-.364-.275-.637-1.193-.637s-2.295.136-3.626.182c-1.377.045-2.937.045-3.993.045-1.606,0-1.652,1.456-.138,1.683,1.744.318,2.249.455,2.249.773,0,.364-.413.728-1.377,1.683a52.082,52.082,0,0,1-7.3,6.005Zm42.041,14.786a6.7,6.7,0,0,1,5.186-2.5c3.029,0,5.232,1.319,5.232,5.96v5.6c0,2.775-.046,3.685-.092,4.095-.092,1-.459,1.319-2.019,1.683-1.469.318-1.285,1.592.229,1.592,1.79,0,2.478-.091,3.764-.091,1.147,0,2.57.091,3.534.091,1.744,0,1.606-1.365.046-1.638-1.606-.318-1.882-.728-1.928-1.638-.046-.728-.046-1.092-.046-1.592v-9.827c0-3.822-2.111-7.279-6.517-7.279a7.577,7.577,0,0,0-3.672,1,23.957,23.957,0,0,0-3.58,2.457c-.275.227-.367.136-.367-.045V-30.751a23.735,23.735,0,0,1,.367-5.369.665.665,0,0,0-.6-.864,3.341,3.341,0,0,0-1.56.591,12.06,12.06,0,0,1-4.314,1.365c-1.56.182-1.239,1.456-.229,1.547,2.387.5,2.662.728,2.754,1.729.092,1.046.092,2,.092,5V-8.777c0,2.32,0,3.185-.092,4.823-.092,1.5-.459,1.729-1.836,2-1.7.273-1.7,1.638,0,1.638,1.1,0,1.928-.091,3.672-.091,1.7,0,2.8.091,3.855.091,1.377,0,1.56-1.365,0-1.638-1.836-.364-1.928-.728-2.019-1.956-.046-.546-.092-1.911-.092-4.277V-15.51C294.2-16.238,294.2-16.465,294.432-16.738ZM321.6-.405c1.652,0,2.754.091,3.9.091,1.606,0,1.606-1.456.184-1.683-2.111-.409-2.295-.773-2.295-2.912V-15.464a31.425,31.425,0,0,1,.367-5.823c.092-.682-.184-1-.643-1a2.435,2.435,0,0,0-1.147.455,11.6,11.6,0,0,1-3.9,1.41c-1.1.182-1.056,1.183-.229,1.5,1.836.728,1.974.91,2.02,1.638a12.177,12.177,0,0,1,.092,2.047V-4.682c0,1.911-.275,2.275-2.249,2.684-1.469.273-1.423,1.683.138,1.683C318.666-.314,320.318-.405,321.6-.405ZM321.7-33.3a2.6,2.6,0,0,0-2.57,2.73,2.414,2.414,0,0,0,2.432,2.548,2.579,2.579,0,0,0,2.57-2.775A2.485,2.485,0,0,0,321.7-33.3Zm17.487,19.7c-1.744-.682-3.121-1.5-3.121-3.594,0-1.547.78-3.094,3.488-3.094a4.16,4.16,0,0,1,3.947,1.956,7.664,7.664,0,0,1,.78,2.32c.229,1.228,1.652,1,1.652-.5a33.381,33.381,0,0,1,.459-5.732c.138-.728-.688-.773-1.239-.364-.275.182-.5.546-.826.773-.138.091-.184.136-.5.045a9.391,9.391,0,0,0-3.029-.5,8.965,8.965,0,0,0-5.508,1.729,5.842,5.842,0,0,0-2.524,4.732c0,3.139,2.57,4.641,4.314,5.323,1.331.5,3.075,1.137,4.406,1.683a3.6,3.6,0,0,1,2.433,3.367q0,3.685-3.993,3.685c-2.8,0-4.406-1.183-5.232-3.048-.184-.5-.551-1.5-.643-1.774-.413-1.365-1.836-1.092-1.7.318.229,2.275.367,4,.367,5.6,0,1.274,1.147.955,1.652.364.275-.364.5-.273.78-.136a9.049,9.049,0,0,0,3.718.728,9.777,9.777,0,0,0,4.957-1.319c2.662-1.683,3.672-3.776,3.672-6.051,0-2.775-2.157-4.231-4.268-5.1Zm20.608-5.323h2.387c2.019,0,2.524-.091,2.708-.318a3.14,3.14,0,0,0,.643-1.82c0-.318-.092-.455-.367-.409s-1.423.091-2.478.091H359.79c.046-5.551.184-6.6.413-7.1.367-.864-.138-1.319-.918-.819a9.584,9.584,0,0,0-2.57,2.5c-.138.364-.321,1.365-.367,5.414a9.306,9.306,0,0,0-2.8.182c-.275.136-1.239,1.137-1.239,1.638,0,.273.092.546.413.591.367.045.964.045,3.029.045h.6V-6.365c0,5.641,2.111,6.6,4.314,6.6a7.241,7.241,0,0,0,4.59-1.729c1.239-1.183.688-2.093-.275-1.82a5.877,5.877,0,0,1-2.478.455c-1.928,0-2.708-1.183-2.708-3.958Zm23.086-3.367a12.56,12.56,0,0,0-8.124,3.094,10.8,10.8,0,0,0-3.9,8.872c0,5.46,3.626,10.737,9.73,10.737a12.319,12.319,0,0,0,9.225-4.368,11.881,11.881,0,0,0,2.708-8.144C392.514-17.512,388.429-22.289,382.876-22.289Zm5.783,11.92c0,5.187-2.478,8.553-6.15,8.553-5.691,0-7.848-5.1-7.848-9.964,0-3.23,1.1-8.189,6.242-8.189C386.639-19.969,388.659-14.418,388.659-10.369Zm22.994-11.92c-1.469,0-2.846.728-6.655,4.459a22.936,22.936,0,0,0-.275-3.594c-.092-.5-.321-.864-.688-.864a1.471,1.471,0,0,0-.78.273,39.632,39.632,0,0,1-4.177,2.093c-.734.318-.734,1.092,0,1.365,1.744.546,2.2.864,2.249,1.547a14.922,14.922,0,0,1,.138,3v7.461a17.583,17.583,0,0,1-.138,2.866c-.092,1.092-.184,1.274-2.111,1.774-1.239.318-1.1,1.592.138,1.592,1.1,0,2.295-.091,4.268-.091s3.58.091,4.544.091c1.285,0,1.469-1.274.092-1.547-2.662-.5-3.075-.682-3.167-2-.046-.682-.092-1.592-.092-2.73v-8.963a.952.952,0,0,1,.229-.682c1.469-1.683,2.8-2.184,3.947-2.184a3.178,3.178,0,0,1,2.433,1.137c.688.773.78.864,1.193.864.459,0,.872-.5,1.01-.864a4.561,4.561,0,0,0,.643-2.411A2.652,2.652,0,0,0,411.653-22.289Zm11.979,5.505c1.652,3.549,4.5,10.009,6.7,15.287a.946.946,0,0,1-.046.728c-.78,1.5-1.515,3-2.387,4.641-1.1,1.82-1.652,2.775-2.8,4.55-.826,1.365-1.377,2.275-1.377,2.957,0,.773,1.01,1.638,2.57,1.638a1.114,1.114,0,0,0,1.239-.864c.367-1.137,1.056-3.185,3.259-8.6,4.36-10.328,7.711-17.334,9.225-20.746.78-1.683,1.1-2.138,2.8-2.548,1.652-.364,1.469-1.774-.092-1.729-1.193,0-2.616.091-3.626.091-1.331,0-2.754-.091-3.626-.091-1.515.045-1.515,1.41-.046,1.683,2.295.455,2.524.773,2.065,2.411-.459,1.319-2.433,6.369-4.911,11.783-.092.182-.229.136-.367-.091-1.193-3-3.35-8.189-5.095-12.42-.367-1-.138-1.274,1.652-1.683,1.285-.273,1.239-1.683-.229-1.683-.872,0-2.983.091-3.9.091-1.331,0-3.121-.136-4.268-.091-1.469.045-1.515,1.41-.046,1.638C422.347-19.423,422.576-18.831,423.632-16.784Z" transform="translate(-1.978 36.984)" fill="url(#linear-gradient)"/>
</svg>
