<svg xmlns="http://www.w3.org/2000/svg" xmlns:xlink="http://www.w3.org/1999/xlink" width="27" height="239" viewBox="0 0 27 239">
  <defs>
    <linearGradient id="linear-gradient" x2="1" y2="0.855" gradientUnits="objectBoundingBox">
      <stop offset="0" stop-color="#d2e6ea"/>
      <stop offset="1" stop-color="#efd8d0"/>
    </linearGradient>
  </defs>
  <path id="アクセントtext" d="M9-23.373c-.372-.025-.72-.049-.968-.049-2.8,0-6.055,1.253-6.055,3.513a2.808,2.808,0,0,0,2.655,3.046c1.142,0,2.457-.54,4.244-2.039.05,1.228.149,1.916.943,1.941a4.471,4.471,0,0,0,2.358-.59c.521-.295.521-.958,0-.934-.472,0-1.191.025-1.415-.369a1.05,1.05,0,0,1-.074-.491c0-.295.074-4.1.074-5.7s-.571-4-3.524-4a10.087,10.087,0,0,0-4.318,1.916.846.846,0,0,0-.347.737,2.48,2.48,0,0,0,.248,1.106c.323.737.893.59,1.092.074.223-.54.347-1.228.6-1.7A1.661,1.661,0,0,1,6.2-27.747c1.216,0,2.705.688,2.8,3.12Zm0,2.6a1.022,1.022,0,0,1-.3.884,3.488,3.488,0,0,1-2.78,1.425,1.7,1.7,0,0,1-1.911-1.818c0-1.278,1.142-2.064,2.854-2.088a9.286,9.286,0,0,1,1.961.1c.1.025.174.025.174.172Zm26.108-3.39c0-2.236-1.762-4.889-4.418-4.889-1.34,0-3.822,1.5-4.492,1.818v-7.739a5.728,5.728,0,0,1,.2-1.474c.05-.319-.05-.516-.273-.516a1.464,1.464,0,0,0-.62.221,12.634,12.634,0,0,1-2.581.835c-.72.1-.695.688-.05.835.869.221,1.142.369,1.266.565a8.745,8.745,0,0,1,.174,2.776v9.483c0,1.6-.05,3.415-.124,4.324-.05.467,0,.712.3.688.273-.025.794-.319.993-.221a5.458,5.458,0,0,0,2.457.59,6.4,6.4,0,0,0,3.6-1.056A6.955,6.955,0,0,0,35.109-24.16ZM32.975-23.1c0,3.194-1.564,4.864-3.872,4.864a4.075,4.075,0,0,1-2.581-.835c-.2-.147-.174-.319-.223-.688a8.082,8.082,0,0,1-.1-1.474v-4.348c0-.319.025-.516.2-.663a4.193,4.193,0,0,1,3-1.13C31.635-27.378,32.975-25.757,32.975-23.1Zm12.533-5.945c-.794,0-1.539.393-3.6,2.408a12.368,12.368,0,0,0-.149-1.941c-.05-.27-.174-.467-.372-.467a.8.8,0,0,0-.422.147,21.44,21.44,0,0,1-2.258,1.13c-.4.172-.4.59,0,.737.943.295,1.191.467,1.216.835A8.047,8.047,0,0,1,40-24.577v4.029A9.482,9.482,0,0,1,39.924-19c-.05.59-.1.688-1.142.958-.67.172-.6.86.074.86.6,0,1.241-.049,2.308-.049s1.936.049,2.457.049c.695,0,.794-.688.05-.835-1.439-.27-1.663-.369-1.712-1.081-.025-.369-.05-.86-.05-1.474v-4.84a.513.513,0,0,1,.124-.369,2.835,2.835,0,0,1,2.134-1.179,1.719,1.719,0,0,1,1.315.614c.372.418.422.467.645.467.248,0,.472-.27.546-.467a2.46,2.46,0,0,0,.347-1.3A1.433,1.433,0,0,0,45.508-29.049Zm6.924,11.817c.893,0,1.489.049,2.109.049.869,0,.869-.786.1-.909-1.142-.221-1.241-.418-1.241-1.572v-5.7a16.948,16.948,0,0,1,.2-3.145c.05-.369-.1-.54-.347-.54a1.318,1.318,0,0,0-.62.246,6.276,6.276,0,0,1-2.109.762c-.6.1-.571.639-.124.811.993.393,1.067.491,1.092.884a6.564,6.564,0,0,1,.05,1.106v5.7c0,1.032-.149,1.228-1.216,1.45-.794.147-.769.909.074.909C50.844-17.182,51.737-17.231,52.432-17.231Zm.05-17.763a1.4,1.4,0,0,0-1.39,1.474,1.3,1.3,0,0,0,1.315,1.376,1.393,1.393,0,0,0,1.39-1.5A1.343,1.343,0,0,0,52.482-34.994Zm7.669,10.22c.273-2.162,1.439-3.046,2.755-3.046a2.88,2.88,0,0,1,2.953,2.825c0,.123-.025.221-.124.27a30.176,30.176,0,0,1-4.517.221,8.557,8.557,0,0,1-.918-.049C60.175-24.577,60.15-24.626,60.15-24.774Zm-.074,1.4c4.74,0,6.006-.27,7-.54.447-.123.943-.442.943-.884,0-.221-.124-.295-.273-.369a3.9,3.9,0,0,0-4.02-3.882,5.46,5.46,0,0,0-3.474,1.4,6.432,6.432,0,0,0-2.134,4.914c0,3.341,2.01,5.823,4.889,5.823a6.511,6.511,0,0,0,4.343-1.7c.62-.614.4-1.3-.372-.835a4.829,4.829,0,0,1-2.78.884C61.788-18.558,60.125-20.106,60.076-23.373Zm12.831,2.137a15.687,15.687,0,0,1-.074,1.941c-.05.786-.124,1.007-1.166,1.2-.869.147-.869.909.074.909.447,0,1.266-.049,2.283-.049,1.191,0,1.688.049,2.234.049.993,0,1.018-.811.05-.909-1.291-.172-1.415-.319-1.464-1.179-.025-.418-.05-1.081-.05-2.064v-5.872H75.81c1.291,0,1.514-.049,1.613-.172a2.069,2.069,0,0,0,.4-1.032c0-.172-.1-.27-.273-.221a8.5,8.5,0,0,1-1.34.074H74.793v-.369c0-5.9,1.365-6.412,2.68-6.412a3.341,3.341,0,0,1,2.457,1.253.435.435,0,0,0,.645-.074,2.2,2.2,0,0,0,.67-1.376,1.057,1.057,0,0,0-.323-.786,2.883,2.883,0,0,0-2.134-.663,5.79,5.79,0,0,0-4.442,2.727c-1.166,1.671-1.39,3-1.439,5.7a6.024,6.024,0,0,0-1.588.1,1.663,1.663,0,0,0-.6.884c0,.172.05.295.2.319s.794.049,1.985.049Zm17.72-5.626c-.149-.418-.074-.59,1.117-.884.769-.2.745-.884-.05-.884-.422,0-1.712.074-2.382.074-.695,0-1.489-.025-2.184-.025-.794,0-.844.762-.074.884,1.067.2,1.216.319,1.663,1.474.819,2.137,2.581,7.395,2.928,8.451.174.614.323.983.571.983.347,0,.521-.393.695-.712.248-.344,2.407-5.626,3-7,.124-.246.2-.295.347-.025.472,1.155,2.283,5.773,2.854,7.272,0,.025.174.467.472.467.347,0,.645-.59.893-1.155.869-2.211,2.953-7.591,3.574-8.894.248-.467.347-.639,1.415-.884.67-.123.72-.884-.074-.884-.546,0-1.216.049-1.812.049-.968,0-2.01-.074-2.407-.049-.695.025-.72.762-.074.86,1.439.246,1.613.418,1.514.958-.2.909-1.638,4.766-2.333,6.56-.124.319-.2.393-.347.1-.5-1.155-1.861-4.594-2.407-6.167-.372-1.081-.447-1.523-.571-1.941-.05-.221-.347-.221-.6.025a2.09,2.09,0,0,0-.447.663c-.372,1.056-2.209,5.749-2.928,7.444-.074.123-.149.1-.174,0C92.264-21.7,91.073-25.118,90.626-26.862Zm23.949-2.187a6.8,6.8,0,0,0-4.393,1.671,5.83,5.83,0,0,0-2.109,4.791c0,2.948,1.961,5.8,5.261,5.8a6.664,6.664,0,0,0,4.988-2.359,6.411,6.411,0,0,0,1.464-4.4A5.355,5.355,0,0,0,114.575-29.049Zm3.127,6.437c0,2.8-1.34,4.619-3.326,4.619-3.077,0-4.244-2.752-4.244-5.38,0-1.744.6-4.422,3.375-4.422C116.61-27.8,117.7-24.8,117.7-22.612Zm12.434-6.437c-.794,0-1.539.393-3.6,2.408a12.372,12.372,0,0,0-.149-1.941c-.05-.27-.174-.467-.372-.467a.8.8,0,0,0-.422.147,21.439,21.439,0,0,1-2.258,1.13c-.4.172-.4.59,0,.737.943.295,1.191.467,1.216.835a8.047,8.047,0,0,1,.074,1.621v4.029A9.482,9.482,0,0,1,124.552-19c-.05.59-.1.688-1.142.958-.67.172-.6.86.074.86.6,0,1.241-.049,2.308-.049s1.936.049,2.457.049c.695,0,.794-.688.05-.835-1.439-.27-1.663-.369-1.712-1.081-.025-.369-.05-.86-.05-1.474v-4.84a.513.513,0,0,1,.124-.369A2.835,2.835,0,0,1,128.8-26.96a1.719,1.719,0,0,1,1.315.614c.372.418.422.467.645.467.248,0,.472-.27.546-.467a2.46,2.46,0,0,0,.347-1.3A1.433,1.433,0,0,0,130.136-29.049Zm7.247-4.987a10.683,10.683,0,0,1,.149-2.26c.149-.418,0-.688-.3-.688a1.549,1.549,0,0,0-.62.246,10.85,10.85,0,0,1-2.655.786c-.62.123-.6.688-.025.835,1.216.27,1.464.369,1.514,1.056.05.467.05.958.05,2.85v9.36c0,1.941-.05,2.481-.074,2.8-.074.54-.149.786-1.241.983-.769.123-.67.884.074.884.794,0,1.216-.049,2.283-.049.769,0,1.688.049,2.159.049.819,0,.869-.762.1-.884-1.166-.221-1.315-.442-1.365-1.007-.025-.319-.05-.762-.05-2.383V-22.1c.4-.27.794-.516,1.216-.811.174-.147.248-.1.3,0,1.34,1.99,2.531,3.587,3.177,4.447.745.983,1.266,1.278,1.737,1.327a9.7,9.7,0,0,0,2.556-.025c.869-.147.794-.884.05-.909-1.266-.049-1.588-.2-2.655-1.376-.943-1.106-2.457-2.973-3.574-4.594,1.117-.958,2.209-1.892,3.2-2.7a5.169,5.169,0,0,1,1.737-1.032c.447-.172.571-.344.571-.565,0-.2-.149-.344-.645-.344s-1.241.074-1.961.1c-.745.025-1.588.025-2.159.025-.869,0-.893.786-.074.909.943.172,1.216.246,1.216.418,0,.2-.223.393-.745.909a28.155,28.155,0,0,1-3.946,3.243Zm22.733,7.985a3.626,3.626,0,0,1,2.8-1.351c1.638,0,2.829.712,2.829,3.218v3.022c0,1.5-.025,1.99-.05,2.211-.05.54-.248.712-1.092.909-.794.172-.695.86.124.86.968,0,1.34-.049,2.035-.049.62,0,1.39.049,1.911.049.943,0,.869-.737.025-.884-.869-.172-1.018-.393-1.042-.884-.025-.393-.025-.59-.025-.86v-5.307c0-2.064-1.142-3.931-3.524-3.931a4.1,4.1,0,0,0-1.985.54,12.955,12.955,0,0,0-1.936,1.327c-.149.123-.2.074-.2-.025v-6.412a12.8,12.8,0,0,1,.2-2.9.359.359,0,0,0-.323-.467,1.808,1.808,0,0,0-.844.319,6.527,6.527,0,0,1-2.333.737c-.844.1-.67.786-.124.835,1.29.27,1.439.393,1.489.934.05.565.05,1.081.05,2.7v9.7c0,1.253,0,1.72-.05,2.6-.05.811-.248.934-.993,1.081-.918.147-.918.884,0,.884.6,0,1.042-.049,1.985-.049.918,0,1.514.049,2.085.049.745,0,.844-.737,0-.884-.993-.2-1.042-.393-1.092-1.056-.025-.295-.05-1.032-.05-2.309v-3.955C159.991-25.781,159.991-25.9,160.115-26.051Zm14.692,8.82c.893,0,1.489.049,2.109.049.869,0,.869-.786.1-.909-1.142-.221-1.241-.418-1.241-1.572v-5.7a16.946,16.946,0,0,1,.2-3.145c.05-.369-.1-.54-.347-.54a1.318,1.318,0,0,0-.62.246,6.276,6.276,0,0,1-2.11.762c-.6.1-.571.639-.124.811.993.393,1.067.491,1.092.884a6.569,6.569,0,0,1,.05,1.106v5.7c0,1.032-.149,1.228-1.216,1.45-.794.147-.769.909.074.909C173.219-17.182,174.112-17.231,174.807-17.231Zm.05-17.763a1.4,1.4,0,0,0-1.39,1.474,1.3,1.3,0,0,0,1.315,1.376,1.393,1.393,0,0,0,1.39-1.5A1.343,1.343,0,0,0,174.857-34.994Zm9.455,10.638c-.943-.369-1.688-.811-1.688-1.941,0-.835.422-1.671,1.886-1.671a2.25,2.25,0,0,1,2.134,1.056,4.135,4.135,0,0,1,.422,1.253c.124.663.893.54.893-.27a18,18,0,0,1,.248-3.1c.074-.393-.372-.418-.67-.2-.149.1-.273.295-.447.418-.074.049-.1.074-.273.025a5.084,5.084,0,0,0-1.638-.27,4.852,4.852,0,0,0-2.978.934,3.153,3.153,0,0,0-1.365,2.555,3.188,3.188,0,0,0,2.333,2.874c.72.27,1.663.614,2.382.909a1.941,1.941,0,0,1,1.315,1.818q0,1.99-2.159,1.99a2.783,2.783,0,0,1-2.829-1.646c-.1-.27-.3-.811-.347-.958-.223-.737-.993-.59-.918.172.124,1.228.2,2.162.2,3.022,0,.688.62.516.893.2.149-.2.273-.147.422-.074a4.9,4.9,0,0,0,2.01.393,5.292,5.292,0,0,0,2.68-.712,3.726,3.726,0,0,0,1.985-3.268c0-1.5-1.166-2.285-2.308-2.752Zm11.143-2.874h1.29c1.092,0,1.365-.049,1.464-.172a1.694,1.694,0,0,0,.347-.983c0-.172-.05-.246-.2-.221s-.769.049-1.34.049h-1.563c.025-3,.1-3.562.223-3.833.2-.467-.074-.712-.5-.442a5.179,5.179,0,0,0-1.39,1.351,11.589,11.589,0,0,0-.2,2.924,5.039,5.039,0,0,0-1.514.1c-.149.074-.67.614-.67.884,0,.147.05.295.223.319.2.025.521.025,1.638.025h.323v6.781c0,3.046,1.142,3.562,2.333,3.562a3.918,3.918,0,0,0,2.482-.934c.67-.639.372-1.13-.149-.983a3.181,3.181,0,0,1-1.34.246c-1.042,0-1.464-.639-1.464-2.137Zm12.483-1.818a6.8,6.8,0,0,0-4.393,1.671,5.83,5.83,0,0,0-2.109,4.791c0,2.948,1.961,5.8,5.261,5.8a6.664,6.664,0,0,0,4.988-2.359,6.411,6.411,0,0,0,1.464-4.4A5.355,5.355,0,0,0,207.938-29.049Zm3.127,6.437c0,2.8-1.34,4.619-3.326,4.619-3.077,0-4.244-2.752-4.244-5.38,0-1.744.6-4.422,3.375-4.422C209.974-27.8,211.065-24.8,211.065-22.612ZM223.5-29.049c-.794,0-1.539.393-3.6,2.408a12.37,12.37,0,0,0-.149-1.941c-.05-.27-.174-.467-.372-.467a.8.8,0,0,0-.422.147,21.441,21.441,0,0,1-2.258,1.13c-.4.172-.4.59,0,.737.943.295,1.191.467,1.216.835a8.048,8.048,0,0,1,.074,1.621v4.029A9.483,9.483,0,0,1,217.915-19c-.05.59-.1.688-1.142.958-.67.172-.6.86.074.86.6,0,1.241-.049,2.308-.049s1.936.049,2.457.049c.695,0,.794-.688.05-.835-1.439-.27-1.663-.369-1.712-1.081-.025-.369-.05-.86-.05-1.474v-4.84a.514.514,0,0,1,.124-.369,2.835,2.835,0,0,1,2.134-1.179,1.719,1.719,0,0,1,1.315.614c.372.418.422.467.645.467.248,0,.472-.27.546-.467a2.46,2.46,0,0,0,.347-1.3A1.433,1.433,0,0,0,223.5-29.049Zm6.477,2.973c.893,1.916,2.432,5.4,3.623,8.255a.51.51,0,0,1-.025.393c-.422.811-.819,1.621-1.291,2.506-.6.983-.893,1.5-1.514,2.457a4,4,0,0,0-.745,1.6c0,.418.546.884,1.39.884a.6.6,0,0,0,.67-.467c.2-.614.571-1.72,1.762-4.643,2.358-5.577,4.169-9.36,4.988-11.2.422-.909.6-1.155,1.514-1.376.893-.2.794-.958-.05-.934-.645,0-1.415.049-1.961.049-.72,0-1.489-.049-1.961-.049-.819.025-.819.762-.025.909,1.241.246,1.365.418,1.117,1.3-.248.712-1.315,3.439-2.655,6.363-.05.1-.124.074-.2-.049-.645-1.621-1.812-4.422-2.755-6.707-.2-.54-.074-.688.893-.909.695-.147.67-.909-.124-.909-.472,0-1.613.049-2.109.049-.72,0-1.688-.074-2.308-.049-.794.025-.819.762-.025.884C229.282-27.5,229.406-27.181,229.976-26.076Z" transform="translate(-9.984 -1.978) rotate(90)" fill="url(#linear-gradient)"/>
</svg>
