<svg width="100" height="65" viewBox="0 0 100 65" fill="none" xmlns="http://www.w3.org/2000/svg">
<path d="M31.888 47.816C31.888 48.1893 31.7067 48.376 31.344 48.376C30.992 48.376 30.768 48.2373 30.672 47.96L30.528 47.48C30.4213 47.1173 30.224 46.7813 29.936 46.472C29.648 46.1627 29.504 45.9867 29.504 45.944V45.912C29.504 45.7627 29.632 45.688 29.888 45.688C29.9307 45.688 29.984 45.7093 30.048 45.752C31.1787 46.4347 31.7867 47.0427 31.872 47.576C31.8827 47.6613 31.888 47.7413 31.888 47.816ZM33.92 47.32C33.92 47.7467 33.7013 47.96 33.264 47.96C32.9653 47.96 32.768 47.8213 32.672 47.544L32.528 47.064C32.432 46.7333 32.24 46.408 31.952 46.088C31.664 45.7573 31.52 45.5707 31.52 45.528C31.52 45.3787 31.616 45.304 31.808 45.304C31.8507 45.304 31.904 45.3147 31.968 45.336C33.2693 46.0507 33.92 46.712 33.92 47.32ZM26.672 52.056C27.2693 52.344 27.568 52.6 27.568 52.824C27.568 52.8667 27.4933 52.952 27.344 53.08C27.1947 53.208 27.1093 53.368 27.088 53.56L26.976 54.328C26.8053 56.696 25.44 58.36 22.88 59.32C22.3787 59.2773 22.128 59.1707 22.128 59C22.128 58.744 22.2827 58.568 22.592 58.472C24.8107 57.64 25.92 55.9867 25.92 53.512C25.92 53.352 25.92 53.192 25.92 53.032L25.888 52.488C25.888 52.4027 25.8507 52.3013 25.776 52.184H25.744C25.712 52.184 24.3307 52.4933 21.6 53.112C21.3653 53.112 21.136 53.0427 20.912 52.904C20.688 52.7547 20.3787 52.4827 19.984 52.088C19.5893 51.6933 19.392 51.4213 19.392 51.272C19.392 51.1227 19.472 51.048 19.632 51.048C19.7067 51.048 19.7653 51.064 19.808 51.096C20.2453 51.672 20.784 51.96 21.424 51.96C21.4773 51.96 21.536 51.9547 21.6 51.944C25.4827 51.6027 28.5227 51.1013 30.72 50.44C31.136 50.3227 31.3707 50.264 31.424 50.264C31.4773 50.264 31.616 50.3173 31.84 50.424C32.4587 50.7227 32.768 50.9947 32.768 51.24C32.768 51.4747 32.6293 51.6507 32.352 51.768C32.192 51.832 32.0587 51.864 31.952 51.864C31.856 51.864 31.6427 51.832 31.312 51.768C30.9813 51.704 30.6187 51.672 30.224 51.672C29.04 51.8107 27.856 51.9387 26.672 52.056ZM26.144 48.76H26.016C25.9413 48.76 25.568 48.8613 24.896 49.064C24.2347 49.256 23.6853 49.4107 23.248 49.528C23.0133 49.528 22.784 49.4747 22.56 49.368C22.3467 49.2613 22.0853 49.0267 21.776 48.664C21.4667 48.2907 21.312 48.0293 21.312 47.88C21.312 47.7307 21.392 47.656 21.552 47.656C21.6587 47.656 21.712 47.672 21.712 47.704C21.712 47.736 21.7653 47.8 21.872 47.896C22.2347 48.2587 22.6027 48.44 22.976 48.44C23.0507 48.44 23.12 48.4347 23.184 48.424L25.936 48.072L28.112 47.512C28.4533 47.416 28.7093 47.3413 28.88 47.288C29.0507 47.2347 29.1787 47.208 29.264 47.208C29.36 47.208 29.52 47.2613 29.744 47.368C30.3627 47.6667 30.672 47.9387 30.672 48.184C30.672 48.3547 30.56 48.4827 30.336 48.568C30.1227 48.6533 29.9733 48.696 29.888 48.696H29.68C29.04 48.5787 28.5387 48.52 28.176 48.52H28.144L26.144 48.76ZM47.888 48.024C47.888 48.3973 47.7067 48.584 47.344 48.584C46.992 48.584 46.768 48.4453 46.672 48.168L46.528 47.688C46.4213 47.3253 46.224 46.9893 45.936 46.68C45.648 46.3707 45.504 46.1947 45.504 46.152V46.12C45.504 45.9707 45.632 45.896 45.888 45.896C45.9307 45.896 45.984 45.9173 46.048 45.96C47.1787 46.6427 47.7867 47.2507 47.872 47.784C47.8827 47.8693 47.888 47.9493 47.888 48.024ZM49.92 47.528C49.92 47.9547 49.7013 48.168 49.264 48.168C48.9653 48.168 48.768 48.0293 48.672 47.752L48.528 47.272C48.432 46.9413 48.24 46.616 47.952 46.296C47.664 45.9653 47.52 45.7787 47.52 45.736C47.52 45.5867 47.616 45.512 47.808 45.512C47.8507 45.512 47.904 45.5227 47.968 45.544C49.2693 46.2587 49.92 46.92 49.92 47.528ZM37.84 46.744C37.84 46.6267 37.9307 46.568 38.112 46.568C38.2933 46.568 38.512 46.6 38.768 46.664C39.7813 46.9307 40.288 47.1973 40.288 47.464C40.288 47.5707 40.1867 47.6933 39.984 47.832C39.7813 47.9707 39.664 48.1467 39.632 48.36C39.6107 48.5627 39.6 48.968 39.6 49.576C39.6 50.1733 39.6053 50.488 39.616 50.52L43.728 50.104L43.744 47.336C43.744 47.2293 43.7227 47.1387 43.68 47.064C43.6373 46.9893 43.5307 46.9307 43.36 46.888C43.1893 46.8453 43.104 46.792 43.104 46.728C43.104 46.6533 43.1467 46.5947 43.232 46.552C43.328 46.4987 43.4293 46.472 43.536 46.472C43.6533 46.472 43.8187 46.5093 44.032 46.584C45.0133 46.9147 45.5147 47.2027 45.536 47.448C45.536 47.5547 45.44 47.6773 45.248 47.816C45.0667 47.944 44.976 48.136 44.976 48.392C44.976 48.4453 44.9813 48.504 44.992 48.568L44.96 49.976L46.08 49.72C46.3147 49.6667 46.544 49.608 46.768 49.544C46.992 49.4693 47.1467 49.432 47.232 49.432C47.328 49.432 47.488 49.4853 47.712 49.592C48.32 49.8907 48.6293 50.1573 48.64 50.392C48.64 50.5627 48.528 50.696 48.304 50.792C48.0907 50.8773 47.9307 50.92 47.824 50.92C47.728 50.92 47.616 50.8987 47.488 50.856C47.36 50.8133 47.024 50.792 46.48 50.792C45.936 50.792 45.4187 50.8027 44.928 50.824L44.864 52.776C44.7787 55.4107 44 57.24 42.528 58.264C41.472 58.9893 40.4587 59.3573 39.488 59.368H39.456C39.1893 59.368 39.056 59.2773 39.056 59.096C39.056 58.8187 39.216 58.6533 39.536 58.6C42.1813 58.1947 43.552 56.2533 43.648 52.776C43.6693 52.136 43.6853 51.5067 43.696 50.888C42 51.016 40.6507 51.176 39.648 51.368V51.896L39.776 52.968C39.8293 53.3307 39.872 53.5973 39.904 53.768C39.9467 53.928 39.968 54.0933 39.968 54.264C39.968 54.424 39.92 54.6533 39.824 54.952C39.7387 55.2507 39.648 55.4373 39.552 55.512C39.456 55.5867 39.3653 55.624 39.28 55.624C39.2053 55.624 39.12 55.5867 39.024 55.512C38.7253 55.2773 38.576 54.968 38.576 54.584C38.576 54.5413 38.6187 54.136 38.704 53.368C38.7147 52.5787 38.7253 51.96 38.736 51.512C38.0427 51.6507 37.3547 51.7893 36.672 51.928C36.4373 51.928 36.208 51.8747 35.984 51.768C35.76 51.6613 35.5147 51.384 35.248 50.936C34.9813 50.488 34.848 50.1893 34.848 50.04C34.848 49.8907 34.928 49.816 35.088 49.816C35.184 49.816 35.2373 49.832 35.248 49.864C35.2693 49.896 35.392 50.0293 35.616 50.264C35.84 50.4987 36.0533 50.6373 36.256 50.68C36.4587 50.7227 36.704 50.744 36.992 50.744C37.2907 50.744 37.8613 50.7013 38.704 50.616L38.64 49.432C38.5867 48.4827 38.5387 47.8587 38.496 47.56C38.4533 47.2507 38.3413 47.064 38.16 47L37.888 46.904L37.84 46.744ZM52.624 54.648C52.4213 54.648 52.32 54.5467 52.32 54.344C52.32 54.2053 52.4693 54.0827 52.768 53.976C54.0907 53.5173 55.584 52.6853 57.248 51.48C58.912 50.264 60.24 48.8933 61.232 47.368C61.3173 47.2507 61.3547 47.128 61.344 47C61.344 46.872 61.312 46.7867 61.248 46.744C61.184 46.6907 61.0827 46.6427 60.944 46.6C60.816 46.5467 60.752 46.4773 60.752 46.392L61.072 46.2C61.5093 46.2 61.8507 46.28 62.096 46.44C62.896 46.9733 63.296 47.4 63.296 47.72C63.296 47.816 63.264 47.896 63.2 47.96C63.1467 48.0133 63.0827 48.04 63.008 48.04H62.928C62.8427 48.04 62.784 48.056 62.752 48.088C62.72 48.12 62.672 48.1787 62.608 48.264C61.7227 49.1493 60.6293 50.1147 59.328 51.16C59.8827 51.3733 60.16 51.5707 60.16 51.752C60.16 51.8587 60.0533 51.9867 59.84 52.136C59.6373 52.2747 59.536 52.4027 59.536 52.52C59.5253 53.6293 59.52 54.7067 59.52 55.752C59.52 56.7973 59.5307 57.368 59.552 57.464L59.728 58.168C59.76 58.296 59.776 58.424 59.776 58.552C59.776 58.68 59.7493 58.808 59.696 58.936C59.536 59.3093 59.3493 59.496 59.136 59.496C58.976 59.496 58.8267 59.4267 58.688 59.288C58.3787 58.936 58.2187 58.4613 58.208 57.864C58.208 57.6507 58.24 57.4107 58.304 57.144C58.3787 56.8773 58.416 56.2053 58.416 55.128C58.416 54.0507 58.3733 52.9893 58.288 51.944C56.6027 53.1493 54.832 54.0187 52.976 54.552C52.7627 54.616 52.6453 54.648 52.624 54.648ZM72.512 49.832C72.512 50.4613 72.32 50.776 71.936 50.776C71.6267 50.776 71.3867 50.616 71.216 50.296C70.6507 49.1973 69.7173 48.3653 68.416 47.8C68.2453 47.768 68.1547 47.6827 68.144 47.544C68.144 47.3733 68.2453 47.288 68.448 47.288L68.736 47.32C69.216 47.4267 69.8453 47.672 70.624 48.056C71.4027 48.4293 71.968 48.8027 72.32 49.176C72.448 49.3253 72.512 49.544 72.512 49.832ZM79.856 49.416C79.9413 49.416 79.984 49.5067 79.984 49.688C79.984 49.8693 79.968 50.008 79.936 50.104C78.688 52.7173 76.768 54.984 74.176 56.904C73.856 57.1493 73.0453 57.6453 71.744 58.392L71.264 58.664C70.9333 58.856 70.704 58.952 70.576 58.952C70.448 58.952 70.3413 58.9253 70.256 58.872C69.8293 58.68 69.4667 58.4027 69.168 58.04C68.8693 57.6773 68.6667 57.3413 68.56 57.032C68.4533 56.7227 68.4 56.5307 68.4 56.456L68.416 56.296C68.4907 56.1467 68.576 56.072 68.672 56.072C68.768 56.072 68.8373 56.104 68.88 56.168C68.9333 56.232 68.9973 56.3493 69.072 56.52C69.3173 57 69.7013 57.24 70.224 57.24C70.2347 57.24 70.2453 57.24 70.256 57.24C70.576 57.24 70.8427 57.1813 71.056 57.064L72.992 56.2C73.7173 55.6987 74.5227 55.112 75.408 54.44C77.0827 53.1387 78.4 51.64 79.36 49.944C79.5627 49.592 79.728 49.416 79.856 49.416Z" fill="black"/>
<path d="M0.683594 8.49219L0.683594 9.41504H3.41797L3.41797 28.0771H0.683594L0.683594 29H10.8691C14.0365 29 16.6455 28.043 18.6963 26.1289C20.7015 24.2376 21.7041 21.7995 21.7041 18.8145C21.7041 15.0091 20.2686 12.1722 17.3975 10.3037C15.5062 9.09603 13.2959 8.49219 10.7666 8.49219L0.683594 8.49219ZM10.8691 9.41504C13.2617 9.41504 14.8568 10.5885 15.6543 12.9355C16.11 14.3711 16.3379 16.2738 16.3379 18.6436C16.3379 23.3831 15.3923 26.3112 13.501 27.4277C12.7718 27.8607 11.8717 28.0771 10.8008 28.0771H8.20313L8.20313 9.41504H10.8691ZM31.582 14.6787C33.0404 14.7243 33.7809 15.9661 33.8037 18.4043C33.8037 19.4753 33.4847 20.1361 32.8467 20.3867C32.391 20.5462 31.7074 20.6032 30.7959 20.5576L28.6084 20.4551C28.7679 16.6725 29.7591 14.7471 31.582 14.6787ZM37.9736 25.4795L37.1533 25.2061C36.5153 26.596 35.5127 27.5417 34.1455 28.043C33.5986 28.248 33.0404 28.3506 32.4707 28.3506C30.6478 28.3506 29.4743 27.1885 28.9502 24.8643C28.7451 23.9072 28.6312 22.7679 28.6084 21.4463L31.7529 21.5488C35.4215 21.6628 37.5521 21.0817 38.1445 19.8057C38.2812 19.4867 38.3496 19.1335 38.3496 18.7461C38.3496 16.8092 37.3584 15.3965 35.376 14.5078C34.2594 14.0293 32.9948 13.79 31.582 13.79C29.0072 13.79 27.002 14.6673 25.5664 16.4219C24.4727 17.7891 23.9258 19.4867 23.9258 21.5146C23.9258 24.8187 25.1676 27.1201 27.6514 28.4189C28.8363 29.0342 30.1807 29.3418 31.6846 29.3418C34.3506 29.3418 36.2646 28.4076 37.4268 26.5391C37.6546 26.1973 37.8369 25.8441 37.9736 25.4795ZM45.8691 28.3848C47.3958 28.3848 48.2731 27.8379 48.501 26.7441C48.5238 26.5846 48.5352 26.4365 48.5352 26.2998C48.5352 25.1377 47.806 24.1693 46.3477 23.3945C46.0286 23.2122 45.516 22.973 44.8096 22.6768C43.1006 21.9248 41.9727 21.2298 41.4258 20.5918C40.8333 19.9082 40.5371 19.0993 40.5371 18.165C40.5371 16.2282 41.5967 14.918 43.7158 14.2344C44.6045 13.9382 45.5957 13.79 46.6895 13.79C48.4668 13.79 49.8568 14.109 50.8594 14.7471C50.8594 14.0635 51.0645 13.6875 51.4746 13.6191C51.5658 13.5964 51.6569 13.585 51.748 13.585V17.8574H50.6543C50.5632 15.7839 49.4352 14.7357 47.2705 14.7129C45.8122 14.7129 44.9121 15.1914 44.5703 16.1484C44.502 16.3763 44.4678 16.6042 44.4678 16.832C44.4678 17.8118 45.1514 18.6436 46.5186 19.3271C46.792 19.4867 47.2477 19.7031 47.8857 19.9766C49.6631 20.7741 50.848 21.5033 51.4404 22.1641C52.124 22.9388 52.4658 23.8617 52.4658 24.9326C52.4658 26.915 51.4404 28.248 49.3896 28.9316C48.5465 29.2051 47.6009 29.3418 46.5527 29.3418C44.5475 29.3418 42.8613 28.9886 41.4941 28.2822C41.4941 28.8747 41.346 29.2165 41.0498 29.3076C40.9131 29.3304 40.7536 29.3418 40.5713 29.3418V24.1465H41.7334C41.779 26.9492 43.1576 28.362 45.8691 28.3848ZM61.9336 28.1113H60.6689L60.6689 14.3027H54.3457V15.1914H56.3281L56.3281 26.334C56.3281 27.3366 55.9294 27.9062 55.1318 28.043C54.904 28.0885 54.6419 28.1113 54.3457 28.1113V29L62.7539 29C62.7539 28.4759 62.6058 28.1911 62.3096 28.1455C62.1956 28.1227 62.0703 28.1113 61.9336 28.1113ZM60.9766 9.8252C60.9766 8.82259 60.5322 8.08203 59.6436 7.60352C59.2562 7.37565 58.846 7.26172 58.4131 7.26172C57.4333 7.26172 56.6927 7.70605 56.1914 8.59473C55.9863 8.9821 55.8838 9.39225 55.8838 9.8252C55.8838 10.8278 56.3281 11.557 57.2168 12.0127C57.6042 12.2178 58.0029 12.3203 58.4131 12.3203C59.4157 12.3203 60.1562 11.8988 60.6348 11.0557C60.8626 10.6683 60.9766 10.2581 60.9766 9.8252ZM69.248 19.5664C69.248 17.3105 69.4987 15.8864 70 15.2939C70.3646 14.8838 70.9001 14.6787 71.6064 14.6787C72.7458 14.6787 73.4635 15.2028 73.7598 16.251C73.9193 16.889 73.999 17.96 73.999 19.4639C73.999 21.7653 73.7256 23.2236 73.1787 23.8389C72.7913 24.2262 72.2559 24.4199 71.5723 24.4199C70.4557 24.4199 69.7607 23.8958 69.4873 22.8477C69.3278 22.2324 69.248 21.1387 69.248 19.5664ZM71.7432 13.79C69.0999 13.79 67.1631 14.6331 65.9326 16.3193C65.249 17.2536 64.9072 18.3018 64.9072 19.4639C64.9072 21.1045 65.7048 22.54 67.2998 23.7705C67.596 23.9984 67.9036 24.2035 68.2227 24.3857H68.1885C66.8441 24.363 65.9098 24.9554 65.3857 26.1631C65.2035 26.6188 65.1123 27.0745 65.1123 27.5303C65.1351 28.624 65.5566 29.5127 66.377 30.1963C65.7845 30.9027 65.4883 31.5977 65.4883 32.2812C65.4883 33.5117 66.2972 34.4346 67.915 35.0498C69.0088 35.46 70.3304 35.665 71.8799 35.665C75.6169 35.665 78.0322 34.7878 79.126 33.0332C79.4678 32.4863 79.6387 31.9167 79.6387 31.3242C79.6387 29.0228 78.3854 27.7126 75.8789 27.3936C75.5827 27.348 75.2751 27.3252 74.9561 27.3252L67.8809 27.1885C67.2884 27.1657 66.9352 26.9036 66.8213 26.4023C66.7985 26.334 66.7871 26.2656 66.7871 26.1973C66.7871 25.6732 67.0719 25.377 67.6416 25.3086C67.7327 25.2858 67.8239 25.2744 67.915 25.2744L71.5723 25.3086C74.0788 25.3086 75.9701 24.4541 77.2461 22.7451C77.9753 21.7425 78.3398 20.626 78.3398 19.3955C78.3171 17.7321 77.6904 16.3649 76.46 15.2939C76.8701 14.6559 77.3486 14.3255 77.8955 14.3027C78.1917 14.3027 78.5563 14.4964 78.9893 14.8838C79.3311 15.1572 79.6501 15.2939 79.9463 15.2939C80.6299 15.2939 81.0514 14.9749 81.2109 14.3369C81.2337 14.223 81.2451 14.109 81.2451 13.9951C81.2451 13.1748 80.8464 12.5937 80.0488 12.252C79.6842 12.0924 79.2855 12.0127 78.8525 12.0127C77.6676 12.0127 76.7448 12.6963 76.084 14.0635C75.9701 14.3141 75.8675 14.5648 75.7764 14.8154C74.6826 14.1318 73.3382 13.79 71.7432 13.79ZM71.8799 34.7422C69.0999 34.7422 67.4251 34.127 66.8555 32.8965C66.7415 32.6458 66.6846 32.3952 66.6846 32.1445C66.6846 31.666 66.8555 31.1875 67.1973 30.709C67.653 30.8913 68.1315 30.9824 68.6328 30.9824L75.5371 31.0508C76.8587 31.0508 77.6335 31.2559 77.8613 31.666C77.9525 31.8255 77.998 32.0192 77.998 32.2471C77.998 33.318 76.9385 34.0586 74.8193 34.4687C73.9307 34.651 72.9508 34.7422 71.8799 34.7422ZM88.5938 28.1113H87.7393L87.7734 19.3613C87.9329 17.5612 88.5938 16.3763 89.7559 15.8066C90.0749 15.6471 90.4053 15.5674 90.7471 15.5674C92.0459 15.5674 92.8092 16.3307 93.0371 17.8574C93.0827 18.1536 93.1055 18.4613 93.1055 18.7803V26.334C93.1055 27.291 92.8548 27.8493 92.3535 28.0088C92.1257 28.0771 91.8522 28.1113 91.5332 28.1113V29L99.4287 29C99.4287 28.4759 99.2806 28.1911 98.9844 28.1455C98.8477 28.1227 98.7109 28.1113 98.5742 28.1113H97.4463V19.3613C97.4463 16.5358 96.4437 14.7699 94.4385 14.0635C93.8916 13.8812 93.3219 13.79 92.7295 13.79C91.0661 13.79 89.6533 14.4508 88.4912 15.7725C88.1494 16.1598 87.876 16.5586 87.6709 16.9687L87.5 14.3027L81.416 14.3027V15.1914L83.3984 15.1914V26.334C83.3984 27.3822 82.9085 27.9632 81.9287 28.0771C81.7692 28.0999 81.5983 28.1113 81.416 28.1113V29H89.4141C89.4141 28.4759 89.266 28.1911 88.9697 28.1455C88.8558 28.1227 88.7305 28.1113 88.5938 28.1113Z" fill="black"/>
</svg>
