<svg width="129" height="80" viewBox="0 0 129 80" fill="none" xmlns="http://www.w3.org/2000/svg">
<path d="M33.568 52.826C33.568 53.4327 33.2733 53.736 32.684 53.736C32.112 53.736 31.748 53.5107 31.592 53.06L31.358 52.28C31.1847 51.6907 30.864 51.1447 30.396 50.642C29.928 50.1393 29.694 49.8533 29.694 49.784V49.732C29.694 49.4893 29.902 49.368 30.318 49.368C30.3873 49.368 30.474 49.4027 30.578 49.472C32.4153 50.5813 33.4033 51.5693 33.542 52.436C33.5593 52.5747 33.568 52.7047 33.568 52.826ZM36.87 52.02C36.87 52.7133 36.5147 53.06 35.804 53.06C35.3187 53.06 34.998 52.8347 34.842 52.384L34.608 51.604C34.452 51.0667 34.14 50.538 33.672 50.018C33.204 49.4807 32.97 49.1773 32.97 49.108C32.97 48.8653 33.126 48.744 33.438 48.744C33.5073 48.744 33.594 48.7613 33.698 48.796C35.8127 49.9573 36.87 51.032 36.87 52.02ZM25.092 59.716C26.0627 60.184 26.548 60.6 26.548 60.964C26.548 61.0333 26.4267 61.172 26.184 61.38C25.9413 61.588 25.8027 61.848 25.768 62.16L25.586 63.408C25.3087 67.256 23.09 69.96 18.93 71.52C18.1153 71.4507 17.708 71.2773 17.708 71C17.708 70.584 17.9593 70.298 18.462 70.142C22.0673 68.79 23.87 66.1033 23.87 62.082C23.87 61.822 23.87 61.562 23.87 61.302L23.818 60.418C23.818 60.2793 23.7573 60.1147 23.636 59.924H23.584C23.532 59.924 21.2873 60.4267 16.85 61.432C16.4687 61.432 16.096 61.3193 15.732 61.094C15.368 60.8513 14.8653 60.4093 14.224 59.768C13.5827 59.1267 13.262 58.6847 13.262 58.442C13.262 58.1993 13.392 58.078 13.652 58.078C13.7733 58.078 13.8687 58.104 13.938 58.156C14.6487 59.092 15.524 59.56 16.564 59.56C16.6507 59.56 16.746 59.5513 16.85 59.534C23.1593 58.9793 28.0993 58.1647 31.67 57.09C32.346 56.8993 32.7273 56.804 32.814 56.804C32.9007 56.804 33.126 56.8907 33.49 57.064C34.4953 57.5493 34.998 57.9913 34.998 58.39C34.998 58.7713 34.7727 59.0573 34.322 59.248C34.062 59.352 33.8453 59.404 33.672 59.404C33.516 59.404 33.1693 59.352 32.632 59.248C32.0947 59.144 31.5053 59.092 30.864 59.092C28.94 59.3173 27.016 59.5253 25.092 59.716ZM24.234 54.36H24.026C23.9047 54.36 23.298 54.5247 22.206 54.854C21.1313 55.166 20.2387 55.4173 19.528 55.608C19.1467 55.608 18.774 55.5213 18.41 55.348C18.0633 55.1747 17.6387 54.7933 17.136 54.204C16.6333 53.5973 16.382 53.1727 16.382 52.93C16.382 52.6873 16.512 52.566 16.772 52.566C16.9453 52.566 17.032 52.592 17.032 52.644C17.032 52.696 17.1187 52.8 17.292 52.956C17.8813 53.5453 18.4793 53.84 19.086 53.84C19.2073 53.84 19.32 53.8313 19.424 53.814L23.896 53.242L27.432 52.332C27.9867 52.176 28.4027 52.0547 28.68 51.968C28.9573 51.8813 29.1653 51.838 29.304 51.838C29.46 51.838 29.72 51.9247 30.084 52.098C31.0893 52.5833 31.592 53.0253 31.592 53.424C31.592 53.7013 31.41 53.9093 31.046 54.048C30.6993 54.1867 30.4567 54.256 30.318 54.256H29.98C28.94 54.0653 28.1253 53.97 27.536 53.97H27.484L24.234 54.36ZM59.568 53.164C59.568 53.7707 59.2733 54.074 58.684 54.074C58.112 54.074 57.748 53.8487 57.592 53.398L57.358 52.618C57.1847 52.0287 56.864 51.4827 56.396 50.98C55.928 50.4773 55.694 50.1913 55.694 50.122V50.07C55.694 49.8273 55.902 49.706 56.318 49.706C56.3873 49.706 56.474 49.7407 56.578 49.81C58.4153 50.9193 59.4033 51.9073 59.542 52.774C59.5593 52.9127 59.568 53.0427 59.568 53.164ZM62.87 52.358C62.87 53.0513 62.5147 53.398 61.804 53.398C61.3187 53.398 60.998 53.1727 60.842 52.722L60.608 51.942C60.452 51.4047 60.14 50.876 59.672 50.356C59.204 49.8187 58.97 49.5153 58.97 49.446C58.97 49.2033 59.126 49.082 59.438 49.082C59.5073 49.082 59.594 49.0993 59.698 49.134C61.8127 50.2953 62.87 51.37 62.87 52.358ZM43.24 51.084C43.24 50.8933 43.3873 50.798 43.682 50.798C43.9767 50.798 44.332 50.85 44.748 50.954C46.3947 51.3873 47.218 51.8207 47.218 52.254C47.218 52.4273 47.0533 52.6267 46.724 52.852C46.3947 53.0773 46.204 53.3633 46.152 53.71C46.1173 54.0393 46.1 54.698 46.1 55.686C46.1 56.6567 46.1087 57.168 46.126 57.22L52.808 56.544L52.834 52.046C52.834 51.8727 52.7993 51.7253 52.73 51.604C52.6607 51.4827 52.4873 51.3873 52.21 51.318C51.9327 51.2487 51.794 51.162 51.794 51.058C51.794 50.9367 51.8633 50.8413 52.002 50.772C52.158 50.6853 52.3227 50.642 52.496 50.642C52.6867 50.642 52.9553 50.7027 53.302 50.824C54.8967 51.3613 55.7113 51.8293 55.746 52.228C55.746 52.4013 55.59 52.6007 55.278 52.826C54.9833 53.034 54.836 53.346 54.836 53.762C54.836 53.8487 54.8447 53.944 54.862 54.048L54.81 56.336L56.63 55.92C57.0113 55.8333 57.384 55.738 57.748 55.634C58.112 55.5127 58.3633 55.452 58.502 55.452C58.658 55.452 58.918 55.5387 59.282 55.712C60.27 56.1973 60.7727 56.6307 60.79 57.012C60.79 57.2893 60.608 57.506 60.244 57.662C59.8973 57.8007 59.6373 57.87 59.464 57.87C59.308 57.87 59.126 57.8353 58.918 57.766C58.71 57.6967 58.164 57.662 57.28 57.662C56.396 57.662 55.5553 57.6793 54.758 57.714L54.654 60.886C54.5153 65.1673 53.25 68.14 50.858 69.804C49.142 70.9827 47.4953 71.5807 45.918 71.598H45.866C45.4327 71.598 45.216 71.4507 45.216 71.156C45.216 70.7053 45.476 70.4367 45.996 70.35C50.2947 69.6913 52.522 66.5367 52.678 60.886C52.7127 59.846 52.7387 58.8233 52.756 57.818C50 58.026 47.8073 58.286 46.178 58.598V59.456L46.386 61.198C46.4727 61.7873 46.542 62.2207 46.594 62.498C46.6633 62.758 46.698 63.0267 46.698 63.304C46.698 63.564 46.62 63.9367 46.464 64.422C46.3253 64.9073 46.178 65.2107 46.022 65.332C45.866 65.4533 45.7187 65.514 45.58 65.514C45.4587 65.514 45.32 65.4533 45.164 65.332C44.6787 64.9507 44.436 64.448 44.436 63.824C44.436 63.7547 44.5053 63.096 44.644 61.848C44.6613 60.5653 44.6787 59.56 44.696 58.832C43.5693 59.0573 42.4513 59.2827 41.342 59.508C40.9607 59.508 40.588 59.4213 40.224 59.248C39.86 59.0747 39.4613 58.624 39.028 57.896C38.5947 57.168 38.378 56.6827 38.378 56.44C38.378 56.1973 38.508 56.076 38.768 56.076C38.924 56.076 39.0107 56.102 39.028 56.154C39.0627 56.206 39.262 56.4227 39.626 56.804C39.99 57.1853 40.3367 57.4107 40.666 57.48C40.9953 57.5493 41.394 57.584 41.862 57.584C42.3473 57.584 43.2747 57.5147 44.644 57.376L44.54 55.452C44.4533 53.9093 44.3753 52.8953 44.306 52.41C44.2367 51.9073 44.0547 51.604 43.76 51.5L43.318 51.344L43.24 51.084ZM67.264 63.928C66.9347 63.928 66.77 63.7633 66.77 63.434C66.77 63.2087 67.0127 63.0093 67.498 62.836C69.6473 62.0907 72.074 60.7387 74.778 58.78C77.482 56.804 79.64 54.5767 81.252 52.098C81.3907 51.9073 81.4513 51.708 81.434 51.5C81.434 51.292 81.382 51.1533 81.278 51.084C81.174 50.9973 81.0093 50.9193 80.784 50.85C80.576 50.7633 80.472 50.6507 80.472 50.512L80.992 50.2C81.7027 50.2 82.2573 50.33 82.656 50.59C83.956 51.4567 84.606 52.15 84.606 52.67C84.606 52.826 84.554 52.956 84.45 53.06C84.3633 53.1467 84.2593 53.19 84.138 53.19H84.008C83.8693 53.19 83.774 53.216 83.722 53.268C83.67 53.32 83.592 53.4153 83.488 53.554C82.0493 54.9927 80.2727 56.5613 78.158 58.26C79.0593 58.6067 79.51 58.9273 79.51 59.222C79.51 59.3953 79.3367 59.6033 78.99 59.846C78.6607 60.0713 78.496 60.2793 78.496 60.47C78.4787 62.2727 78.47 64.0233 78.47 65.722C78.47 67.4207 78.4873 68.348 78.522 68.504L78.808 69.648C78.86 69.856 78.886 70.064 78.886 70.272C78.886 70.48 78.8427 70.688 78.756 70.896C78.496 71.5027 78.1927 71.806 77.846 71.806C77.586 71.806 77.3433 71.6933 77.118 71.468C76.6153 70.896 76.3553 70.1247 76.338 69.154C76.338 68.8073 76.39 68.4173 76.494 67.984C76.6153 67.5507 76.676 66.4587 76.676 64.708C76.676 62.9573 76.6067 61.2327 76.468 59.534C73.7293 61.4927 70.852 62.9053 67.836 63.772C67.4893 63.876 67.2987 63.928 67.264 63.928ZM99.582 56.102C99.582 57.1247 99.27 57.636 98.646 57.636C98.1433 57.636 97.7533 57.376 97.476 56.856C96.5573 55.0707 95.0407 53.7187 92.926 52.8C92.6487 52.748 92.5013 52.6093 92.484 52.384C92.484 52.1067 92.6487 51.968 92.978 51.968L93.446 52.02C94.226 52.1933 95.2487 52.592 96.514 53.216C97.7793 53.8227 98.698 54.4293 99.27 55.036C99.478 55.2787 99.582 55.634 99.582 56.102ZM111.516 55.426C111.655 55.426 111.724 55.5733 111.724 55.868C111.724 56.1627 111.698 56.388 111.646 56.544C109.618 60.7907 106.498 64.474 102.286 67.594C101.766 67.9927 100.449 68.7987 98.334 70.012L97.554 70.454C97.0167 70.766 96.644 70.922 96.436 70.922C96.228 70.922 96.0547 70.8787 95.916 70.792C95.2227 70.48 94.6333 70.0293 94.148 69.44C93.6627 68.8507 93.3333 68.3047 93.16 67.802C92.9867 67.2993 92.9 66.9873 92.9 66.866L92.926 66.606C93.0473 66.3633 93.186 66.242 93.342 66.242C93.498 66.242 93.6107 66.294 93.68 66.398C93.7667 66.502 93.8707 66.6927 93.992 66.97C94.3907 67.75 95.0147 68.14 95.864 68.14C95.8813 68.14 95.8987 68.14 95.916 68.14C96.436 68.14 96.8693 68.0447 97.216 67.854L100.362 66.45C101.541 65.6353 102.849 64.682 104.288 63.59C107.009 61.4753 109.15 59.04 110.71 56.284C111.039 55.712 111.308 55.426 111.516 55.426Z" fill="black"/>
<path d="M0.878906 11.6328L0.878906 12.8193H4.39453L4.39453 36.8135H0.878906L0.878906 38H13.9746C18.0469 38 21.4014 36.7695 24.0381 34.3086C26.6162 31.877 27.9053 28.7422 27.9053 24.9043C27.9053 20.0117 26.0596 16.3643 22.3682 13.9619C19.9365 12.4092 17.0947 11.6328 13.8428 11.6328L0.878906 11.6328ZM13.9746 12.8193C17.0508 12.8193 19.1016 14.3281 20.127 17.3457C20.7129 19.1914 21.0059 21.6377 21.0059 24.6846C21.0059 30.7783 19.79 34.543 17.3584 35.9785C16.4209 36.5352 15.2637 36.8135 13.8867 36.8135H10.5469L10.5469 12.8193H13.9746ZM40.6055 19.5869C42.4805 19.6455 43.4326 21.2422 43.4619 24.377C43.4619 25.7539 43.0518 26.6035 42.2314 26.9258C41.6455 27.1309 40.7666 27.2041 39.5947 27.1455L36.7822 27.0137C36.9873 22.1504 38.2617 19.6748 40.6055 19.5869ZM48.8232 33.4736L47.7686 33.1221C46.9482 34.9092 45.6592 36.125 43.9014 36.7695C43.1982 37.0332 42.4805 37.165 41.748 37.165C39.4043 37.165 37.8955 35.6709 37.2217 32.6826C36.958 31.4521 36.8115 29.9873 36.7822 28.2881L40.8252 28.4199C45.542 28.5664 48.2813 27.8193 49.043 26.1787C49.2188 25.7686 49.3066 25.3145 49.3066 24.8164C49.3066 22.3262 48.0322 20.5098 45.4834 19.3672C44.0479 18.752 42.4219 18.4443 40.6055 18.4443C37.2949 18.4443 34.7168 19.5723 32.8711 21.8281C31.4648 23.5859 30.7617 25.7686 30.7617 28.376C30.7617 32.624 32.3584 35.583 35.5518 37.2529C37.0752 38.0439 38.8037 38.4395 40.7373 38.4395C44.165 38.4395 46.626 37.2383 48.1201 34.8359C48.4131 34.3965 48.6475 33.9424 48.8232 33.4736ZM58.9746 37.209C60.9375 37.209 62.0654 36.5059 62.3584 35.0996C62.3877 34.8945 62.4023 34.7041 62.4023 34.5283C62.4023 33.0342 61.4648 31.7891 59.5898 30.793C59.1797 30.5586 58.5205 30.251 57.6123 29.8701C55.415 28.9033 53.9648 28.0098 53.2617 27.1895C52.5 26.3105 52.1191 25.2705 52.1191 24.0693C52.1191 21.5791 53.4814 19.8945 56.2061 19.0156C57.3486 18.6348 58.623 18.4443 60.0293 18.4443C62.3145 18.4443 64.1016 18.8545 65.3906 19.6748C65.3906 18.7959 65.6543 18.3125 66.1816 18.2246C66.2988 18.1953 66.416 18.1807 66.5332 18.1807V23.6738H65.127C65.0098 21.0078 63.5596 19.6602 60.7764 19.6309C58.9014 19.6309 57.7441 20.2461 57.3047 21.4766C57.2168 21.7695 57.1729 22.0625 57.1729 22.3555C57.1729 23.6152 58.0518 24.6846 59.8096 25.5635C60.1611 25.7686 60.7471 26.0469 61.5674 26.3984C63.8525 27.4238 65.376 28.3613 66.1377 29.2109C67.0166 30.207 67.4561 31.3936 67.4561 32.7705C67.4561 35.3193 66.1377 37.0332 63.501 37.9121C62.417 38.2637 61.2012 38.4395 59.8535 38.4395C57.2754 38.4395 55.1074 37.9854 53.3496 37.0771C53.3496 37.8389 53.1592 38.2783 52.7783 38.3955C52.6025 38.4248 52.3975 38.4395 52.1631 38.4395V31.7598H53.6572C53.7158 35.3633 55.4883 37.1797 58.9746 37.209ZM79.6289 36.8574H78.0029V19.1035L69.873 19.1035V20.2461H72.4219V34.5723C72.4219 35.8613 71.9092 36.5937 70.8838 36.7695C70.5908 36.8281 70.2539 36.8574 69.873 36.8574V38H80.6836C80.6836 37.3262 80.4932 36.96 80.1123 36.9014C79.9658 36.8721 79.8047 36.8574 79.6289 36.8574ZM78.3984 13.3467C78.3984 12.0576 77.8271 11.1055 76.6846 10.4902C76.1865 10.1973 75.6592 10.0508 75.1025 10.0508C73.8428 10.0508 72.8906 10.6221 72.2461 11.7646C71.9824 12.2627 71.8506 12.79 71.8506 13.3467C71.8506 14.6357 72.4219 15.5732 73.5645 16.1592C74.0625 16.4229 74.5752 16.5547 75.1025 16.5547C76.3916 16.5547 77.3438 16.0127 77.959 14.9287C78.252 14.4307 78.3984 13.9033 78.3984 13.3467ZM89.0332 25.8711C89.0332 22.9707 89.3555 21.1396 90 20.3779C90.4688 19.8506 91.1572 19.5869 92.0654 19.5869C93.5303 19.5869 94.4531 20.2607 94.834 21.6084C95.0391 22.4287 95.1416 23.8057 95.1416 25.7393C95.1416 28.6982 94.79 30.5732 94.0869 31.3643C93.5889 31.8623 92.9004 32.1113 92.0215 32.1113C90.5859 32.1113 89.6924 31.4375 89.3408 30.0898C89.1357 29.2988 89.0332 27.8926 89.0332 25.8711ZM92.2412 18.4443C88.8428 18.4443 86.3525 19.5283 84.7705 21.6963C83.8916 22.8975 83.4521 24.2451 83.4521 25.7393C83.4521 27.8486 84.4775 29.6943 86.5283 31.2764C86.9092 31.5693 87.3047 31.833 87.7148 32.0674H87.6709C85.9424 32.0381 84.7412 32.7998 84.0674 34.3525C83.833 34.9385 83.7158 35.5244 83.7158 36.1104C83.7451 37.5166 84.2871 38.6592 85.3418 39.5381C84.5801 40.4463 84.1992 41.3398 84.1992 42.2187C84.1992 43.8008 85.2393 44.9873 87.3193 45.7783C88.7256 46.3057 90.4248 46.5693 92.417 46.5693C97.2217 46.5693 100.327 45.4414 101.733 43.1855C102.173 42.4824 102.393 41.75 102.393 40.9883C102.393 38.0293 100.781 36.3447 97.5586 35.9346C97.1777 35.876 96.7822 35.8467 96.3721 35.8467L87.2754 35.6709C86.5137 35.6416 86.0596 35.3047 85.9131 34.6602C85.8838 34.5723 85.8691 34.4844 85.8691 34.3965C85.8691 33.7227 86.2354 33.3418 86.9678 33.2539C87.085 33.2246 87.2021 33.21 87.3193 33.21L92.0215 33.2539C95.2441 33.2539 97.6758 32.1553 99.3164 29.958C100.254 28.6689 100.723 27.2334 100.723 25.6514C100.693 23.5127 99.8877 21.7549 98.3057 20.3779C98.833 19.5576 99.4482 19.1328 100.151 19.1035C100.532 19.1035 101.001 19.3525 101.558 19.8506C101.997 20.2021 102.407 20.3779 102.788 20.3779C103.667 20.3779 104.209 19.9678 104.414 19.1475C104.443 19.001 104.458 18.8545 104.458 18.708C104.458 17.6533 103.945 16.9062 102.92 16.4668C102.451 16.2617 101.938 16.1592 101.382 16.1592C99.8584 16.1592 98.6719 17.0381 97.8223 18.7959C97.6758 19.1182 97.5439 19.4404 97.4268 19.7627C96.0205 18.8838 94.292 18.4443 92.2412 18.4443ZM92.417 45.3828C88.8428 45.3828 86.6895 44.5918 85.957 43.0098C85.8105 42.6875 85.7373 42.3652 85.7373 42.043C85.7373 41.4277 85.957 40.8125 86.3965 40.1973C86.9824 40.4316 87.5977 40.5488 88.2422 40.5488L97.1191 40.6367C98.8184 40.6367 99.8145 40.9004 100.107 41.4277C100.225 41.6328 100.283 41.8818 100.283 42.1748C100.283 43.5518 98.9209 44.5039 96.1963 45.0312C95.0537 45.2656 93.7939 45.3828 92.417 45.3828ZM113.906 36.8574H112.808L112.852 25.6074C113.057 23.293 113.906 21.7695 115.4 21.0371C115.811 20.832 116.235 20.7295 116.675 20.7295C118.345 20.7295 119.326 21.7109 119.619 23.6738C119.678 24.0547 119.707 24.4502 119.707 24.8604V34.5723C119.707 35.8027 119.385 36.5205 118.74 36.7256C118.447 36.8135 118.096 36.8574 117.686 36.8574V38H127.837C127.837 37.3262 127.646 36.96 127.266 36.9014C127.09 36.8721 126.914 36.8574 126.738 36.8574H125.288V25.6074C125.288 21.9746 123.999 19.7041 121.421 18.7959C120.718 18.5615 119.985 18.4443 119.224 18.4443C117.085 18.4443 115.269 19.2939 113.774 20.9932C113.335 21.4912 112.983 22.0039 112.72 22.5312L112.5 19.1035H104.678V20.2461H107.227V34.5723C107.227 35.9199 106.597 36.667 105.337 36.8135C105.132 36.8428 104.912 36.8574 104.678 36.8574V38L114.961 38C114.961 37.3262 114.771 36.96 114.39 36.9014C114.243 36.8721 114.082 36.8574 113.906 36.8574Z" fill="black"/>
</svg>
