<svg width="104" height="80" viewBox="0 0 104 80" fill="none" xmlns="http://www.w3.org/2000/svg">
<path d="M4.264 63.928C3.93467 63.928 3.77 63.7633 3.77 63.434C3.77 63.2087 4.01267 63.0093 4.498 62.836C6.64733 62.0907 9.074 60.7387 11.778 58.78C14.482 56.804 16.64 54.5767 18.252 52.098C18.3907 51.9073 18.4513 51.708 18.434 51.5C18.434 51.292 18.382 51.1533 18.278 51.084C18.174 50.9973 18.0093 50.9193 17.784 50.85C17.576 50.7633 17.472 50.6507 17.472 50.512L17.992 50.2C18.7027 50.2 19.2573 50.33 19.656 50.59C20.956 51.4567 21.606 52.15 21.606 52.67C21.606 52.826 21.554 52.956 21.45 53.06C21.3633 53.1467 21.2593 53.19 21.138 53.19H21.008C20.8693 53.19 20.774 53.216 20.722 53.268C20.67 53.32 20.592 53.4153 20.488 53.554C19.0493 54.9927 17.2727 56.5613 15.158 58.26C16.0593 58.6067 16.51 58.9273 16.51 59.222C16.51 59.3953 16.3367 59.6033 15.99 59.846C15.6607 60.0713 15.496 60.2793 15.496 60.47C15.4787 62.2727 15.47 64.0233 15.47 65.722C15.47 67.4207 15.4873 68.348 15.522 68.504L15.808 69.648C15.86 69.856 15.886 70.064 15.886 70.272C15.886 70.48 15.8427 70.688 15.756 70.896C15.496 71.5027 15.1927 71.806 14.846 71.806C14.586 71.806 14.3433 71.6933 14.118 71.468C13.6153 70.896 13.3553 70.1247 13.338 69.154C13.338 68.8073 13.39 68.4173 13.494 67.984C13.6153 67.5507 13.676 66.4587 13.676 64.708C13.676 62.9573 13.6067 61.2327 13.468 59.534C10.7293 61.4927 7.852 62.9053 4.836 63.772C4.48933 63.876 4.29867 63.928 4.264 63.928ZM32.994 71.572C32.4567 71.572 32.1793 71.364 32.162 70.948C32.162 70.7573 32.4567 70.5753 33.046 70.402C40.274 68.0793 44.4427 64.3093 45.552 59.092C44.2867 59.248 42.8307 59.3693 41.184 59.456C39.5373 59.5253 37.6393 59.82 35.49 60.34L32.084 61.172C31.3213 61.172 30.8447 61.0767 30.654 60.886C29.302 59.4473 28.626 58.5547 28.626 58.208C28.626 57.9653 28.834 57.9047 29.25 58.026C29.2673 58.182 29.7787 58.546 30.784 59.118C30.9053 59.2047 31.096 59.248 31.356 59.248C31.6333 59.2307 32.9507 59.0747 35.308 58.78C37.6653 58.468 41.028 58.0433 45.396 57.506C45.8987 57.038 46.2193 56.804 46.358 56.804C46.514 56.804 46.7567 56.8993 47.086 57.09L47.372 57.22C48.4813 57.8093 49.036 58.2513 49.036 58.546C49.036 58.7887 48.7587 59.144 48.204 59.612C48.0827 59.716 48.0133 59.794 47.996 59.846C45.448 65.5487 40.4733 69.4573 33.072 71.572H32.994ZM34.164 54.932C33.956 54.932 33.7133 54.8713 33.436 54.75C33.176 54.6287 32.6733 54.2213 31.928 53.528C31.1827 52.8173 30.81 52.2453 30.81 51.812C30.81 51.552 30.94 51.422 31.2 51.422C31.3387 51.422 31.4253 51.448 31.46 51.5C31.928 52.0373 32.3267 52.436 32.656 52.696C32.7773 52.7827 33.0893 52.826 33.592 52.826C34.0947 52.826 35.152 52.696 36.764 52.436C38.376 52.1587 39.9273 51.916 41.418 51.708C41.886 51.656 42.3713 51.5 42.874 51.24C43.03 51.188 43.1513 51.162 43.238 51.162C43.6887 51.162 44.252 51.3353 44.928 51.682C45.604 52.0287 45.968 52.2627 46.02 52.384C46.0893 52.488 46.124 52.592 46.124 52.696C46.124 52.956 45.9333 53.2073 45.552 53.45C45.188 53.6927 44.8587 53.814 44.564 53.814C42.9867 53.5367 41.8513 53.398 41.158 53.398C40.482 53.398 39.2513 53.5627 37.466 53.892C35.698 54.204 34.5973 54.5507 34.164 54.932ZM75.634 69.544C75.634 69.7 75.634 69.804 75.634 69.856V69.882C75.634 70.246 75.5473 70.61 75.374 70.974C75.218 71.3207 74.9927 71.494 74.698 71.494C74.4207 71.494 74.1693 71.4073 73.944 71.234C73.736 71.078 73.554 70.8267 73.398 70.48C73.2593 70.116 73.0427 69.7347 72.748 69.336C72.4707 68.92 71.8293 68.1227 70.824 66.944C69.524 65.3667 67.8947 64.084 65.936 63.096C62.2613 67.36 58.7253 70.064 55.328 71.208C55.224 71.2427 55.1287 71.26 55.042 71.26C54.9553 71.26 54.8513 71.2513 54.73 71.234C54.626 71.234 54.5393 71.1647 54.47 71.026C54.4007 70.9047 54.366 70.8093 54.366 70.74C54.366 70.4453 54.626 70.168 55.146 69.908C61.802 66.5973 66.274 61.432 68.562 54.412C68.5273 54.412 67.4093 54.6113 65.208 55.01C63.024 55.3913 61.7413 55.5993 61.36 55.634C60.9787 55.6687 60.554 55.738 60.086 55.842L59.254 56.024H59.228C58.864 56.024 58.5607 55.972 58.318 55.868C58.0753 55.7467 57.772 55.5127 57.408 55.166C56.6627 54.4727 56.29 53.9527 56.29 53.606C56.29 53.2593 56.42 53.086 56.68 53.086H56.706C56.81 53.086 56.888 53.112 56.94 53.164C56.992 53.1987 57.0873 53.294 57.226 53.45C57.7807 54.0567 58.812 54.36 60.32 54.36C60.372 54.36 60.4153 54.36 60.45 54.36C62.894 54.36 65.3553 53.9007 67.834 52.982L68.354 52.722C68.822 52.306 69.082 52.098 69.134 52.098C69.186 52.0807 69.2813 52.072 69.42 52.072C69.5587 52.072 69.7753 52.15 70.07 52.306L70.33 52.462C71.4567 53.0687 72.02 53.5107 72.02 53.788V53.918C71.9507 54.1087 71.8293 54.282 71.656 54.438L71.188 54.828C71.0493 54.9493 70.98 55.0447 70.98 55.114C69.8707 57.6447 68.3887 60.0713 66.534 62.394C68.0767 62.8793 69.81 63.902 71.734 65.462C74.334 67.5767 75.634 68.9373 75.634 69.544ZM84.916 51.604C84.4307 51.5347 84.188 51.4047 84.188 51.214C84.188 51.006 84.578 50.902 85.358 50.902C86.1553 50.902 86.9093 51.1187 87.62 51.552C88.3307 51.968 88.686 52.2973 88.686 52.54C88.686 52.7133 88.5127 52.9213 88.166 53.164C87.8367 53.4067 87.6633 53.684 87.646 53.996C87.5767 54.6547 87.542 56.102 87.542 58.338C89.154 58.5113 91.2427 59.0747 93.808 60.028C96.3733 60.964 98.098 61.77 98.982 62.446C99.346 62.7233 99.528 63.2867 99.528 64.136C99.528 64.968 99.2073 65.384 98.566 65.384C98.098 65.384 97.6993 65.1847 97.37 64.786C96.0353 63.1913 94.5013 62.0213 92.768 61.276C91.0347 60.5307 89.2927 59.9673 87.542 59.586C87.5593 65.3927 87.646 68.6427 87.802 69.336C87.958 70.012 88.036 70.4973 88.036 70.792C88.036 71.4507 87.828 71.9447 87.412 72.274C87.256 72.3953 87.0653 72.456 86.84 72.456C86.6147 72.456 86.3633 72.2913 86.086 71.962C85.6353 71.4767 85.41 70.7313 85.41 69.726C85.41 69.414 85.436 69.1193 85.488 68.842C85.6613 67.802 85.748 65.3493 85.748 61.484C85.748 57.6187 85.6873 54.6633 85.566 52.618C85.514 51.994 85.2973 51.656 84.916 51.604Z" fill="black"/>
<path d="M15.0625 38C14.8867 37.2676 14.4912 36.8721 13.876 36.8135H11.5469L11.5469 12.8193H15.0625V11.6328L1.87891 11.6328L1.87891 12.8193H5.39453L5.39453 36.8135H1.87891L1.87891 38H15.0625ZM27.8066 36.8574H25.6094L25.6094 9.43555L16.6006 9.43555V10.5781L20.0283 10.5781L20.0283 34.4844C20.0283 35.6855 19.5449 36.418 18.5781 36.6816C18.0801 36.7988 17.4209 36.8574 16.6006 36.8574V38L28.8613 38C28.8613 37.3262 28.6709 36.96 28.29 36.9014C28.1436 36.8721 27.9824 36.8574 27.8066 36.8574ZM41.5176 36.8574H39.3203L39.3203 9.43555H30.3115V10.5781H33.7393L33.7393 34.4844C33.7393 35.6855 33.2559 36.418 32.2891 36.6816C31.791 36.7988 31.1318 36.8574 30.3115 36.8574V38H42.5723C42.5723 37.3262 42.3818 36.96 42.001 36.9014C41.8545 36.8721 41.6934 36.8574 41.5176 36.8574ZM66.127 36.8574H64.6328V19.1035H56.8984V20.2461H59.0518L59.0078 31.3203C58.8027 33.6055 57.9678 35.1143 56.5029 35.8467C56.0635 36.0518 55.624 36.1543 55.1846 36.1543C53.5146 36.1543 52.5332 35.1729 52.2402 33.21C52.1816 32.8291 52.1523 32.4336 52.1523 32.0234L52.1523 19.1035H44.0225V20.2461H46.5713L46.5713 31.2764C46.6299 36.0225 48.7246 38.4102 52.8555 38.4395C55.4922 38.4395 57.499 37.2676 58.876 34.9238C58.9639 34.748 59.0518 34.5723 59.1396 34.3965L59.3594 38H67.1816C67.1816 37.3555 67.0059 36.9893 66.6543 36.9014C66.5078 36.8721 66.332 36.8574 66.127 36.8574ZM76.6738 37.209C78.6367 37.209 79.7646 36.5059 80.0576 35.0996C80.0869 34.8945 80.1016 34.7041 80.1016 34.5283C80.1016 33.0342 79.1641 31.7891 77.2891 30.793C76.8789 30.5586 76.2197 30.251 75.3115 29.8701C73.1143 28.9033 71.6641 28.0098 70.9609 27.1895C70.1992 26.3105 69.8184 25.2705 69.8184 24.0693C69.8184 21.5791 71.1807 19.8945 73.9053 19.0156C75.0479 18.6348 76.3223 18.4443 77.7285 18.4443C80.0137 18.4443 81.8008 18.8545 83.0898 19.6748C83.0898 18.7959 83.3535 18.3125 83.8809 18.2246C83.998 18.1953 84.1152 18.1807 84.2324 18.1807V23.6738H82.8262C82.709 21.0078 81.2588 19.6602 78.4756 19.6309C76.6006 19.6309 75.4434 20.2461 75.0039 21.4766C74.916 21.7695 74.8721 22.0625 74.8721 22.3555C74.8721 23.6152 75.751 24.6846 77.5088 25.5635C77.8604 25.7686 78.4463 26.0469 79.2666 26.3984C81.5518 27.4238 83.0752 28.3613 83.8369 29.2109C84.7158 30.207 85.1553 31.3936 85.1553 32.7705C85.1553 35.3193 83.8369 37.0332 81.2002 37.9121C80.1162 38.2637 78.9004 38.4395 77.5527 38.4395C74.9746 38.4395 72.8066 37.9854 71.0488 37.0771C71.0488 37.8389 70.8584 38.2783 70.4775 38.3955C70.3018 38.4248 70.0967 38.4395 69.8623 38.4395V31.7598H71.3564C71.415 35.3633 73.1875 37.1797 76.6738 37.209ZM87.1328 20.4658H90.165V31.4521C90.165 35.7002 91.9229 38.0293 95.4385 38.4395C95.79 38.4687 96.1416 38.4834 96.4932 38.4834C98.749 38.4834 100.302 37.751 101.151 36.2861C101.562 35.5537 101.884 34.5869 102.118 33.3857L100.932 33.21C100.346 35.583 99.4814 36.8867 98.3389 37.1211C98.1631 37.1504 97.9873 37.165 97.8115 37.165C96.7275 37.165 96.0684 36.4033 95.834 34.8799C95.7754 34.5283 95.7461 34.1621 95.7461 33.7812V20.4658L101.547 20.4658V19.3232L95.7461 19.3232V14.2256L90.165 15.1484V19.3232H87.1328V20.4658Z" fill="black"/>
</svg>
