<svg width="79" height="65" viewBox="0 0 79 65" fill="none" xmlns="http://www.w3.org/2000/svg">
<path d="M10.624 54.648C10.4213 54.648 10.32 54.5467 10.32 54.344C10.32 54.2053 10.4693 54.0827 10.768 53.976C12.0907 53.5173 13.584 52.6853 15.248 51.48C16.912 50.264 18.24 48.8933 19.232 47.368C19.3173 47.2507 19.3547 47.128 19.344 47C19.344 46.872 19.312 46.7867 19.248 46.744C19.184 46.6907 19.0827 46.6427 18.944 46.6C18.816 46.5467 18.752 46.4773 18.752 46.392L19.072 46.2C19.5093 46.2 19.8507 46.28 20.096 46.44C20.896 46.9733 21.296 47.4 21.296 47.72C21.296 47.816 21.264 47.896 21.2 47.96C21.1467 48.0133 21.0827 48.04 21.008 48.04H20.928C20.8427 48.04 20.784 48.056 20.752 48.088C20.72 48.12 20.672 48.1787 20.608 48.264C19.7227 49.1493 18.6293 50.1147 17.328 51.16C17.8827 51.3733 18.16 51.5707 18.16 51.752C18.16 51.8587 18.0533 51.9867 17.84 52.136C17.6373 52.2747 17.536 52.4027 17.536 52.52C17.5253 53.6293 17.52 54.7067 17.52 55.752C17.52 56.7973 17.5307 57.368 17.552 57.464L17.728 58.168C17.76 58.296 17.776 58.424 17.776 58.552C17.776 58.68 17.7493 58.808 17.696 58.936C17.536 59.3093 17.3493 59.496 17.136 59.496C16.976 59.496 16.8267 59.4267 16.688 59.288C16.3787 58.936 16.2187 58.4613 16.208 57.864C16.208 57.6507 16.24 57.4107 16.304 57.144C16.3787 56.8773 16.416 56.2053 16.416 55.128C16.416 54.0507 16.3733 52.9893 16.288 51.944C14.6027 53.1493 12.832 54.0187 10.976 54.552C10.7627 54.616 10.6453 54.648 10.624 54.648ZM28.304 59.352C27.9733 59.352 27.8027 59.224 27.792 58.968C27.792 58.8507 27.9733 58.7387 28.336 58.632C32.784 57.2027 35.3493 54.8827 36.032 51.672C35.2533 51.768 34.3573 51.8427 33.344 51.896C32.3307 51.9387 31.1627 52.12 29.84 52.44L27.744 52.952C27.2747 52.952 26.9813 52.8933 26.864 52.776C26.032 51.8907 25.616 51.3413 25.616 51.128C25.616 50.9787 25.744 50.9413 26 51.016C26.0107 51.112 26.3253 51.336 26.944 51.688C27.0187 51.7413 27.136 51.768 27.296 51.768C27.4667 51.7573 28.2773 51.6613 29.728 51.48C31.1787 51.288 33.248 51.0267 35.936 50.696C36.2453 50.408 36.4427 50.264 36.528 50.264C36.624 50.264 36.7733 50.3227 36.976 50.44L37.152 50.52C37.8347 50.8827 38.176 51.1547 38.176 51.336C38.176 51.4853 38.0053 51.704 37.664 51.992C37.5893 52.056 37.5467 52.104 37.536 52.136C35.968 55.6453 32.9067 58.0507 28.352 59.352H28.304ZM29.024 49.112C28.896 49.112 28.7467 49.0747 28.576 49C28.416 48.9253 28.1067 48.6747 27.648 48.248C27.1893 47.8107 26.96 47.4587 26.96 47.192C26.96 47.032 27.04 46.952 27.2 46.952C27.2853 46.952 27.3387 46.968 27.36 47C27.648 47.3307 27.8933 47.576 28.096 47.736C28.1707 47.7893 28.3627 47.816 28.672 47.816C28.9813 47.816 29.632 47.736 30.624 47.576C31.616 47.4053 32.5707 47.256 33.488 47.128C33.776 47.096 34.0747 47 34.384 46.84C34.48 46.808 34.5547 46.792 34.608 46.792C34.8853 46.792 35.232 46.8987 35.648 47.112C36.064 47.3253 36.288 47.4693 36.32 47.544C36.3627 47.608 36.384 47.672 36.384 47.736C36.384 47.896 36.2667 48.0507 36.032 48.2C35.808 48.3493 35.6053 48.424 35.424 48.424C34.4533 48.2533 33.7547 48.168 33.328 48.168C32.912 48.168 32.1547 48.2693 31.056 48.472C29.968 48.664 29.2907 48.8773 29.024 49.112ZM54.544 58.104C54.544 58.2 54.544 58.264 54.544 58.296V58.312C54.544 58.536 54.4907 58.76 54.384 58.984C54.288 59.1973 54.1493 59.304 53.968 59.304C53.7973 59.304 53.6427 59.2507 53.504 59.144C53.376 59.048 53.264 58.8933 53.168 58.68C53.0827 58.456 52.9493 58.2213 52.768 57.976C52.5973 57.72 52.2027 57.2293 51.584 56.504C50.784 55.5333 49.7813 54.744 48.576 54.136C46.3147 56.76 44.1387 58.424 42.048 59.128C41.984 59.1493 41.9253 59.16 41.872 59.16C41.8187 59.16 41.7547 59.1547 41.68 59.144C41.616 59.144 41.5627 59.1013 41.52 59.016C41.4773 58.9413 41.456 58.8827 41.456 58.84C41.456 58.6587 41.616 58.488 41.936 58.328C46.032 56.2907 48.784 53.112 50.192 48.792C50.1707 48.792 49.4827 48.9147 48.128 49.16C46.784 49.3947 45.9947 49.5227 45.76 49.544C45.5253 49.5653 45.264 49.608 44.976 49.672L44.464 49.784H44.448C44.224 49.784 44.0373 49.752 43.888 49.688C43.7387 49.6133 43.552 49.4693 43.328 49.256C42.8693 48.8293 42.64 48.5093 42.64 48.296C42.64 48.0827 42.72 47.976 42.88 47.976H42.896C42.96 47.976 43.008 47.992 43.04 48.024C43.072 48.0453 43.1307 48.104 43.216 48.2C43.5573 48.5733 44.192 48.76 45.12 48.76C45.152 48.76 45.1787 48.76 45.2 48.76C46.704 48.76 48.2187 48.4773 49.744 47.912L50.064 47.752C50.352 47.496 50.512 47.368 50.544 47.368C50.576 47.3573 50.6347 47.352 50.72 47.352C50.8053 47.352 50.9387 47.4 51.12 47.496L51.28 47.592C51.9733 47.9653 52.32 48.2373 52.32 48.408V48.488C52.2773 48.6053 52.2027 48.712 52.096 48.808L51.808 49.048C51.7227 49.1227 51.68 49.1813 51.68 49.224C50.9973 50.7813 50.0853 52.2747 48.944 53.704C49.8933 54.0027 50.96 54.632 52.144 55.592C53.744 56.8933 54.544 57.7307 54.544 58.104ZM60.256 47.064C59.9573 47.0213 59.808 46.9413 59.808 46.824C59.808 46.696 60.048 46.632 60.528 46.632C61.0187 46.632 61.4827 46.7653 61.92 47.032C62.3573 47.288 62.576 47.4907 62.576 47.64C62.576 47.7467 62.4693 47.8747 62.256 48.024C62.0533 48.1733 61.9467 48.344 61.936 48.536C61.8933 48.9413 61.872 49.832 61.872 51.208C62.864 51.3147 64.1493 51.6613 65.728 52.248C67.3067 52.824 68.368 53.32 68.912 53.736C69.136 53.9067 69.248 54.2533 69.248 54.776C69.248 55.288 69.0507 55.544 68.656 55.544C68.368 55.544 68.1227 55.4213 67.92 55.176C67.0987 54.1947 66.1547 53.4747 65.088 53.016C64.0213 52.5573 62.9493 52.2107 61.872 51.976C61.8827 55.5493 61.936 57.5493 62.032 57.976C62.128 58.392 62.176 58.6907 62.176 58.872C62.176 59.2773 62.048 59.5813 61.792 59.784C61.696 59.8587 61.5787 59.896 61.44 59.896C61.3013 59.896 61.1467 59.7947 60.976 59.592C60.6987 59.2933 60.56 58.8347 60.56 58.216C60.56 58.024 60.576 57.8427 60.608 57.672C60.7147 57.032 60.768 55.5227 60.768 53.144C60.768 50.7653 60.7307 48.9467 60.656 47.688C60.624 47.304 60.4907 47.096 60.256 47.064Z" fill="black"/>
<path d="M10.9375 29C10.8008 28.4303 10.4932 28.1227 10.0146 28.0771H8.20313L8.20313 9.41504H10.9375V8.49219L0.683594 8.49219L0.683594 9.41504H3.41797L3.41797 28.0771H0.683594L0.683594 29H10.9375ZM20.8496 28.1113H19.1406L19.1406 6.7832L12.1338 6.7832V7.67187L14.7998 7.67187L14.7998 26.2656C14.7998 27.1999 14.4238 27.7695 13.6719 27.9746C13.2845 28.0658 12.7718 28.1113 12.1338 28.1113V29H21.6699C21.6699 28.4759 21.5218 28.1911 21.2256 28.1455C21.1117 28.1227 20.9863 28.1113 20.8496 28.1113ZM31.5137 28.1113H29.8047L29.8047 6.7832L22.7979 6.7832V7.67187L25.4639 7.67187L25.4639 26.2656C25.4639 27.1999 25.0879 27.7695 24.3359 27.9746C23.9486 28.0658 23.4359 28.1113 22.7979 28.1113V29H32.334C32.334 28.4759 32.1859 28.1911 31.8896 28.1455C31.7757 28.1227 31.6504 28.1113 31.5137 28.1113ZM50.6543 28.1113H49.4922L49.4922 14.3027H43.4766V15.1914H45.1514L45.1172 23.8047C44.9577 25.582 44.3083 26.7555 43.1689 27.3252C42.8271 27.4847 42.4854 27.5645 42.1436 27.5645C40.8447 27.5645 40.0814 26.8011 39.8535 25.2744C39.8079 24.9782 39.7852 24.6706 39.7852 24.3516L39.7852 14.3027L33.4619 14.3027V15.1914H35.4443L35.4443 23.7705C35.4899 27.4619 37.1191 29.319 40.332 29.3418C42.3828 29.3418 43.9437 28.4303 45.0146 26.6074C45.083 26.4707 45.1514 26.334 45.2197 26.1973L45.3906 29H51.4746C51.4746 28.4987 51.3379 28.2139 51.0645 28.1455C50.9505 28.1227 50.8138 28.1113 50.6543 28.1113ZM58.8574 28.3848C60.3841 28.3848 61.2614 27.8379 61.4893 26.7441C61.512 26.5846 61.5234 26.4365 61.5234 26.2998C61.5234 25.1377 60.7943 24.1693 59.3359 23.3945C59.0169 23.2122 58.5042 22.973 57.7979 22.6768C56.0889 21.9248 54.9609 21.2298 54.4141 20.5918C53.8216 19.9082 53.5254 19.0993 53.5254 18.165C53.5254 16.2282 54.585 14.918 56.7041 14.2344C57.5928 13.9382 58.584 13.79 59.6777 13.79C61.4551 13.79 62.8451 14.109 63.8477 14.7471C63.8477 14.0635 64.0527 13.6875 64.4629 13.6191C64.554 13.5964 64.6452 13.585 64.7363 13.585V17.8574H63.6426C63.5514 15.7839 62.4235 14.7357 60.2588 14.7129C58.8005 14.7129 57.9004 15.1914 57.5586 16.1484C57.4902 16.3763 57.4561 16.6042 57.4561 16.832C57.4561 17.8118 58.1396 18.6436 59.5068 19.3271C59.7803 19.4867 60.236 19.7031 60.874 19.9766C62.6514 20.7741 63.8363 21.5033 64.4287 22.1641C65.1123 22.9388 65.4541 23.8617 65.4541 24.9326C65.4541 26.915 64.4287 28.248 62.3779 28.9316C61.5348 29.2051 60.5892 29.3418 59.541 29.3418C57.5358 29.3418 55.8496 28.9886 54.4824 28.2822C54.4824 28.8747 54.3343 29.2165 54.0381 29.3076C53.9014 29.3304 53.7419 29.3418 53.5596 29.3418V24.1465H54.7217C54.7673 26.9492 56.1458 28.362 58.8574 28.3848ZM66.9922 15.3623H69.3506V23.9072C69.3506 27.2113 70.7178 29.0228 73.4521 29.3418C73.7256 29.3646 73.999 29.376 74.2725 29.376C76.027 29.376 77.2347 28.8063 77.8955 27.667C78.2145 27.0973 78.4652 26.3454 78.6475 25.4111L77.7246 25.2744C77.2689 27.1201 76.5967 28.1341 75.708 28.3164C75.5713 28.3392 75.4346 28.3506 75.2979 28.3506C74.4548 28.3506 73.9421 27.7581 73.7598 26.5732C73.7142 26.2998 73.6914 26.015 73.6914 25.7187V15.3623H78.2031V14.4736H73.6914V10.5088L69.3506 11.2266V14.4736H66.9922V15.3623Z" fill="black"/>
</svg>
