<svg xmlns="http://www.w3.org/2000/svg" xmlns:xlink="http://www.w3.org/1999/xlink" width="361" height="187" viewBox="0 0 361 187">
  <defs>
    <clipPath id="clip-path">
      <rect id="長方形_63" data-name="長方形 63" width="361" height="187" transform="translate(1349 1638)" fill="#fff" stroke="#707070" stroke-width="1"/>
    </clipPath>
  </defs>
  <g id="L_W_logo" transform="translate(-1349 -1638)" clip-path="url(#clip-path)">
    <g id="_レイヤー_1-2" transform="translate(1348.675 1638.002)">
      <path id="パス_1" data-name="パス 1" d="M.024,401.912c2.066-10.333,48.493-7.4,79.257-77.931,3.552-8.141,5.969-7.3,6.3-.995,1.516,28.8-.086,63.1,19.9,77.93,3.648,2.984-3.979,13.265-9.043,12.147-34.84-7.684-64.245-1.535-89.116.454-4.3.345-7.627-9.949-7.3-11.606Z" transform="translate(0 -214.527)" fill="#fff"/>
      <path id="パス_2" data-name="パス 2" d="M268.835,23.424c-6.291.492-6.3-14.434-4.643-15.746,4.215-3.336,89.869-.328,89.869-.328,4.311,0,5.243,14.139,0,15.418-39.794,2.624,7.627,83.324,17.576,85.948,2.434.643,5.143-3.94,5.969-1.968,3.979,9.513-15.254,15.746-22.218,75.779-.723,6.226-24.54-12.794-22.55-21.651,9.61-42.777-13.6-141.388-64-137.451Z" transform="translate(-178.887 -4.082)" fill="#fff"/>
      <path id="パス_3" data-name="パス 3" d="M632.3,14.747c-3.22.026-3.814-12.1-1.327-12.482,23.877-3.613,78.262-2.628,93.848.985,2.328.539.916,11.96-2.653,11.825-52.4-1.971-12.042,135.363,11.275,154.382,5.637,4.6,29.182,20.694,53.722-3.613,9.717-9.624-3.647,33.176-10.943,35.8s-37.44-10.7-85.89-1.971c-7.3,1.314-16.249-9.854-14.259-14.781,14.389-35.629-6.125-170.457-43.774-170.149Z" transform="translate(-429.255 0)" fill="#fff"/>
    </g>
  </g>
</svg>
