<svg width="121" height="29" viewBox="0 0 121 29" fill="none" xmlns="http://www.w3.org/2000/svg">
<g filter="url(#filter0_d_35_22)">
<path d="M12.7012 3.21289C14.7324 3.25195 15.7578 4.61914 15.7773 7.31445C15.7383 10.0098 14.6738 11.3672 12.584 11.3867H11.0312V3.21289H12.7012ZM13.9609 20C13.8438 19.5117 13.5801 19.248 13.1699 19.209H11.0312V12.2656H13.4336C16.8125 12.2656 18.9316 11.2012 19.791 9.07227C20.0449 8.4668 20.1719 7.79297 20.1719 7.05078C20.1719 5.21484 19.3516 3.89648 17.7109 3.0957C16.7734 2.64648 15.6602 2.42188 14.3711 2.42188H4.58594V3.21289H6.92969V19.209H4.58594V20H13.9609ZM25.3574 13.6426C25.3574 10.9082 25.6895 9.16016 26.3535 8.39844C26.7637 7.94922 27.3398 7.72461 28.082 7.72461C29.332 7.72461 30.1328 8.35938 30.4844 9.62891C30.7188 10.4492 30.8359 11.748 30.8359 13.5254C30.8359 16.377 30.4648 18.1738 29.7227 18.916C29.293 19.3262 28.7363 19.5312 28.0527 19.5312C26.8418 19.5312 26.0605 18.9062 25.709 17.6562C25.4746 16.8164 25.3574 15.4785 25.3574 13.6426ZM28.2285 6.96289C25.8262 6.96289 23.9805 7.7832 22.6914 9.42383C21.793 10.5957 21.3438 11.9629 21.3438 13.5254C21.3438 15.7324 22.1055 17.4805 23.6289 18.7695C24.8398 19.7852 26.2852 20.293 27.9648 20.293C30.2695 20.293 32.0762 19.4629 33.3848 17.8027C34.3613 16.5527 34.8496 15.1074 34.8496 13.4668C34.8496 11.2793 34.0781 9.57031 32.5352 8.33984C31.3438 7.42188 29.9082 6.96289 28.2285 6.96289ZM43.9023 19.2383H41.7344V12.9102C41.8711 10.8594 42.3691 9.60938 43.2285 9.16016C43.3652 9.10156 43.4922 9.07227 43.6094 9.07227C43.8242 9.07227 44.0586 9.29688 44.3125 9.74609C44.6641 10.3711 45.0449 10.7617 45.4551 10.918C45.6504 10.9766 45.8652 11.0059 46.0996 11.0059C46.8809 11.0059 47.4375 10.6348 47.7695 9.89258C47.8867 9.63867 47.9453 9.375 47.9453 9.10156C47.9453 8.125 47.4668 7.50977 46.5098 7.25586C46.2754 7.19727 46.0312 7.16797 45.7773 7.16797C44.5664 7.16797 43.502 7.64648 42.584 8.60352C42.1738 9.07227 41.8613 9.58008 41.6465 10.127L41.4414 7.40234H36.3145V8.16406H38.0137V17.7148C38.0137 18.5742 37.6719 19.0625 36.9883 19.1797C36.793 19.2188 36.5684 19.2383 36.3145 19.2383V20H44.6055C44.6055 19.5508 44.4785 19.3066 44.2246 19.2676C44.127 19.248 44.0195 19.2383 43.9023 19.2383ZM48.5312 8.31055H50.5527V15.6348C50.5527 18.4668 51.7246 20.0195 54.0684 20.293C54.3027 20.3125 54.5371 20.3223 54.7715 20.3223C56.2754 20.3223 57.3105 19.834 57.877 18.8574C58.1504 18.3691 58.3652 17.7246 58.5215 16.9238L57.7305 16.8066C57.3398 18.3887 56.7637 19.2578 56.002 19.4141C55.8848 19.4336 55.7676 19.4434 55.6504 19.4434C54.9277 19.4434 54.4883 18.9355 54.332 17.9199C54.293 17.6855 54.2734 17.4414 54.2734 17.1875V8.31055H58.1406V7.54883H54.2734V4.15039L50.5527 4.76562V7.54883H48.5312V8.31055ZM67.4277 19.2383H65.3477V8.19336H68.6582V7.40234H65.3477V7.25586C65.3477 4.30664 65.5723 2.54883 66.0215 1.98242C66.2559 1.70898 66.5586 1.57227 66.9297 1.57227C67.418 1.57227 67.8184 1.94336 68.1309 2.68555C68.5215 3.58398 68.7754 4.11133 68.8926 4.26758C69.2246 4.63867 69.6152 4.83398 70.0645 4.85352C70.8652 4.85352 71.3926 4.54102 71.6465 3.91602C71.7051 3.75977 71.7344 3.59375 71.7344 3.41797C71.7344 2.55859 71.2266 1.875 70.2109 1.36719C69.4688 0.996094 68.5703 0.810547 67.5156 0.810547C65.2305 0.810547 63.5801 1.63086 62.5645 3.27148C61.9395 4.28711 61.627 5.53711 61.627 7.02148V7.40234H59.2539V8.19336H61.627V17.7148C61.5879 18.7305 60.8457 19.2383 59.4004 19.2383V20H68.1309C68.1309 19.5508 68.0039 19.3066 67.75 19.2676C67.6523 19.248 67.5449 19.2383 67.4277 19.2383ZM73.6973 13.6426C73.6973 10.9082 74.0293 9.16016 74.6934 8.39844C75.1035 7.94922 75.6797 7.72461 76.4219 7.72461C77.6719 7.72461 78.4727 8.35938 78.8242 9.62891C79.0586 10.4492 79.1758 11.748 79.1758 13.5254C79.1758 16.377 78.8047 18.1738 78.0625 18.916C77.6328 19.3262 77.0762 19.5312 76.3926 19.5312C75.1816 19.5312 74.4004 18.9062 74.0488 17.6562C73.8145 16.8164 73.6973 15.4785 73.6973 13.6426ZM76.5684 6.96289C74.166 6.96289 72.3203 7.7832 71.0312 9.42383C70.1328 10.5957 69.6836 11.9629 69.6836 13.5254C69.6836 15.7324 70.4453 17.4805 71.9688 18.7695C73.1797 19.7852 74.625 20.293 76.3047 20.293C78.6094 20.293 80.416 19.4629 81.7246 17.8027C82.7012 16.5527 83.1895 15.1074 83.1895 13.4668C83.1895 11.2793 82.418 9.57031 80.875 8.33984C79.6836 7.42188 78.248 6.96289 76.5684 6.96289ZM91.9785 19.2383H90.5137V0.957031H84.5078V1.71875H86.793V17.6562C86.793 18.457 86.4707 18.9453 85.8262 19.1211C85.4941 19.1992 85.0547 19.2383 84.5078 19.2383V20H92.6816C92.6816 19.5508 92.5547 19.3066 92.3008 19.2676C92.2031 19.248 92.0957 19.2383 91.9785 19.2383ZM100.445 19.2383H99.3613V7.40234H93.9414V8.16406H95.6406V17.7148C95.6406 18.5742 95.2988 19.0625 94.6152 19.1797C94.4199 19.2188 94.1953 19.2383 93.9414 19.2383V20H101.148C101.148 19.5508 101.021 19.3066 100.768 19.2676C100.67 19.248 100.562 19.2383 100.445 19.2383ZM99.625 3.56445C99.625 2.70508 99.2441 2.07031 98.4824 1.66016C98.1504 1.46484 97.7988 1.36719 97.4277 1.36719C96.5879 1.36719 95.9531 1.74805 95.5234 2.50977C95.3477 2.8418 95.2598 3.19336 95.2598 3.56445C95.2598 4.42383 95.6406 5.04883 96.4023 5.43945C96.7344 5.61523 97.0762 5.70312 97.4277 5.70312C98.2871 5.70312 98.9219 5.3418 99.332 4.61914C99.5273 4.28711 99.625 3.93555 99.625 3.56445ZM106.627 13.6426C106.627 10.9082 106.959 9.16016 107.623 8.39844C108.033 7.94922 108.609 7.72461 109.352 7.72461C110.602 7.72461 111.402 8.35938 111.754 9.62891C111.988 10.4492 112.105 11.748 112.105 13.5254C112.105 16.377 111.734 18.1738 110.992 18.916C110.562 19.3262 110.006 19.5312 109.322 19.5312C108.111 19.5312 107.33 18.9062 106.979 17.6562C106.744 16.8164 106.627 15.4785 106.627 13.6426ZM109.498 6.96289C107.096 6.96289 105.25 7.7832 103.961 9.42383C103.062 10.5957 102.613 11.9629 102.613 13.5254C102.613 15.7324 103.375 17.4805 104.898 18.7695C106.109 19.7852 107.555 20.293 109.234 20.293C111.539 20.293 113.346 19.4629 114.654 17.8027C115.631 16.5527 116.119 15.1074 116.119 13.4668C116.119 11.2793 115.348 9.57031 113.805 8.33984C112.613 7.42188 111.178 6.96289 109.498 6.96289Z" fill="white"/>
</g>
<defs>
<filter id="filter0_d_35_22" x="0.585938" y="0.810547" width="119.533" height="27.5117" filterUnits="userSpaceOnUse" color-interpolation-filters="sRGB">
<feFlood flood-opacity="0" result="BackgroundImageFix"/>
<feColorMatrix in="SourceAlpha" type="matrix" values="0 0 0 0 0 0 0 0 0 0 0 0 0 0 0 0 0 0 127 0" result="hardAlpha"/>
<feOffset dy="4"/>
<feGaussianBlur stdDeviation="2"/>
<feComposite in2="hardAlpha" operator="out"/>
<feColorMatrix type="matrix" values="0 0 0 0 0 0 0 0 0 0 0 0 0 0 0 0 0 0 0.25 0"/>
<feBlend mode="normal" in2="BackgroundImageFix" result="effect1_dropShadow_35_22"/>
<feBlend mode="normal" in="SourceGraphic" in2="effect1_dropShadow_35_22" result="shape"/>
</filter>
</defs>
</svg>
