<svg xmlns="http://www.w3.org/2000/svg" width="50" height="27" viewBox="0 0 50 27">
  <g id="logo" transform="translate(-0.001 0.002)">
    <path id="パス_4" data-name="パス 4" d="M0,329.44c.28-1.4,6.577-1,10.749-10.569.482-1.1.81-.989.855-.135.206,3.906-.012,8.558,2.7,10.569.495.4-.54,1.8-1.226,1.647-4.725-1.042-8.713-.208-12.086.062-.583.047-1.034-1.349-.989-1.574Z" transform="translate(0 -304.423)" fill="#0d0d0d"/>
    <path id="パス_5" data-name="パス 5" d="M264.017,8.416c-.853.066-.855-1.925-.63-2.1.572-.445,12.188-.044,12.188-.044.585,0,.711,1.886,0,2.057-5.4.35,1.034,11.115,2.384,11.465.33.086.7-.526.81-.263.54,1.269-2.069,2.1-3.013,10.108-.1.831-3.328-1.707-3.058-2.888,1.3-5.706-1.844-18.86-8.68-18.335Z" transform="translate(-251.476 -5.832)" fill="#0d0d0d"/>
    <path id="パス_6" data-name="パス 6" d="M629.823,1.97c-.437,0-.517-1.618-.18-1.668a55.2,55.2,0,0,1,12.728.132c.316.072.124,1.6-.36,1.581-7.106-.263-1.633,18.093,1.529,20.635a5.218,5.218,0,0,0,7.286-.483c1.318-1.286-.495,4.434-1.484,4.786s-5.078-1.43-11.649-.263c-.989.176-2.2-1.317-1.934-1.976,1.951-4.762-.831-22.784-5.937-22.743Z" transform="translate(-601.288 0)" fill="#0d0d0d"/>
  </g>
</svg>
