<svg xmlns="http://www.w3.org/2000/svg" xmlns:xlink="http://www.w3.org/1999/xlink" width="472" height="50" viewBox="0 0 472 50">
  <defs>
    <linearGradient id="linear-gradient" y1="0.101" x2="1" y2="0.71" gradientUnits="objectBoundingBox">
      <stop offset="0" stop-color="#d2e6ea"/>
      <stop offset="1" stop-color="#efd8d0"/>
    </linearGradient>
  </defs>
  <path id="英文_あしらい" d="M11.035-24.473c0-3.867.046-4.413.368-4.732.414-.409,2.253-.773,5.241-.773,11.264,0,13.976,7.6,13.976,14.7,0,6.051-3.172,12.875-13.011,12.875-2.988,0-5.471-.5-6.115-1.274-.46-.409-.46-1.319-.46-4.641ZM7.219-9.914a44.567,44.567,0,0,1-.184,6.1c-.184.91-.6,1.365-3.4,1.729-1.7.273-1.425,1.683,0,1.683H6.852c1.655,0,5.655.318,8.505.318,4.551,0,9.1-.682,13.287-4.14a16.5,16.5,0,0,0,6.3-13.512c0-5.641-3.494-14.24-16.643-14.24-4,0-6.85.182-9.609.182-1.655,0-3.77-.136-4.827-.136-1.793,0-1.885,1.41-.184,1.638,2.85.364,3.356,1,3.448,2.184s.092,1.82.092,4.322Zm38.573-4.459c.506-4,2.667-5.641,5.1-5.641a5.335,5.335,0,0,1,5.471,5.232c0,.227-.046.409-.23.5a55.922,55.922,0,0,1-8.367.409,15.857,15.857,0,0,1-1.7-.091C45.838-14.009,45.792-14.1,45.792-14.373Zm-.138,2.593c8.781,0,11.126-.5,12.965-1,.828-.227,1.747-.819,1.747-1.638,0-.409-.23-.546-.506-.682a7.223,7.223,0,0,0-7.448-7.188A10.117,10.117,0,0,0,45.976-19.7a11.91,11.91,0,0,0-3.954,9.1c0,6.187,3.724,10.783,9.057,10.783a12.064,12.064,0,0,0,8.046-3.139c1.149-1.137.736-2.411-.69-1.547a8.947,8.947,0,0,1-5.149,1.638C48.826-2.862,45.746-5.728,45.654-11.779ZM73.285-13.6c-1.747-.682-3.126-1.5-3.126-3.594,0-1.547.782-3.094,3.494-3.094a4.169,4.169,0,0,1,3.954,1.956,7.654,7.654,0,0,1,.782,2.32c.23,1.228,1.655,1,1.655-.5a33.325,33.325,0,0,1,.46-5.732c.138-.728-.69-.773-1.241-.364-.276.182-.506.546-.828.773-.138.091-.184.136-.506.045a9.422,9.422,0,0,0-3.034-.5,8.99,8.99,0,0,0-5.517,1.729,5.839,5.839,0,0,0-2.529,4.732c0,3.139,2.575,4.641,4.322,5.323,1.333.5,3.08,1.137,4.414,1.683,1.517.728,2.437,1.729,2.437,3.367q0,3.685-4,3.685c-2.8,0-4.414-1.183-5.241-3.048-.184-.5-.552-1.5-.644-1.774-.414-1.365-1.839-1.092-1.7.318.23,2.275.368,4,.368,5.6,0,1.274,1.149.955,1.655.364.276-.364.506-.273.782-.136a9.077,9.077,0,0,0,3.724.728,9.806,9.806,0,0,0,4.965-1.319c2.667-1.683,3.678-3.776,3.678-6.051,0-2.775-2.161-4.231-4.276-5.1ZM92.318-.405c1.655,0,2.758.091,3.908.091,1.609,0,1.609-1.456.184-1.683-2.115-.409-2.3-.773-2.3-2.912V-15.464a31.374,31.374,0,0,1,.368-5.823c.092-.682-.184-1-.644-1a2.442,2.442,0,0,0-1.149.455,11.629,11.629,0,0,1-3.908,1.41c-1.1.182-1.057,1.183-.23,1.5,1.839.728,1.977.91,2.023,1.638a12.152,12.152,0,0,1,.092,2.047V-4.682c0,1.911-.276,2.275-2.253,2.684-1.471.273-1.425,1.683.138,1.683C89.376-.314,91.031-.405,92.318-.405ZM92.41-33.3a2.6,2.6,0,0,0-2.575,2.73,2.416,2.416,0,0,0,2.437,2.548A2.581,2.581,0,0,0,94.847-30.8,2.487,2.487,0,0,0,92.41-33.3ZM111.49-8.549c-3.862,0-5.2-3.185-5.2-6.051,0-3.5,1.287-5.505,4.368-5.505,3.4,0,5.2,2.5,5.2,6.142C115.857-10.278,114.294-8.549,111.49-8.549ZM109.375.186c1.931.182,2.942.318,4.414.455,3.448.409,5.2,1.865,5.2,4.368,0,3.185-2.529,5.505-6.207,5.505-5.149,0-7.586-2.912-7.586-5.05a3.681,3.681,0,0,1,1.057-2.593,31.059,31.059,0,0,1,2.667-2.73Zm12.6-19.563a7.306,7.306,0,0,0,1.1-2.047c.276-.773-.276-1.41-1.1-.637a3.4,3.4,0,0,1-2.391,1.274,13.144,13.144,0,0,1-4.506-1,11.235,11.235,0,0,0-3.172-.5,10.238,10.238,0,0,0-4.965,1.547,8.342,8.342,0,0,0-4.138,7.188,7.074,7.074,0,0,0,4.919,6.915c-.828.728-2.621,2.229-3.264,2.957a1.451,1.451,0,0,0,.092,1.137,4.046,4.046,0,0,0,2.713,2.32,44.923,44.923,0,0,0-4.919,4.686,2.792,2.792,0,0,0-.69,1.729c0,2.912,2.758,6.824,8.965,6.824a12.192,12.192,0,0,0,7.172-2.366c1.7-1.137,4.506-3.867,4.506-7.552,0-3.412-2.3-5.369-6.8-5.778-1.747-.136-3.678-.227-4.781-.318-1.379-.182-2.529-.5-2.529-1.41a3.628,3.628,0,0,1,1.149-1.911h.552A10.209,10.209,0,0,0,117.1-9.368c1.793-1.865,2.161-3.685,2.161-6.142a10.22,10.22,0,0,0-.644-2.821,9.432,9.432,0,0,0,2.529-.364A1.429,1.429,0,0,0,121.972-19.377Zm8.275,11.1A31.311,31.311,0,0,1,130.109-4c-.092,1.319-.23,1.638-2.3,2.047-1.379.227-1.425,1.638.138,1.638,1.2,0,2.483-.091,4-.091,1.655,0,3.172.091,4.184.091,1.471,0,1.563-1.41.23-1.638-2.3-.409-2.483-.728-2.529-2a24.144,24.144,0,0,1-.138-3.64v-7.734a1.524,1.524,0,0,1,.322-1.183,7.422,7.422,0,0,1,5.2-2.775c3.494,0,5.2,2.184,5.2,5.55v3.048c0,4.413-.092,5.46-.138,6.369-.046,1.456-.184,1.911-2.621,2.366-1.425.227-1.425,1.638.23,1.638.874,0,2.667-.091,3.862-.091,1.563,0,2.8.091,4.276.091,1.517,0,1.563-1.41.138-1.638-2.023-.364-2.3-.546-2.3-2V-14.418c0-5.1-2.529-7.871-6.39-7.871a7.267,7.267,0,0,0-3.862,1.183,33.559,33.559,0,0,0-3.816,2.73,15.382,15.382,0,0,0-.23-3.185c-.092-.5-.276-.728-.69-.728a3.143,3.143,0,0,0-1.2.5,16.241,16.241,0,0,1-3.678,1.82.735.735,0,0,0-.092,1.41c2.115.682,2.345,1.092,2.345,2.457ZM175.21-.405c1.655,0,2.758.091,3.908.091,1.609,0,1.609-1.456.184-1.683-2.115-.409-2.3-.773-2.3-2.912V-15.464a31.374,31.374,0,0,1,.368-5.823c.092-.682-.184-1-.644-1a2.442,2.442,0,0,0-1.149.455,11.629,11.629,0,0,1-3.908,1.41c-1.1.182-1.057,1.183-.23,1.5,1.839.728,1.977.91,2.023,1.638a12.153,12.153,0,0,1,.092,2.047V-4.682c0,1.911-.276,2.275-2.253,2.684-1.471.273-1.425,1.683.138,1.683C172.268-.314,173.923-.405,175.21-.405ZM175.3-33.3a2.6,2.6,0,0,0-2.575,2.73,2.416,2.416,0,0,0,2.437,2.548,2.581,2.581,0,0,0,2.575-2.775A2.487,2.487,0,0,0,175.3-33.3Zm17.516,19.7c-1.747-.682-3.126-1.5-3.126-3.594,0-1.547.782-3.094,3.494-3.094a4.169,4.169,0,0,1,3.954,1.956,7.655,7.655,0,0,1,.782,2.32c.23,1.228,1.655,1,1.655-.5a33.327,33.327,0,0,1,.46-5.732c.138-.728-.69-.773-1.241-.364-.276.182-.506.546-.828.773-.138.091-.184.136-.506.045a9.421,9.421,0,0,0-3.034-.5,8.99,8.99,0,0,0-5.517,1.729,5.839,5.839,0,0,0-2.529,4.732c0,3.139,2.575,4.641,4.322,5.323,1.333.5,3.08,1.137,4.414,1.683,1.517.728,2.437,1.729,2.437,3.367q0,3.685-4,3.685c-2.8,0-4.414-1.183-5.241-3.048-.184-.5-.552-1.5-.644-1.774-.414-1.365-1.839-1.092-1.7.318.23,2.275.368,4,.368,5.6,0,1.274,1.149.955,1.655.364.276-.364.506-.273.782-.136A9.077,9.077,0,0,0,192.5.277a9.806,9.806,0,0,0,4.965-1.319c2.667-1.683,3.678-3.776,3.678-6.051,0-2.775-2.161-4.231-4.276-5.1Zm32.366-.773c.506-4,2.667-5.641,5.1-5.641a5.335,5.335,0,0,1,5.471,5.232c0,.227-.046.409-.23.5a55.922,55.922,0,0,1-8.367.409,15.857,15.857,0,0,1-1.7-.091C225.231-14.009,225.185-14.1,225.185-14.373Zm-.138,2.593c8.781,0,11.126-.5,12.965-1,.828-.227,1.747-.819,1.747-1.638,0-.409-.23-.546-.506-.682a7.223,7.223,0,0,0-7.448-7.188,10.117,10.117,0,0,0-6.436,2.593,11.91,11.91,0,0,0-3.954,9.1c0,6.187,3.724,10.783,9.057,10.783a12.064,12.064,0,0,0,8.046-3.139c1.149-1.137.736-2.411-.69-1.547a8.947,8.947,0,0,1-5.149,1.638C228.219-2.862,225.139-5.728,225.047-11.779Zm26.8-6.324c-.414-1-.046-1.228,1.793-1.729,1.241-.273,1.379-1.683-.092-1.638-.736,0-3.126.091-4.046.091-1.333,0-3.08-.091-4.276-.091-1.563,0-1.609,1.365-.322,1.638,1.977.455,2.345.591,3.448,3.048,1.2,2.684,5.793,14.286,6.253,15.833C254.884.1,255.114.5,255.574.5s.69-.409,1.287-1.183c.23-.5,1.057-2.229,1.563-3.5,2.115-5.1,4.689-10.6,6.161-13.558.6-1.183,1.057-1.683,2.9-2.093,1.2-.227,1.149-1.638-.23-1.638-1.057,0-2.575.091-3.77.091-1.471,0-2.391-.091-3.494-.091-1.471,0-1.609,1.365-.184,1.638,2.391.5,2.758.728,1.977,2.73-1.011,2.5-2.9,7.1-4.643,11.374-.138.273-.276.5-.46.045C255.022-9.868,253.367-14.009,251.85-18.1Zm23.815,3.731c.506-4,2.667-5.641,5.1-5.641a5.335,5.335,0,0,1,5.471,5.232c0,.227-.046.409-.23.5a55.922,55.922,0,0,1-8.367.409,15.856,15.856,0,0,1-1.7-.091C275.711-14.009,275.665-14.1,275.665-14.373Zm-.138,2.593c8.781,0,11.126-.5,12.965-1,.828-.227,1.747-.819,1.747-1.638,0-.409-.23-.546-.506-.682a7.223,7.223,0,0,0-7.448-7.188,10.117,10.117,0,0,0-6.436,2.593,11.91,11.91,0,0,0-3.954,9.1c0,6.187,3.724,10.783,9.057,10.783A12.064,12.064,0,0,0,289-2.953c1.149-1.137.736-2.411-.69-1.547a8.947,8.947,0,0,1-5.149,1.638C278.7-2.862,275.619-5.728,275.527-11.779ZM309-22.289c-1.471,0-2.85.728-6.666,4.459a22.9,22.9,0,0,0-.276-3.594c-.092-.5-.322-.864-.69-.864a1.476,1.476,0,0,0-.782.273,39.722,39.722,0,0,1-4.184,2.093c-.736.318-.736,1.092,0,1.365,1.747.546,2.207.864,2.253,1.547a14.9,14.9,0,0,1,.138,3v7.461a17.553,17.553,0,0,1-.138,2.866c-.092,1.092-.184,1.274-2.115,1.774-1.241.318-1.1,1.592.138,1.592,1.1,0,2.3-.091,4.276-.091s3.586.091,4.551.091c1.287,0,1.471-1.274.092-1.547-2.667-.5-3.08-.682-3.172-2-.046-.682-.092-1.592-.092-2.73v-8.963a.951.951,0,0,1,.23-.682c1.471-1.683,2.8-2.184,3.954-2.184a3.185,3.185,0,0,1,2.437,1.137c.69.773.782.864,1.2.864.46,0,.874-.5,1.011-.864A4.555,4.555,0,0,0,311.8-19.7,2.654,2.654,0,0,0,309-22.289Zm12,5.505c1.655,3.549,4.505,10.009,6.712,15.287a.945.945,0,0,1-.046.728c-.782,1.5-1.517,3-2.391,4.641-1.1,1.82-1.655,2.775-2.8,4.55-.828,1.365-1.379,2.275-1.379,2.957,0,.773,1.011,1.638,2.575,1.638a1.115,1.115,0,0,0,1.241-.864c.368-1.137,1.057-3.185,3.264-8.6,4.368-10.328,7.724-17.334,9.241-20.746.782-1.683,1.1-2.138,2.8-2.548,1.655-.364,1.471-1.774-.092-1.729-1.2,0-2.621.091-3.632.091-1.333,0-2.758-.091-3.632-.091-1.517.045-1.517,1.41-.046,1.683,2.3.455,2.529.773,2.069,2.411-.46,1.319-2.437,6.369-4.919,11.783-.092.182-.23.136-.368-.091-1.2-3-3.356-8.189-5.1-12.42-.368-1-.138-1.274,1.655-1.683,1.287-.273,1.241-1.683-.23-1.683-.874,0-2.988.091-3.908.091-1.333,0-3.126-.136-4.276-.091-1.471.045-1.517,1.41-.046,1.638C319.708-19.423,319.938-18.831,321-16.784Zm29.562-1.456c-.276-.773-.138-1.092,2.069-1.638,1.425-.364,1.379-1.638-.092-1.638-.782,0-3.172.136-4.414.136-1.287,0-2.758-.045-4.046-.045-1.471,0-1.563,1.41-.138,1.638,1.977.364,2.253.591,3.08,2.73,1.517,3.958,4.781,13.694,5.425,15.651.322,1.137.6,1.82,1.057,1.82.644,0,.965-.728,1.287-1.319.46-.637,4.46-10.419,5.563-12.966.23-.455.368-.546.644-.045.874,2.138,4.23,10.692,5.287,13.467,0,.045.322.864.874.864.644,0,1.2-1.092,1.655-2.138,1.609-4.095,5.471-14.058,6.62-16.47.46-.864.644-1.183,2.621-1.638,1.241-.227,1.333-1.638-.138-1.638-1.011,0-2.253.091-3.356.091-1.793,0-3.724-.136-4.46-.091-1.287.045-1.333,1.41-.138,1.592,2.667.455,2.988.773,2.8,1.774-.368,1.683-3.034,8.826-4.322,12.147-.23.591-.368.728-.644.182-.919-2.138-3.448-8.508-4.46-11.419-.69-2-.828-2.821-1.057-3.594-.092-.409-.644-.409-1.1.045a3.87,3.87,0,0,0-.828,1.228c-.69,1.956-4.092,10.646-5.425,13.785-.138.227-.276.182-.322,0C353.592-8.686,351.385-15.009,350.557-18.24Zm38.343,1.5a6.717,6.717,0,0,1,5.2-2.5c3.034,0,5.241,1.319,5.241,5.96v5.6c0,2.775-.046,3.685-.092,4.095-.092,1-.46,1.319-2.023,1.683-1.471.318-1.287,1.592.23,1.592,1.793,0,2.483-.091,3.77-.091,1.149,0,2.575.091,3.54.091,1.747,0,1.609-1.365.046-1.638-1.609-.318-1.885-.728-1.931-1.638-.046-.728-.046-1.092-.046-1.592v-9.827c0-3.822-2.115-7.279-6.528-7.279a7.6,7.6,0,0,0-3.678,1,24,24,0,0,0-3.586,2.457c-.276.227-.368.136-.368-.045V-30.751a23.7,23.7,0,0,1,.368-5.369.665.665,0,0,0-.6-.864,3.35,3.35,0,0,0-1.563.591,12.1,12.1,0,0,1-4.322,1.365c-1.563.182-1.241,1.456-.23,1.547,2.391.5,2.667.728,2.758,1.729.092,1.046.092,2,.092,5V-8.777c0,2.32,0,3.185-.092,4.823-.092,1.5-.46,1.729-1.839,2-1.7.273-1.7,1.638,0,1.638,1.1,0,1.931-.091,3.678-.091,1.7,0,2.8.091,3.862.091,1.379,0,1.563-1.365,0-1.638-1.839-.364-1.931-.728-2.023-1.956-.046-.546-.092-1.911-.092-4.277V-15.51C388.67-16.238,388.67-16.465,388.9-16.738Zm26.435,2.366c.506-4,2.667-5.641,5.1-5.641a5.335,5.335,0,0,1,5.471,5.232c0,.227-.046.409-.23.5a55.922,55.922,0,0,1-8.367.409,15.856,15.856,0,0,1-1.7-.091C415.381-14.009,415.335-14.1,415.335-14.373Zm-.138,2.593c8.781,0,11.126-.5,12.965-1,.828-.227,1.747-.819,1.747-1.638,0-.409-.23-.546-.506-.682a7.223,7.223,0,0,0-7.448-7.188,10.117,10.117,0,0,0-6.436,2.593,11.91,11.91,0,0,0-3.954,9.1c0,6.187,3.724,10.783,9.057,10.783a12.064,12.064,0,0,0,8.046-3.139c1.149-1.137.736-2.411-.69-1.547a8.947,8.947,0,0,1-5.149,1.638C418.37-2.862,415.289-5.728,415.2-11.779Zm33.469-10.51c-1.471,0-2.85.728-6.666,4.459a22.9,22.9,0,0,0-.276-3.594c-.092-.5-.322-.864-.69-.864a1.476,1.476,0,0,0-.782.273,39.722,39.722,0,0,1-4.184,2.093c-.736.318-.736,1.092,0,1.365,1.747.546,2.207.864,2.253,1.547a14.9,14.9,0,0,1,.138,3v7.461a17.553,17.553,0,0,1-.138,2.866c-.092,1.092-.184,1.274-2.115,1.774-1.241.318-1.1,1.592.138,1.592,1.1,0,2.3-.091,4.276-.091s3.586.091,4.551.091c1.287,0,1.471-1.274.092-1.547-2.667-.5-3.08-.682-3.172-2-.046-.682-.092-1.592-.092-2.73v-8.963a.951.951,0,0,1,.23-.682c1.471-1.683,2.8-2.184,3.954-2.184a3.185,3.185,0,0,1,2.437,1.137c.69.773.782.864,1.2.864.46,0,.874-.5,1.011-.864a4.555,4.555,0,0,0,.644-2.411A2.654,2.654,0,0,0,448.667-22.289Zm11.218,7.916c.506-4,2.667-5.641,5.1-5.641a5.335,5.335,0,0,1,5.471,5.232c0,.227-.046.409-.23.5a55.921,55.921,0,0,1-8.367.409,15.856,15.856,0,0,1-1.7-.091C459.931-14.009,459.885-14.1,459.885-14.373Zm-.138,2.593c8.781,0,11.126-.5,12.965-1,.828-.227,1.747-.819,1.747-1.638,0-.409-.23-.546-.506-.682a7.223,7.223,0,0,0-7.448-7.188,10.117,10.117,0,0,0-6.436,2.593,11.91,11.91,0,0,0-3.954,9.1c0,6.187,3.724,10.783,9.057,10.783a12.064,12.064,0,0,0,8.046-3.139c1.149-1.137.736-2.411-.69-1.547a8.947,8.947,0,0,1-5.149,1.638C462.919-2.862,459.839-5.728,459.747-11.779Z" transform="translate(-2.459 36.984)" fill="url(#linear-gradient)"/>
</svg>
