<svg width="53" height="25" viewBox="0 0 53 25" fill="none" xmlns="http://www.w3.org/2000/svg">
<path d="M7.23 22H5.31L2.2 16.6H2.16C2.16667 16.7667 2.17333 16.9367 2.18 17.11C2.18667 17.2767 2.19333 17.4467 2.2 17.62C2.21333 17.7867 2.22333 17.9567 2.23 18.13C2.23667 18.2967 2.24333 18.4667 2.25 18.64V22H0.9V14.86H2.81L5.91 20.21H5.94C5.93333 20.0433 5.92667 19.88 5.92 19.72C5.91333 19.5533 5.90667 19.39 5.9 19.23C5.9 19.0633 5.89667 18.9 5.89 18.74C5.88333 18.5733 5.87667 18.4067 5.87 18.24V14.86H7.23V22ZM13.1448 22H9.03477V14.86H13.1448V16.1H10.5448V17.67H12.9648V18.91H10.5448V20.75H13.1448V22ZM20.4005 22H18.6705L17.0105 19.3L15.3505 22H13.7305L16.1005 18.32L13.8805 14.86H15.5505L17.0905 17.43L18.6005 14.86H20.2305L17.9905 18.4L20.4005 22ZM24.0504 22H22.5404V16.12H20.6004V14.86H25.9904V16.12H24.0504V22Z" fill="#1A442D"/>
<path d="M33 1L49 11L0 11" stroke="#1A442D" stroke-width="2"/>
</svg>
