<svg xmlns="http://www.w3.org/2000/svg" xmlns:xlink="http://www.w3.org/1999/xlink" width="54" height="451" viewBox="0 0 54 451">
  <defs>
    <linearGradient id="linear-gradient" x1="0.5" y1="1" x2="0.5" gradientUnits="objectBoundingBox">
      <stop offset="0" stop-color="#efd8d0"/>
      <stop offset="1" stop-color="#d2e6ea"/>
    </linearGradient>
    <linearGradient id="linear-gradient-2" y1="0" y2="1" xlink:href="#linear-gradient"/>
  </defs>
  <g id="グループ_85" data-name="グループ 85" transform="translate(-15 -3137)">
    <g id="_1" data-name="1" transform="translate(-405 1041)">
      <path id="パス_12" data-name="パス 12" d="M1.84,0Q1.7,0,1.7-.26q0-.24.14-.24H2.1q2.5,0,2.5-1.6v-8.74a2.748,2.748,0,0,0-.17-1.14.792.792,0,0,0-.56-.43,6.582,6.582,0,0,0-1.31-.09H1.9q-.14,0-.14-.26a.607.607,0,0,1,.02-.18Q1.8-13,1.9-13a10.811,10.811,0,0,0,5.02-1.8l.1-.04q.1,0,.1.14V-2.1A1.265,1.265,0,0,0,7.83-.83,4.25,4.25,0,0,0,9.62-.5h.24Q10-.5,10-.26,10,0,9.86,0Z" transform="translate(441 2131)" fill="#0d0d0d"/>
      <path id="楕円形_2" data-name="楕円形 2" d="M27,52.22A25.227,25.227,0,0,1,17.184,3.761,25.227,25.227,0,0,1,36.816,50.239,25.06,25.06,0,0,1,27,52.22M27,54A27,27,0,1,0,0,27,27,27,0,0,0,27,54Z" transform="translate(420 2096)" fill="url(#linear-gradient)"/>
    </g>
    <g id="_2" data-name="2" transform="translate(-405 1077)">
      <path id="楕円形_2-2" data-name="楕円形 2" d="M27,1.78a25.227,25.227,0,0,0-9.816,48.458A25.227,25.227,0,0,0,36.816,3.761,25.06,25.06,0,0,0,27,1.78M27,0A27,27,0,1,1,0,27,27,27,0,0,1,27,0Z" transform="translate(420 2267)" fill="url(#linear-gradient-2)"/>
      <path id="パス_13" data-name="パス 13" d="M11.32-4.08q-.06.34-.37,1.53T10.52-.86l-.18.72a.157.157,0,0,1-.18.14H1.38a.185.185,0,0,1-.2-.12L1.12-.26a.26.26,0,0,1,0-.2,10.01,10.01,0,0,1,1.61-2.8q1.05-1.3,2.79-3.1Q6.6-7.5,7.17-8.23a6.365,6.365,0,0,0,.88-1.48,4.333,4.333,0,0,0,.31-1.67,2.949,2.949,0,0,0-.69-2.06A2.525,2.525,0,0,0,5.7-14.2a2.944,2.944,0,0,0-1.56.39,1.185,1.185,0,0,0-.64,1.05.813.813,0,0,0,.12.46,2.909,2.909,0,0,0,.36.42,2.72,2.72,0,0,1,.39.47,1.033,1.033,0,0,1,.13.55,1.237,1.237,0,0,1-.41.98,1.5,1.5,0,0,1-1.03.36,1.265,1.265,0,0,1-.67-.22,1.715,1.715,0,0,1-.58-.63,1.951,1.951,0,0,1-.23-.97,2.992,2.992,0,0,1,.56-1.69,4.148,4.148,0,0,1,1.6-1.36,5.215,5.215,0,0,1,2.4-.53,6.149,6.149,0,0,1,2.63.52,3.862,3.862,0,0,1,1.68,1.42,3.732,3.732,0,0,1,.57,2.04,3.684,3.684,0,0,1-.44,1.84A4.672,4.672,0,0,1,9.47-7.77q-.67.55-1.85,1.33-.84.56-1.28.88A12.8,12.8,0,0,0,3.04-2.1h3a13.834,13.834,0,0,0,2.49-.17A2.889,2.889,0,0,0,9.92-2.9a4.454,4.454,0,0,0,.98-1.42.123.123,0,0,1,.14-.1.307.307,0,0,1,.12.04,1.11,1.11,0,0,1,.15.07.1.1,0,0,1,.05.09A.459.459,0,0,1,11.32-4.08Z" transform="translate(441 2302)" fill="#0d0d0d"/>
    </g>
    <g id="_3" data-name="3" transform="translate(-405 1096)">
      <path id="パス_14" data-name="パス 14" d="M7.02-7.84a6.259,6.259,0,0,1,3.12,1.33A3.173,3.173,0,0,1,11.32-4a3.435,3.435,0,0,1-.82,2.29A5.115,5.115,0,0,1,8.37-.24a7.646,7.646,0,0,1-2.75.5A6.272,6.272,0,0,1,3.17-.19,4.014,4.014,0,0,1,1.51-1.4,2.6,2.6,0,0,1,.92-3.02a1.39,1.39,0,0,1,.45-1.11,1.479,1.479,0,0,1,.99-.39,1.748,1.748,0,0,1,1.05.31,1.072,1.072,0,0,1,.43.93.977.977,0,0,1-.09.44,2.867,2.867,0,0,1-.29.44.908.908,0,0,0-.32.62,1.066,1.066,0,0,0,.63.98,3.569,3.569,0,0,0,1.69.34A2.586,2.586,0,0,0,7.69-1.52a4.339,4.339,0,0,0,.77-2.62A3.637,3.637,0,0,0,7.7-6.55a2.877,2.877,0,0,0-2.34-.91,2.972,2.972,0,0,0-.44.04,3.066,3.066,0,0,1-.46.04.545.545,0,0,1-.37-.13.44.44,0,0,1-.15-.35.369.369,0,0,1,.15-.3.574.574,0,0,1,.37-.12,4.376,4.376,0,0,1,.52.04l.5.02A2.7,2.7,0,0,0,7.21-8.8a3,3,0,0,0,.73-2.4,3.163,3.163,0,0,0-.71-2.33,2.439,2.439,0,0,0-1.77-.69,2.264,2.264,0,0,0-1.17.3.946.946,0,0,0-.51.86,1.239,1.239,0,0,0,.24.68,1.313,1.313,0,0,1,.26.74,1.17,1.17,0,0,1-.32.85,1.169,1.169,0,0,1-.88.33,1.381,1.381,0,0,1-1.05-.41,1.632,1.632,0,0,1-.39-1.17,2.164,2.164,0,0,1,.55-1.36,4.013,4.013,0,0,1,1.5-1.11,5.009,5.009,0,0,1,2.09-.43,6.9,6.9,0,0,1,2.44.42,4.16,4.16,0,0,1,1.79,1.23,2.932,2.932,0,0,1,.67,1.93,3.193,3.193,0,0,1-.92,2.27A4.621,4.621,0,0,1,7.02-7.84Z" transform="translate(441 2473)" fill="#0d0d0d"/>
      <path id="楕円形_2-3" data-name="楕円形 2" d="M27,52.22A25.227,25.227,0,0,1,17.184,3.761,25.227,25.227,0,0,1,36.816,50.239,25.06,25.06,0,0,1,27,52.22M27,54A27,27,0,1,0,0,27,27,27,0,0,0,27,54Z" transform="translate(420 2438)" fill="url(#linear-gradient)"/>
    </g>
    <path id="線_28" data-name="線 28" d="M.52,154.1H-1.5V0H.52Z" transform="translate(42.49 3190)" fill="#efd8d0"/>
    <path id="線_28-2" data-name="線 28" d="M.51,137.783H-1.5V0H.51Z" transform="translate(42.495 3397)" fill="#d2e6ea"/>
  </g>
</svg>
