<svg xmlns="http://www.w3.org/2000/svg" xmlns:xlink="http://www.w3.org/1999/xlink" width="91" height="433" viewBox="0 0 91 433">
  <defs>
    <linearGradient id="linear-gradient" x1="0.5" x2="0.5" y2="1" gradientUnits="objectBoundingBox">
      <stop offset="0" stop-color="#efd8d0"/>
      <stop offset="1" stop-color="#d2e6ea"/>
    </linearGradient>
    <linearGradient id="linear-gradient-2" y1="1" y2="0" xlink:href="#linear-gradient"/>
  </defs>
  <g id="ナンバリング" transform="translate(-420 -2096)">
    <g id="_2" data-name="2">
      <path id="楕円形_2" data-name="楕円形 2" d="M45.5,3A42.512,42.512,0,0,0,28.958,84.661,42.512,42.512,0,0,0,62.042,6.339,42.231,42.231,0,0,0,45.5,3m0-3A45.5,45.5,0,1,1,0,45.5,45.5,45.5,0,0,1,45.5,0Z" transform="translate(420 2267)" fill="url(#linear-gradient)"/>
      <path id="パス_16" data-name="パス 16" d="M19.244-6.936q-.1.578-.629,2.6t-.731,2.873L17.578-.238A.266.266,0,0,1,17.272,0H2.346a.314.314,0,0,1-.34-.2L1.9-.442a.442.442,0,0,1,0-.34,17.016,17.016,0,0,1,2.737-4.76q1.785-2.21,4.743-5.27,1.836-1.938,2.805-3.179a10.821,10.821,0,0,0,1.5-2.516,7.366,7.366,0,0,0,.527-2.839,5.013,5.013,0,0,0-1.173-3.5A4.293,4.293,0,0,0,9.69-24.14a5.005,5.005,0,0,0-2.652.663A2.014,2.014,0,0,0,5.95-21.692a1.383,1.383,0,0,0,.2.782,4.945,4.945,0,0,0,.612.714,4.623,4.623,0,0,1,.663.8,1.757,1.757,0,0,1,.221.935,2.1,2.1,0,0,1-.7,1.666,2.557,2.557,0,0,1-1.751.612,2.15,2.15,0,0,1-1.139-.374,2.916,2.916,0,0,1-.986-1.071,3.317,3.317,0,0,1-.391-1.649,5.087,5.087,0,0,1,.952-2.873,7.051,7.051,0,0,1,2.72-2.312,8.865,8.865,0,0,1,4.08-.9,10.454,10.454,0,0,1,4.471.884,6.565,6.565,0,0,1,2.856,2.414,6.344,6.344,0,0,1,.969,3.468,6.263,6.263,0,0,1-.748,3.128A7.942,7.942,0,0,1,16.1-13.209q-1.139.935-3.145,2.261-1.428.952-2.176,1.5A21.768,21.768,0,0,0,5.168-3.57h5.1A23.518,23.518,0,0,0,14.5-3.859,4.912,4.912,0,0,0,16.864-4.93,7.571,7.571,0,0,0,18.53-7.344a.209.209,0,0,1,.238-.17.522.522,0,0,1,.2.068,1.887,1.887,0,0,1,.255.119.167.167,0,0,1,.085.153A.78.78,0,0,1,19.244-6.936Z" transform="translate(455 2326)" fill="#0d0d0d"/>
    </g>
    <g id="_3" data-name="3">
      <path id="パス_17" data-name="パス 17" d="M11.934-13.328a10.641,10.641,0,0,1,5.3,2.261A5.394,5.394,0,0,1,19.244-6.8,5.839,5.839,0,0,1,17.85-2.907a8.7,8.7,0,0,1-3.621,2.5,13,13,0,0,1-4.675.85A10.663,10.663,0,0,1,5.389-.323,6.823,6.823,0,0,1,2.567-2.38a4.414,4.414,0,0,1-1-2.754,2.362,2.362,0,0,1,.765-1.887,2.514,2.514,0,0,1,1.683-.663A2.971,2.971,0,0,1,5.8-7.157a1.822,1.822,0,0,1,.731,1.581,1.66,1.66,0,0,1-.153.748,4.874,4.874,0,0,1-.493.748,1.543,1.543,0,0,0-.544,1.054A1.812,1.812,0,0,0,6.409-1.36a6.068,6.068,0,0,0,2.873.578,4.4,4.4,0,0,0,3.791-1.8,7.376,7.376,0,0,0,1.309-4.454,6.183,6.183,0,0,0-1.292-4.1,4.89,4.89,0,0,0-3.978-1.547,5.052,5.052,0,0,0-.748.068,5.213,5.213,0,0,1-.782.068.927.927,0,0,1-.629-.221.747.747,0,0,1-.255-.6.628.628,0,0,1,.255-.51.975.975,0,0,1,.629-.2,7.439,7.439,0,0,1,.884.068l.85.034a4.585,4.585,0,0,0,2.941-.986q1.241-.986,1.241-4.08A5.377,5.377,0,0,0,12.291-23a4.146,4.146,0,0,0-3.009-1.173,3.849,3.849,0,0,0-1.989.51A1.608,1.608,0,0,0,6.426-22.2a2.107,2.107,0,0,0,.408,1.156,2.232,2.232,0,0,1,.442,1.258,1.989,1.989,0,0,1-.544,1.445,1.987,1.987,0,0,1-1.5.561,2.347,2.347,0,0,1-1.785-.7,2.774,2.774,0,0,1-.663-1.989,3.679,3.679,0,0,1,.935-2.312,6.823,6.823,0,0,1,2.55-1.887A8.516,8.516,0,0,1,9.826-25.4a11.723,11.723,0,0,1,4.148.714,7.072,7.072,0,0,1,3.043,2.091,4.984,4.984,0,0,1,1.139,3.281,5.429,5.429,0,0,1-1.564,3.859A7.855,7.855,0,0,1,11.934-13.328Z" transform="translate(455 2497)" fill="#0d0d0d"/>
      <path id="楕円形_2-2" data-name="楕円形 2" d="M45.5,88A42.512,42.512,0,0,1,28.958,6.339,42.512,42.512,0,0,1,62.042,84.661,42.231,42.231,0,0,1,45.5,88m0,3A45.5,45.5,0,1,0,0,45.5,45.5,45.5,0,0,0,45.5,91Z" transform="translate(420 2438)" fill="url(#linear-gradient-2)"/>
    </g>
    <g id="_1" data-name="1">
      <path id="パス_15" data-name="パス 15" d="M3.128,0Q2.89,0,2.89-.442q0-.408.238-.408H3.57q4.25,0,4.25-2.72V-18.428a4.672,4.672,0,0,0-.289-1.938,1.346,1.346,0,0,0-.952-.731,11.19,11.19,0,0,0-2.227-.153H3.23q-.238,0-.238-.442A1.031,1.031,0,0,1,3.026-22q.034-.1.2-.1a18.378,18.378,0,0,0,8.534-3.06l.17-.068q.17,0,.17.238V-3.57a2.15,2.15,0,0,0,1.207,2.159,7.225,7.225,0,0,0,3.043.561h.408Q17-.85,17-.442,17,0,16.762,0Z" transform="translate(456 2155)" fill="#0d0d0d"/>
      <path id="楕円形_2-3" data-name="楕円形 2" d="M45.5,88A42.512,42.512,0,0,1,28.958,6.339,42.512,42.512,0,0,1,62.042,84.661,42.231,42.231,0,0,1,45.5,88m0,3A45.5,45.5,0,1,0,0,45.5,45.5,45.5,0,0,0,45.5,91Z" transform="translate(420 2096)" fill="url(#linear-gradient-2)"/>
    </g>
    <path id="線_28" data-name="線 28" d="M2.516,80.312H-1.5V0H2.516Z" transform="translate(464.992 2186.85)" fill="#efd8d0"/>
    <path id="線_28-2" data-name="線 28" d="M2.507,80.316H-1.5V0H2.507Z" transform="translate(464.996 2357.873)" fill="#d2e6ea"/>
  </g>
</svg>
