<svg width="53" height="25" viewBox="0 0 53 25" fill="none" xmlns="http://www.w3.org/2000/svg">
<path d="M29.18 14.86C30.1 14.86 30.77 15.06 31.19 15.46C31.6167 15.8533 31.83 16.3967 31.83 17.09C31.83 17.4033 31.7833 17.7033 31.69 17.99C31.5967 18.27 31.44 18.5233 31.22 18.75C31.0067 18.97 30.7233 19.1433 30.37 19.27C30.0167 19.3967 29.58 19.46 29.06 19.46H28.41V22H26.9V14.86H29.18ZM29.1 16.1H28.41V18.22H28.91C29.1967 18.22 29.4433 18.1833 29.65 18.11C29.8567 18.0367 30.0167 17.92 30.13 17.76C30.2433 17.6 30.3 17.3933 30.3 17.14C30.3 16.7867 30.2033 16.5267 30.01 16.36C29.8167 16.1867 29.5133 16.1 29.1 16.1ZM35.2593 14.86C35.906 14.86 36.4393 14.94 36.8593 15.1C37.2793 15.2533 37.5926 15.49 37.7993 15.81C38.006 16.1233 38.1093 16.52 38.1093 17C38.1093 17.3267 38.046 17.6133 37.9193 17.86C37.7993 18.1 37.636 18.3067 37.4293 18.48C37.2293 18.6467 37.0126 18.7833 36.7793 18.89L38.8793 22H37.1993L35.4993 19.26H34.6893V22H33.1793V14.86H35.2593ZM35.1493 16.1H34.6893V18.03H35.1793C35.5126 18.03 35.7826 17.9933 35.9893 17.92C36.196 17.8467 36.346 17.7367 36.4393 17.59C36.5326 17.4367 36.5793 17.2533 36.5793 17.04C36.5793 16.8133 36.526 16.6333 36.4193 16.5C36.3193 16.36 36.1626 16.26 35.9493 16.2C35.7426 16.1333 35.476 16.1 35.1493 16.1ZM43.8909 22H39.7809V14.86H43.8909V16.1H41.2909V17.67H43.7109V18.91H41.2909V20.75H43.8909V22ZM50.9766 14.86L48.5466 22H46.8966L44.4766 14.86H46.0066L47.3466 19.11C47.3732 19.1833 47.4099 19.32 47.4566 19.52C47.5099 19.7133 47.5632 19.92 47.6166 20.14C47.6699 20.3533 47.7066 20.5333 47.7266 20.68C47.7466 20.5333 47.7799 20.3533 47.8266 20.14C47.8799 19.92 47.9332 19.7133 47.9866 19.52C48.0399 19.32 48.0766 19.1833 48.0966 19.11L49.4466 14.86H50.9766Z" fill="#1A442D"/>
<path d="M20 1L4 11H53" stroke="#1A442D" stroke-width="2"/>
</svg>
