<svg width="158" height="27" viewBox="0 0 158 27" fill="none" xmlns="http://www.w3.org/2000/svg">
<path d="M14.5322 19C14.5322 18.6406 14.4349 18.446 14.2402 18.416C14.1654 18.401 14.083 18.3936 13.9932 18.3936H13.3193L8.01855 5.52344H6.35645L1.4375 18.3936H0L0 19H4.13281C4.13281 18.6406 4.03548 18.446 3.84082 18.416C3.76595 18.401 3.68359 18.3936 3.59375 18.3936H2.33594L3.95313 14.0811L8.42285 14.0811L10.1074 18.3936H8.5127V19L14.5322 19ZM8.15332 13.4072L4.22266 13.4072L6.1543 8.24121L8.15332 13.4072ZM21.6973 19.2246C23.1647 19.2246 24.3402 18.6706 25.2236 17.5625C26.0023 16.5892 26.3916 15.3538 26.3916 13.8564C26.3916 11.9098 25.7852 10.5098 24.5723 9.65625C23.9434 9.22201 23.2471 9.00488 22.4834 9.00488C20.9411 9.01986 19.7806 9.78353 19.002 11.2959L19.002 4.40039H14.8691V5.00684H16.1494L16.1494 17.2256C16.1494 17.8695 15.9023 18.2438 15.4082 18.3486C15.2435 18.3786 15.0638 18.3936 14.8691 18.3936V19H18.3057L18.4854 17.4277C19.279 18.6107 20.3496 19.2096 21.6973 19.2246ZM21.3828 10.083C22.6706 10.113 23.3145 11.4756 23.3145 14.1709C23.2995 17.1208 22.6032 18.6032 21.2256 18.6182C20.2523 18.6182 19.5934 17.9743 19.249 16.6865C19.0843 16.0876 19.002 15.3913 19.002 14.5977C19.002 12.5462 19.4362 11.1686 20.3047 10.4648C20.6341 10.2103 20.9935 10.083 21.3828 10.083ZM30.7715 14.126C30.7715 12.0296 31.026 10.6895 31.5352 10.1055C31.8496 9.76107 32.2913 9.58887 32.8604 9.58887C33.8187 9.58887 34.4326 10.0755 34.7021 11.0488C34.8818 11.6777 34.9717 12.6735 34.9717 14.0361C34.9717 16.2223 34.6872 17.5999 34.1182 18.1689C33.7887 18.4834 33.362 18.6406 32.8379 18.6406C31.9095 18.6406 31.3105 18.1615 31.041 17.2031C30.8613 16.5592 30.7715 15.5335 30.7715 14.126ZM32.9727 9.00488C31.1309 9.00488 29.7158 9.63379 28.7275 10.8916C28.0387 11.79 27.6943 12.8382 27.6943 14.0361C27.6943 15.7282 28.2783 17.0684 29.4463 18.0566C30.3747 18.8353 31.4827 19.2246 32.7705 19.2246C34.5374 19.2246 35.9225 18.5882 36.9258 17.3154C37.6745 16.3571 38.0488 15.249 38.0488 13.9912C38.0488 12.3141 37.4574 11.0039 36.2744 10.0605C35.361 9.35677 34.2604 9.00488 32.9727 9.00488ZM50.3574 18.416H49.5938V9.3418H45.6406V9.92578H46.7412L46.7188 15.5859C46.6139 16.7539 46.1872 17.5251 45.4385 17.8994C45.2139 18.0042 44.9893 18.0566 44.7646 18.0566C43.9111 18.0566 43.4095 17.555 43.2598 16.5518C43.2298 16.3571 43.2148 16.1549 43.2148 15.9453V9.3418H39.0596V9.92578H40.3623V15.5635C40.3923 17.9893 41.4629 19.2096 43.5742 19.2246C44.9219 19.2246 45.9476 18.6257 46.6514 17.4277C46.6963 17.3379 46.7412 17.248 46.7861 17.1582L46.8984 19H50.8965C50.8965 18.6706 50.8066 18.4834 50.627 18.4385C50.5521 18.4235 50.4622 18.416 50.3574 18.416ZM51.6826 10.0381H53.2324V15.6533C53.2324 17.8245 54.1309 19.015 55.9277 19.2246C56.1074 19.2396 56.2871 19.2471 56.4668 19.2471C57.6198 19.2471 58.4134 18.8727 58.8477 18.124C59.0573 17.7497 59.222 17.2555 59.3418 16.6416L58.7354 16.5518C58.4359 17.7646 57.9941 18.431 57.4102 18.5508C57.3203 18.5658 57.2305 18.5732 57.1406 18.5732C56.5866 18.5732 56.2497 18.1839 56.1299 17.4053C56.0999 17.2256 56.085 17.0384 56.085 16.8437V10.0381H59.0498V9.4541H56.085V6.84863L53.2324 7.32031V9.4541H51.6826V10.0381ZM68.8428 18.416H68.4385L68.4609 12.6211C68.5508 11.4382 68.9401 10.667 69.6289 10.3076C69.8236 10.2028 70.0182 10.1504 70.2129 10.1504C70.7669 10.1504 71.1637 10.4948 71.4033 11.1836C71.5081 11.513 71.5605 11.8799 71.5605 12.2842V17.248C71.5605 17.862 71.4183 18.2288 71.1338 18.3486C70.999 18.3936 70.8118 18.416 70.5723 18.416V19H75.334C75.334 18.6556 75.2367 18.4684 75.042 18.4385C74.9521 18.4235 74.8623 18.416 74.7725 18.416H74.3906V12.666V12.5088C74.4954 11.266 74.8997 10.4948 75.6035 10.1953C75.7533 10.1354 75.903 10.1055 76.0527 10.1055C76.6966 10.1055 77.1383 10.4873 77.3779 11.251C77.4678 11.5654 77.5127 11.9098 77.5127 12.2842V17.248C77.5127 17.862 77.3704 18.2288 77.0859 18.3486C76.9512 18.3936 76.764 18.416 76.5244 18.416V19L81.6455 19C81.6455 18.6556 81.5482 18.4684 81.3535 18.4385C81.2637 18.4235 81.1738 18.416 81.084 18.416H80.3428V12.5537C80.3428 11.0863 79.8561 10.0456 78.8828 9.43164C78.4336 9.14714 77.9469 9.00488 77.4229 9.00488C75.9704 9.01986 74.8848 9.71615 74.166 11.0937C73.8066 10.0306 73.1702 9.36426 72.2568 9.09473C72.0173 9.03483 71.7777 9.00488 71.5381 9.00488C70.1006 9.01986 69.0524 9.67871 68.3936 10.9814L68.2812 9.3418H64.2832V9.92578H65.5859V17.248C65.5859 17.9368 65.264 18.3187 64.6201 18.3936C64.5153 18.4085 64.403 18.416 64.2832 18.416V19H69.3818C69.3818 18.6556 69.2845 18.4684 69.0898 18.4385C69.015 18.4235 68.9326 18.416 68.8428 18.416ZM87.6875 9.58887C88.6458 9.61882 89.1325 10.4349 89.1475 12.0371C89.1475 12.7409 88.9378 13.1751 88.5186 13.3398C88.2191 13.4447 87.7699 13.4821 87.1709 13.4521L85.7334 13.3848C85.8382 10.8991 86.4896 9.63379 87.6875 9.58887ZM91.8877 16.6865L91.3486 16.5068C90.9294 17.4202 90.2705 18.0417 89.3721 18.3711C89.0127 18.5059 88.6458 18.5732 88.2715 18.5732C87.0736 18.5732 86.3024 17.8096 85.958 16.2822C85.8232 15.6533 85.7484 14.9046 85.7334 14.0361L87.7998 14.1035C90.2106 14.1784 91.6107 13.7965 92 12.958C92.0898 12.7484 92.1348 12.5163 92.1348 12.2617C92.1348 10.9889 91.4834 10.0605 90.1807 9.47656C89.4469 9.16211 88.6159 9.00488 87.6875 9.00488C85.9954 9.00488 84.6777 9.58138 83.7344 10.7344C83.0156 11.6328 82.6562 12.7484 82.6562 14.0811C82.6562 16.2523 83.4723 17.7646 85.1045 18.6182C85.8831 19.0225 86.7666 19.2246 87.7549 19.2246C89.5068 19.2246 90.7646 18.6107 91.5283 17.3828C91.6781 17.1582 91.7979 16.9261 91.8877 16.6865ZM96.4023 17.54C96.4023 16.9111 96.1178 16.4395 95.5488 16.125C95.3092 16.0052 95.0622 15.9453 94.8076 15.9453C94.1787 15.9453 93.7145 16.2298 93.415 16.7988C93.2952 17.0384 93.2354 17.2855 93.2354 17.54C93.2354 18.1839 93.5199 18.6481 94.0889 18.9326C94.3135 19.0524 94.5531 19.1123 94.8076 19.1123C95.4515 19.1123 95.9232 18.8428 96.2227 18.3037C96.3424 18.0641 96.4023 17.8096 96.4023 17.54Z" fill="#454545"/>
<path d="M140 4L156 14L107 14" stroke="#454545"/>
</svg>
