<svg width="182" height="27" viewBox="0 0 182 27" fill="none" xmlns="http://www.w3.org/2000/svg">
<path d="M7.1875 19C7.09766 18.6257 6.89551 18.4235 6.58105 18.3936H5.39063L5.39063 6.12988H7.1875V5.52344L0.449219 5.52344L0.449219 6.12988H2.24609L2.24609 18.3936H0.449219L0.449219 19H7.1875ZM12.6904 14.1484C12.6904 16.3346 13.5215 17.8395 15.1836 18.6631C15.9622 19.0374 16.8532 19.2246 17.8564 19.2246C19.4137 19.2246 20.6117 18.7529 21.4502 17.8096C21.7347 17.4801 21.9518 17.1208 22.1016 16.7314L21.5176 16.5742C21.0983 17.4727 20.387 18.0791 19.3838 18.3936C18.9945 18.5133 18.6051 18.5732 18.2158 18.5732C17.1826 18.5732 16.4938 18.109 16.1494 17.1807C15.8949 16.4919 15.7676 15.5186 15.7676 14.2607C15.7676 11.7451 16.1644 10.2477 16.958 9.76855C17.1976 9.63379 17.4821 9.56641 17.8115 9.56641C18.4704 9.56641 18.8747 9.87337 19.0244 10.4873C19.0544 10.6071 19.0918 10.8092 19.1367 11.0937C19.2266 11.7826 19.4063 12.2243 19.6758 12.4189C19.8854 12.5687 20.1699 12.6436 20.5293 12.6436C21.293 12.6436 21.7646 12.359 21.9443 11.79C21.9743 11.6702 21.9893 11.5505 21.9893 11.4307C21.9893 10.7718 21.5924 10.1953 20.7988 9.70117C20.0202 9.23698 19.0469 9.00488 17.8789 9.00488C16.2917 9.00488 15.0039 9.52148 14.0156 10.5547C13.1322 11.4831 12.6904 12.681 12.6904 14.1484ZM30.9287 19.2246C32.0218 19.2246 32.7031 18.8278 32.9727 18.0342C33.0625 17.7347 33.1299 17.3529 33.1748 16.8887L32.5908 16.8662C32.501 17.8994 32.2389 18.4235 31.8047 18.4385C31.4753 18.4085 31.3105 18.0342 31.3105 17.3154V12.6211C31.3105 10.7493 30.4421 9.59635 28.7051 9.16211C28.2559 9.05729 27.7692 9.00488 27.2451 9.00488C25.2087 9.00488 23.9284 9.44661 23.4043 10.3301C23.2695 10.5547 23.2021 10.7943 23.2021 11.0488C23.2021 11.6328 23.4792 11.9997 24.0332 12.1494C24.168 12.1943 24.3102 12.2168 24.46 12.2168C25.1038 12.2168 25.5381 11.9023 25.7627 11.2734C25.7926 11.1836 25.8376 11.0339 25.8975 10.8242C26.0622 10.2253 26.2718 9.85091 26.5264 9.70117C26.6911 9.6263 26.8783 9.58887 27.0879 9.58887C27.7917 9.58887 28.2184 10.0156 28.3682 10.8691C28.4281 11.1836 28.458 11.5579 28.458 11.9922V13.4521C24.6097 13.527 22.6781 14.5452 22.6631 16.5068C22.6631 17.8395 23.2471 18.693 24.415 19.0674C24.7594 19.1722 25.1413 19.2246 25.5605 19.2246C26.8333 19.2246 27.7692 18.7454 28.3682 17.7871C28.488 17.5924 28.5853 17.3903 28.6602 17.1807C28.9746 18.4684 29.7308 19.1497 30.9287 19.2246ZM26.7285 18.2588C25.9798 18.2288 25.598 17.5625 25.583 16.2598C25.583 15.2715 25.9873 14.6276 26.7959 14.3281C27.2301 14.1934 27.7842 14.111 28.458 14.0811V16.2598C28.1735 17.3079 27.7168 17.9518 27.0879 18.1914C26.9531 18.2363 26.8333 18.2588 26.7285 18.2588ZM38.4531 18.416H37.8916L37.9141 12.666C38.0189 11.4831 38.4531 10.7044 39.2168 10.3301C39.4264 10.2253 39.6436 10.1729 39.8682 10.1729C40.7217 10.1729 41.2233 10.6745 41.373 11.6777C41.403 11.8724 41.418 12.0745 41.418 12.2842V17.248C41.418 17.877 41.2533 18.2438 40.9238 18.3486C40.7741 18.3936 40.5944 18.416 40.3848 18.416V19H45.5732C45.5732 18.6556 45.4759 18.4684 45.2812 18.4385C45.1914 18.4235 45.1016 18.416 45.0117 18.416H44.2705V12.666C44.2705 10.8092 43.6117 9.64876 42.2939 9.18457C41.9346 9.06478 41.5602 9.00488 41.1709 9.00488C40.0778 9.00488 39.1494 9.43913 38.3857 10.3076C38.1611 10.5622 37.9814 10.8242 37.8467 11.0937L37.7344 9.3418H33.7363V9.92578H35.0391V17.248C35.0391 17.9368 34.7171 18.3187 34.0732 18.3936C33.9684 18.4085 33.8561 18.416 33.7363 18.416V19H38.9922C38.9922 18.6556 38.8949 18.4684 38.7002 18.4385C38.6253 18.4235 38.543 18.416 38.4531 18.416ZM58.7578 19H62.7783C62.7783 18.6556 62.6885 18.4609 62.5088 18.416C62.4339 18.401 62.3441 18.3936 62.2393 18.3936H61.2061V4.40039L56.3096 4.40039V4.98437L58.3535 4.98437V9.9707C57.5898 9.31185 56.6764 8.98242 55.6133 8.98242C54.1908 8.98242 53.0303 9.52897 52.1318 10.6221C51.3532 11.6104 50.9639 12.8532 50.9639 14.3506C50.9639 16.2074 51.5703 17.5775 52.7832 18.4609C53.472 18.9701 54.2357 19.2246 55.0742 19.2246C56.4668 19.2246 57.5 18.6331 58.1738 17.4502C58.2786 17.2705 58.3685 17.0833 58.4434 16.8887L58.7578 19ZM54.041 14.0811C54.041 11.8949 54.5127 10.5173 55.4561 9.94824C55.7256 9.7985 56.0101 9.72363 56.3096 9.72363C57.3877 9.72363 58.054 10.5547 58.3086 12.2168C58.3685 12.666 58.3984 13.1452 58.3984 13.6543C58.3984 15.9004 57.9268 17.3304 56.9834 17.9443C56.7139 18.109 56.4219 18.1914 56.1074 18.1914C55.0592 18.1914 54.4079 17.3379 54.1533 15.6309C54.0785 15.1667 54.041 14.6501 54.041 14.0811ZM66.8662 14.126C66.8662 12.0296 67.1208 10.6895 67.6299 10.1055C67.9443 9.76107 68.3861 9.58887 68.9551 9.58887C69.9134 9.58887 70.5273 10.0755 70.7969 11.0488C70.9766 11.6777 71.0664 12.6735 71.0664 14.0361C71.0664 16.2223 70.7819 17.5999 70.2129 18.1689C69.8835 18.4834 69.4567 18.6406 68.9326 18.6406C68.0042 18.6406 67.4053 18.1615 67.1357 17.2031C66.9561 16.5592 66.8662 15.5335 66.8662 14.126ZM69.0674 9.00488C67.2256 9.00488 65.8105 9.63379 64.8223 10.8916C64.1335 11.79 63.7891 12.8382 63.7891 14.0361C63.7891 15.7282 64.373 17.0684 65.541 18.0566C66.4694 18.8353 67.5775 19.2246 68.8652 19.2246C70.6322 19.2246 72.0173 18.5882 73.0205 17.3154C73.7692 16.3571 74.1436 15.249 74.1436 13.9912C74.1436 12.3141 73.5521 11.0039 72.3691 10.0605C71.4557 9.35677 70.3551 9.00488 69.0674 9.00488ZM79.5342 10.0381H81.084V15.6533C81.084 17.8245 81.9824 19.015 83.7793 19.2246C83.959 19.2396 84.1387 19.2471 84.3184 19.2471C85.4714 19.2471 86.265 18.8727 86.6992 18.124C86.9089 17.7497 87.0736 17.2555 87.1934 16.6416L86.5869 16.5518C86.2874 17.7646 85.8457 18.431 85.2617 18.5508C85.1719 18.5658 85.082 18.5732 84.9922 18.5732C84.4382 18.5732 84.1012 18.1839 83.9814 17.4053C83.9515 17.2256 83.9365 17.0384 83.9365 16.8437V10.0381H86.9014V9.4541H83.9365V6.84863L81.084 7.32031V9.4541H79.5342V10.0381ZM92.4941 18.416H91.9326V13.0254C91.9326 11.7077 92.3369 10.8317 93.1455 10.3975C93.4001 10.2627 93.6471 10.1953 93.8867 10.1953C94.8001 10.1953 95.3092 10.7568 95.4141 11.8799C95.429 11.9997 95.4365 12.1344 95.4365 12.2842V17.248C95.4365 17.847 95.3467 18.1989 95.167 18.3037C95.0173 18.3786 94.8151 18.416 94.5605 18.416V19L99.5918 19C99.5918 18.6556 99.4945 18.4684 99.2998 18.4385C99.21 18.4235 99.1201 18.416 99.0303 18.416H98.2891V12.666C98.2891 10.7943 97.6227 9.63379 96.29 9.18457C95.9606 9.06478 95.6012 9.00488 95.2119 9.00488C93.999 9.00488 93.0332 9.46908 92.3145 10.3975C92.1647 10.6071 92.0374 10.8167 91.9326 11.0264V4.40039L87.7549 4.40039V4.98437H89.0801V17.248C89.0801 17.9518 88.7432 18.3337 88.0693 18.3936C87.9645 18.4085 87.8597 18.416 87.7549 18.416V19H93.0332C93.0332 18.6556 92.9359 18.4684 92.7412 18.4385C92.6663 18.4235 92.584 18.416 92.4941 18.416ZM105.477 18.416H104.646V9.3418H100.49V9.92578H101.793V17.248C101.793 17.9069 101.531 18.2812 101.007 18.3711C100.857 18.401 100.685 18.416 100.49 18.416V19H106.016C106.016 18.6556 105.918 18.4684 105.724 18.4385C105.649 18.4235 105.566 18.416 105.477 18.416ZM104.848 6.39941C104.848 5.74056 104.556 5.25391 103.972 4.93945C103.717 4.78971 103.448 4.71484 103.163 4.71484C102.519 4.71484 102.033 5.00684 101.703 5.59082C101.568 5.84538 101.501 6.11491 101.501 6.39941C101.501 7.05827 101.793 7.53743 102.377 7.83691C102.632 7.97168 102.894 8.03906 103.163 8.03906C103.822 8.03906 104.309 7.76204 104.623 7.20801C104.773 6.95345 104.848 6.68392 104.848 6.39941ZM110.867 18.5957C111.87 18.5957 112.447 18.2363 112.597 17.5176C112.612 17.4128 112.619 17.3154 112.619 17.2256C112.619 16.4619 112.14 15.8255 111.182 15.3164C110.972 15.1966 110.635 15.0394 110.171 14.8447C109.048 14.3506 108.307 13.8939 107.947 13.4746C107.558 13.0254 107.363 12.4938 107.363 11.8799C107.363 10.6071 108.06 9.74609 109.452 9.29687C110.036 9.10221 110.688 9.00488 111.406 9.00488C112.574 9.00488 113.488 9.21452 114.146 9.63379C114.146 9.18457 114.281 8.9375 114.551 8.89258C114.611 8.8776 114.671 8.87012 114.73 8.87012V11.6777H114.012C113.952 10.3151 113.211 9.6263 111.788 9.61133C110.83 9.61133 110.238 9.92578 110.014 10.5547C109.969 10.7044 109.946 10.8542 109.946 11.0039C109.946 11.6478 110.396 12.1943 111.294 12.6436C111.474 12.7484 111.773 12.8906 112.192 13.0703C113.36 13.5944 114.139 14.0736 114.528 14.5078C114.978 15.0169 115.202 15.6234 115.202 16.3271C115.202 17.6299 114.528 18.5059 113.181 18.9551C112.627 19.1348 112.005 19.2246 111.316 19.2246C109.999 19.2246 108.891 18.9925 107.992 18.5283C107.992 18.9176 107.895 19.1423 107.7 19.2021C107.61 19.2171 107.506 19.2246 107.386 19.2246V15.8105H108.149C108.179 17.6523 109.085 18.5807 110.867 18.5957ZM119.604 17.54C119.604 16.9111 119.32 16.4395 118.751 16.125C118.511 16.0052 118.264 15.9453 118.01 15.9453C117.381 15.9453 116.917 16.2298 116.617 16.7988C116.497 17.0384 116.438 17.2855 116.438 17.54C116.438 18.1839 116.722 18.6481 117.291 18.9326C117.516 19.0524 117.755 19.1123 118.01 19.1123C118.654 19.1123 119.125 18.8428 119.425 18.3037C119.545 18.0641 119.604 17.8096 119.604 17.54Z" fill="#454545"/>
<path d="M164 4L180 14L131 14" stroke="#454545"/>
</svg>
