<svg width="234" height="27" viewBox="0 0 234 27" fill="none" xmlns="http://www.w3.org/2000/svg">
<path d="M7.1875 19C7.09766 18.6257 6.89551 18.4235 6.58105 18.3936H5.39063L5.39063 6.12988H7.1875V5.52344L0.449219 5.52344L0.449219 6.12988H2.24609L2.24609 18.3936H0.449219L0.449219 19H7.1875ZM17.2051 18.416H16.6436V13.0254C16.6436 11.7077 17.0479 10.8317 17.8564 10.3975C18.111 10.2627 18.3581 10.1953 18.5977 10.1953C19.5111 10.1953 20.0202 10.7568 20.125 11.8799C20.14 11.9997 20.1475 12.1344 20.1475 12.2842V17.248C20.1475 17.847 20.0576 18.1989 19.8779 18.3037C19.7282 18.3786 19.526 18.416 19.2715 18.416V19H24.3027C24.3027 18.6556 24.2054 18.4684 24.0107 18.4385C23.9209 18.4235 23.8311 18.416 23.7412 18.416H23V12.666C23 10.7943 22.3337 9.63379 21.001 9.18457C20.6715 9.06478 20.3122 9.00488 19.9229 9.00488C18.71 9.00488 17.7441 9.46908 17.0254 10.3975C16.8757 10.6071 16.7484 10.8167 16.6436 11.0264V4.40039L12.4658 4.40039V4.98437H13.791L13.791 17.248C13.791 17.9518 13.4541 18.3337 12.7803 18.3936C12.6755 18.4085 12.5706 18.416 12.4658 18.416V19H17.7441C17.7441 18.6556 17.6468 18.4684 17.4521 18.4385C17.3773 18.4235 17.2949 18.416 17.2051 18.416ZM33.3545 19.2246C34.4476 19.2246 35.1289 18.8278 35.3984 18.0342C35.4883 17.7347 35.5557 17.3529 35.6006 16.8887L35.0166 16.8662C34.9268 17.8994 34.6647 18.4235 34.2305 18.4385C33.901 18.4085 33.7363 18.0342 33.7363 17.3154V12.6211C33.7363 10.7493 32.8678 9.59635 31.1309 9.16211C30.6816 9.05729 30.195 9.00488 29.6709 9.00488C27.6344 9.00488 26.3542 9.44661 25.8301 10.3301C25.6953 10.5547 25.6279 10.7943 25.6279 11.0488C25.6279 11.6328 25.9049 11.9997 26.459 12.1494C26.5938 12.1943 26.736 12.2168 26.8857 12.2168C27.5296 12.2168 27.9639 11.9023 28.1885 11.2734C28.2184 11.1836 28.2633 11.0339 28.3232 10.8242C28.488 10.2253 28.6976 9.85091 28.9521 9.70117C29.1169 9.6263 29.304 9.58887 29.5137 9.58887C30.2174 9.58887 30.6442 10.0156 30.7939 10.8691C30.8538 11.1836 30.8838 11.5579 30.8838 11.9922V13.4521C27.0355 13.527 25.1038 14.5452 25.0889 16.5068C25.0889 17.8395 25.6729 18.693 26.8408 19.0674C27.1852 19.1722 27.5671 19.2246 27.9863 19.2246C29.2591 19.2246 30.195 18.7454 30.7939 17.7871C30.9137 17.5924 31.0111 17.3903 31.0859 17.1807C31.4004 18.4684 32.1566 19.1497 33.3545 19.2246ZM29.1543 18.2588C28.4056 18.2288 28.0238 17.5625 28.0088 16.2598C28.0088 15.2715 28.4131 14.6276 29.2217 14.3281C29.6559 14.1934 30.21 14.111 30.8838 14.0811V16.2598C30.5993 17.3079 30.1426 17.9518 29.5137 18.1914C29.3789 18.2363 29.2591 18.2588 29.1543 18.2588ZM40.9463 9.90332V9.3418L35.7578 9.3418V9.90332H36.6338L39.4639 17.4727C39.7933 18.3262 40.0553 18.8203 40.25 18.9551C40.4147 19.0599 40.6543 19.1123 40.9688 19.1123H41.7773L45.0342 10.5547C45.1839 10.1803 45.3786 9.9707 45.6182 9.92578C45.708 9.91081 45.7979 9.90332 45.8877 9.90332C46.1273 9.90332 46.262 9.88835 46.292 9.8584C46.3219 9.76855 46.3369 9.59635 46.3369 9.3418H42.6982V9.90332H44.54L41.8896 16.6865L39.4189 9.90332H40.9463ZM52.0869 9.58887C53.0452 9.61882 53.5319 10.4349 53.5469 12.0371C53.5469 12.7409 53.3372 13.1751 52.918 13.3398C52.6185 13.4447 52.1693 13.4821 51.5703 13.4521L50.1328 13.3848C50.2376 10.8991 50.889 9.63379 52.0869 9.58887ZM56.2871 16.6865L55.748 16.5068C55.3288 17.4202 54.6699 18.0417 53.7715 18.3711C53.4121 18.5059 53.0452 18.5732 52.6709 18.5732C51.473 18.5732 50.7018 17.8096 50.3574 16.2822C50.2227 15.6533 50.1478 14.9046 50.1328 14.0361L52.1992 14.1035C54.61 14.1784 56.0101 13.7965 56.3994 12.958C56.4893 12.7484 56.5342 12.5163 56.5342 12.2617C56.5342 10.9889 55.8828 10.0605 54.5801 9.47656C53.8464 9.16211 53.0153 9.00488 52.0869 9.00488C50.3949 9.00488 49.0771 9.58138 48.1338 10.7344C47.415 11.6328 47.0557 12.7484 47.0557 14.0811C47.0557 16.2523 47.8717 17.7646 49.5039 18.6182C50.2826 19.0225 51.166 19.2246 52.1543 19.2246C53.9062 19.2246 55.1641 18.6107 55.9277 17.3828C56.0775 17.1582 56.1973 16.9261 56.2871 16.6865ZM61.79 10.0381H63.3398V15.6533C63.3398 17.8245 64.2383 19.015 66.0352 19.2246C66.2148 19.2396 66.3945 19.2471 66.5742 19.2471C67.7272 19.2471 68.5208 18.8727 68.9551 18.124C69.1647 17.7497 69.3294 17.2555 69.4492 16.6416L68.8428 16.5518C68.5433 17.7646 68.1016 18.431 67.5176 18.5508C67.4277 18.5658 67.3379 18.5732 67.248 18.5732C66.694 18.5732 66.3571 18.1839 66.2373 17.4053C66.2074 17.2256 66.1924 17.0384 66.1924 16.8437V10.0381H69.1572V9.4541H66.1924V6.84863L63.3398 7.32031V9.4541H61.79V10.0381ZM74.75 18.416H74.1885V13.0254C74.1885 11.7077 74.5928 10.8317 75.4014 10.3975C75.6559 10.2627 75.903 10.1953 76.1426 10.1953C77.056 10.1953 77.5651 10.7568 77.6699 11.8799C77.6849 11.9997 77.6924 12.1344 77.6924 12.2842V17.248C77.6924 17.847 77.6025 18.1989 77.4229 18.3037C77.2731 18.3786 77.071 18.416 76.8164 18.416V19L81.8477 19C81.8477 18.6556 81.7503 18.4684 81.5557 18.4385C81.4658 18.4235 81.376 18.416 81.2861 18.416H80.5449V12.666C80.5449 10.7943 79.8786 9.63379 78.5459 9.18457C78.2165 9.06478 77.8571 9.00488 77.4678 9.00488C76.2549 9.00488 75.2891 9.46908 74.5703 10.3975C74.4206 10.6071 74.2933 10.8167 74.1885 11.0264V4.40039H70.0107V4.98437H71.3359V17.248C71.3359 17.9518 70.999 18.3337 70.3252 18.3936C70.2204 18.4085 70.1156 18.416 70.0107 18.416V19H75.2891C75.2891 18.6556 75.1917 18.4684 74.9971 18.4385C74.9222 18.4235 74.8398 18.416 74.75 18.416ZM87.8896 9.58887C88.848 9.61882 89.3346 10.4349 89.3496 12.0371C89.3496 12.7409 89.14 13.1751 88.7207 13.3398C88.4212 13.4447 87.972 13.4821 87.373 13.4521L85.9355 13.3848C86.0404 10.8991 86.6917 9.63379 87.8896 9.58887ZM92.0898 16.6865L91.5508 16.5068C91.1315 17.4202 90.4727 18.0417 89.5742 18.3711C89.2148 18.5059 88.848 18.5732 88.4736 18.5732C87.2757 18.5732 86.5046 17.8096 86.1602 16.2822C86.0254 15.6533 85.9505 14.9046 85.9355 14.0361L88.002 14.1035C90.4128 14.1784 91.8128 13.7965 92.2021 12.958C92.292 12.7484 92.3369 12.5163 92.3369 12.2617C92.3369 10.9889 91.6855 10.0605 90.3828 9.47656C89.6491 9.16211 88.818 9.00488 87.8896 9.00488C86.1976 9.00488 84.8799 9.58138 83.9365 10.7344C83.2178 11.6328 82.8584 12.7484 82.8584 14.0811C82.8584 16.2523 83.6745 17.7646 85.3066 18.6182C86.0853 19.0225 86.9688 19.2246 87.957 19.2246C89.709 19.2246 90.9668 18.6107 91.7305 17.3828C91.8802 17.1582 92 16.9261 92.0898 16.6865ZM97.2783 18.5957C98.2816 18.5957 98.8581 18.2363 99.0078 17.5176C99.0228 17.4128 99.0303 17.3154 99.0303 17.2256C99.0303 16.4619 98.5511 15.8255 97.5928 15.3164C97.3831 15.1966 97.0462 15.0394 96.582 14.8447C95.459 14.3506 94.7178 13.8939 94.3584 13.4746C93.9691 13.0254 93.7744 12.4938 93.7744 11.8799C93.7744 10.6071 94.4707 9.74609 95.8633 9.29687C96.4473 9.10221 97.0986 9.00488 97.8174 9.00488C98.9854 9.00488 99.8988 9.21452 100.558 9.63379C100.558 9.18457 100.692 8.9375 100.962 8.89258C101.022 8.8776 101.082 8.87012 101.142 8.87012V11.6777H100.423C100.363 10.3151 99.6217 9.6263 98.1992 9.61133C97.2409 9.61133 96.6494 9.92578 96.4248 10.5547C96.3799 10.7044 96.3574 10.8542 96.3574 11.0039C96.3574 11.6478 96.8066 12.1943 97.7051 12.6436C97.8848 12.7484 98.1842 12.8906 98.6035 13.0703C99.7715 13.5944 100.55 14.0736 100.939 14.5078C101.389 15.0169 101.613 15.6234 101.613 16.3271C101.613 17.6299 100.939 18.5059 99.5918 18.9551C99.0378 19.1348 98.4163 19.2246 97.7275 19.2246C96.4098 19.2246 95.3018 18.9925 94.4033 18.5283C94.4033 18.9176 94.306 19.1423 94.1113 19.2021C94.0215 19.2171 93.9167 19.2246 93.7969 19.2246V15.8105L94.5605 15.8105C94.5905 17.6523 95.4964 18.5807 97.2783 18.5957ZM107.992 9.58887C108.951 9.61882 109.437 10.4349 109.452 12.0371C109.452 12.7409 109.243 13.1751 108.823 13.3398C108.524 13.4447 108.075 13.4821 107.476 13.4521L106.038 13.3848C106.143 10.8991 106.794 9.63379 107.992 9.58887ZM112.192 16.6865L111.653 16.5068C111.234 17.4202 110.575 18.0417 109.677 18.3711C109.317 18.5059 108.951 18.5732 108.576 18.5732C107.378 18.5732 106.607 17.8096 106.263 16.2822C106.128 15.6533 106.053 14.9046 106.038 14.0361L108.104 14.1035C110.515 14.1784 111.915 13.7965 112.305 12.958C112.395 12.7484 112.439 12.5163 112.439 12.2617C112.439 10.9889 111.788 10.0605 110.485 9.47656C109.752 9.16211 108.921 9.00488 107.992 9.00488C106.3 9.00488 104.982 9.58138 104.039 10.7344C103.32 11.6328 102.961 12.7484 102.961 14.0811C102.961 16.2523 103.777 17.7646 105.409 18.6182C106.188 19.0225 107.071 19.2246 108.06 19.2246C109.812 19.2246 111.069 18.6107 111.833 17.3828C111.983 17.1582 112.103 16.9261 112.192 16.6865ZM121.761 18.5957C122.764 18.5957 123.34 18.2363 123.49 17.5176C123.505 17.4128 123.513 17.3154 123.513 17.2256C123.513 16.4619 123.034 15.8255 122.075 15.3164C121.866 15.1966 121.529 15.0394 121.064 14.8447C119.941 14.3506 119.2 13.8939 118.841 13.4746C118.451 13.0254 118.257 12.4938 118.257 11.8799C118.257 10.6071 118.953 9.74609 120.346 9.29687C120.93 9.10221 121.581 9.00488 122.3 9.00488C123.468 9.00488 124.381 9.21452 125.04 9.63379C125.04 9.18457 125.175 8.9375 125.444 8.89258C125.504 8.8776 125.564 8.87012 125.624 8.87012V11.6777H124.905C124.845 10.3151 124.104 9.6263 122.682 9.61133C121.723 9.61133 121.132 9.92578 120.907 10.5547C120.862 10.7044 120.84 10.8542 120.84 11.0039C120.84 11.6478 121.289 12.1943 122.188 12.6436C122.367 12.7484 122.667 12.8906 123.086 13.0703C124.254 13.5944 125.033 14.0736 125.422 14.5078C125.871 15.0169 126.096 15.6234 126.096 16.3271C126.096 17.6299 125.422 18.5059 124.074 18.9551C123.52 19.1348 122.899 19.2246 122.21 19.2246C120.892 19.2246 119.784 18.9925 118.886 18.5283C118.886 18.9176 118.788 19.1423 118.594 19.2021C118.504 19.2171 118.399 19.2246 118.279 19.2246V15.8105H119.043C119.073 17.6523 119.979 18.5807 121.761 18.5957ZM132.834 18.416H131.666V14.957L132.362 14.2832L135.103 19.0225L138.831 19C138.831 18.6706 138.741 18.4834 138.562 18.4385C138.487 18.4235 138.397 18.416 138.292 18.416H137.955L134.339 12.374L136.001 10.7793C136.525 10.2852 136.929 10.0081 137.214 9.94824C137.334 9.93327 137.453 9.92578 137.573 9.92578C137.903 9.92578 138.09 9.80599 138.135 9.56641C138.15 9.49154 138.157 9.41667 138.157 9.3418L134.361 9.3418V9.92578H136.001L131.666 14.0361V4.40039L127.106 4.40039V4.98437H128.813V17.248C128.784 18.0267 128.215 18.416 127.106 18.416V19H133.373C133.373 18.6556 133.276 18.4684 133.081 18.4385C133.006 18.4235 132.924 18.416 132.834 18.416ZM144.154 18.416L143.323 18.416V9.3418H139.168V9.92578H140.471V17.248C140.471 17.9069 140.209 18.2812 139.685 18.3711C139.535 18.401 139.363 18.416 139.168 18.416V19L144.693 19C144.693 18.6556 144.596 18.4684 144.401 18.4385C144.326 18.4235 144.244 18.416 144.154 18.416ZM143.525 6.39941C143.525 5.74056 143.233 5.25391 142.649 4.93945C142.395 4.78971 142.125 4.71484 141.841 4.71484C141.197 4.71484 140.71 5.00684 140.381 5.59082C140.246 5.84538 140.179 6.11491 140.179 6.39941C140.179 7.05827 140.471 7.53743 141.055 7.83691C141.309 7.97168 141.571 8.03906 141.841 8.03906C142.5 8.03906 142.986 7.76204 143.301 7.20801C143.451 6.95345 143.525 6.68392 143.525 6.39941ZM151.207 18.416H150.084V4.40039L145.479 4.40039V4.98437L147.231 4.98437V17.2031C147.231 17.8171 146.984 18.1914 146.49 18.3262C146.236 18.3861 145.899 18.416 145.479 18.416V19H151.746C151.746 18.6556 151.649 18.4684 151.454 18.4385C151.379 18.4235 151.297 18.416 151.207 18.416ZM158.215 18.416H157.092V4.40039H152.487V4.98437H154.239V17.2031C154.239 17.8171 153.992 18.1914 153.498 18.3262C153.243 18.3861 152.907 18.416 152.487 18.416V19H158.754C158.754 18.6556 158.657 18.4684 158.462 18.4385C158.387 18.4235 158.305 18.416 158.215 18.416ZM163.561 18.5957C164.564 18.5957 165.14 18.2363 165.29 17.5176C165.305 17.4128 165.312 17.3154 165.312 17.2256C165.312 16.4619 164.833 15.8255 163.875 15.3164C163.665 15.1966 163.328 15.0394 162.864 14.8447C161.741 14.3506 161 13.8939 160.641 13.4746C160.251 13.0254 160.057 12.4938 160.057 11.8799C160.057 10.6071 160.753 9.74609 162.146 9.29687C162.729 9.10221 163.381 9.00488 164.1 9.00488C165.268 9.00488 166.181 9.21452 166.84 9.63379C166.84 9.18457 166.975 8.9375 167.244 8.89258C167.304 8.8776 167.364 8.87012 167.424 8.87012V11.6777H166.705C166.645 10.3151 165.904 9.6263 164.481 9.61133C163.523 9.61133 162.932 9.92578 162.707 10.5547C162.662 10.7044 162.64 10.8542 162.64 11.0039C162.64 11.6478 163.089 12.1943 163.987 12.6436C164.167 12.7484 164.466 12.8906 164.886 13.0703C166.054 13.5944 166.832 14.0736 167.222 14.5078C167.671 15.0169 167.896 15.6234 167.896 16.3271C167.896 17.6299 167.222 18.5059 165.874 18.9551C165.32 19.1348 164.699 19.2246 164.01 19.2246C162.692 19.2246 161.584 18.9925 160.686 18.5283C160.686 18.9176 160.588 19.1423 160.394 19.2021C160.304 19.2171 160.199 19.2246 160.079 19.2246V15.8105L160.843 15.8105C160.873 17.6523 161.779 18.5807 163.561 18.5957ZM172.298 17.54C172.298 16.9111 172.013 16.4395 171.444 16.125C171.205 16.0052 170.958 15.9453 170.703 15.9453C170.074 15.9453 169.61 16.2298 169.311 16.7988C169.191 17.0384 169.131 17.2855 169.131 17.54C169.131 18.1839 169.415 18.6481 169.984 18.9326C170.209 19.0524 170.449 19.1123 170.703 19.1123C171.347 19.1123 171.819 18.8428 172.118 18.3037C172.238 18.0641 172.298 17.8096 172.298 17.54Z" fill="#DDDDDD"/>
<path d="M216 4L232 14L183 14" stroke="#DDDDDD"/>
</svg>
