<svg width="191" height="27" viewBox="0 0 191 27" fill="none" xmlns="http://www.w3.org/2000/svg">
<path d="M15.6445 19L19.9346 6.12988L21.0576 6.12988V5.52344L17.3516 5.52344V6.12988H19.1484L15.9814 15.7432L12.5 6.10742L14.2969 6.12988V5.52344L9.08594 5.52344L10.793 9.94824L8.5918 15.9453L5.06543 6.12988H6.8623V5.52344L0.775391 5.52344L0.775391 6.12988H1.89844L6.21094 17.2705C6.57031 18.1839 6.88477 18.7155 7.1543 18.8652C7.31901 18.9551 7.52865 19 7.7832 19H8.23242L11.1973 10.959L13.623 17.2705C13.9824 18.1839 14.2969 18.7155 14.5664 18.8652C14.7311 18.9551 14.9408 19 15.1953 19H15.6445ZM24.8086 14.126C24.8086 12.0296 25.0632 10.6895 25.5723 10.1055C25.8867 9.76107 26.3285 9.58887 26.8975 9.58887C27.8558 9.58887 28.4697 10.0755 28.7393 11.0488C28.9189 11.6777 29.0088 12.6735 29.0088 14.0361C29.0088 16.2223 28.7243 17.5999 28.1553 18.1689C27.8258 18.4834 27.3991 18.6406 26.875 18.6406C25.9466 18.6406 25.3477 18.1615 25.0781 17.2031C24.8984 16.5592 24.8086 15.5335 24.8086 14.126ZM27.0098 9.00488C25.168 9.00488 23.7529 9.63379 22.7646 10.8916C22.0758 11.79 21.7314 12.8382 21.7314 14.0361C21.7314 15.7282 22.3154 17.0684 23.4834 18.0566C24.4118 18.8353 25.5199 19.2246 26.8076 19.2246C28.5745 19.2246 29.9596 18.5882 30.9629 17.3154C31.7116 16.3571 32.0859 15.249 32.0859 13.9912C32.0859 12.3141 31.4945 11.0039 30.3115 10.0605C29.3981 9.35677 28.2975 9.00488 27.0098 9.00488ZM39.0264 18.416H37.3643V13.5645C37.4691 11.9922 37.8509 11.0339 38.5098 10.6895C38.6146 10.6445 38.7119 10.6221 38.8018 10.6221C38.9665 10.6221 39.1462 10.7943 39.3408 11.1387C39.6104 11.6178 39.9023 11.9173 40.2168 12.0371C40.3665 12.082 40.5312 12.1045 40.7109 12.1045C41.3099 12.1045 41.7367 11.82 41.9912 11.251C42.0811 11.0563 42.126 10.8542 42.126 10.6445C42.126 9.89583 41.7591 9.42415 41.0254 9.22949C40.8457 9.18457 40.6585 9.16211 40.4639 9.16211C39.5355 9.16211 38.7194 9.52897 38.0156 10.2627C37.7012 10.6221 37.4616 11.0114 37.2969 11.4307L37.1396 9.3418H33.209V9.92578H34.5117V17.248C34.5117 17.9069 34.2497 18.2812 33.7256 18.3711C33.5758 18.401 33.4036 18.416 33.209 18.416V19L39.5654 19C39.5654 18.6556 39.4681 18.4684 39.2734 18.4385C39.1986 18.4235 39.1162 18.416 39.0264 18.416ZM48.3027 18.416H47.1348V14.957L47.8311 14.2832L50.5713 19.0225L54.2998 19C54.2998 18.6706 54.21 18.4834 54.0303 18.4385C53.9554 18.4235 53.8656 18.416 53.7607 18.416H53.4238L49.8076 12.374L51.4697 10.7793C51.9938 10.2852 52.3981 10.0081 52.6826 9.94824C52.8024 9.93327 52.9222 9.92578 53.042 9.92578C53.3714 9.92578 53.5586 9.80599 53.6035 9.56641C53.6185 9.49154 53.626 9.41667 53.626 9.3418L49.8301 9.3418V9.92578L51.4697 9.92578L47.1348 14.0361V4.40039H42.5752V4.98437H44.2822V17.248C44.2523 18.0267 43.6833 18.416 42.5752 18.416V19H48.8418C48.8418 18.6556 48.7445 18.4684 48.5498 18.4385C48.4749 18.4235 48.3926 18.416 48.3027 18.416ZM58.792 10.0381H60.3418V15.6533C60.3418 17.8245 61.2402 19.015 63.0371 19.2246C63.2168 19.2396 63.3965 19.2471 63.5762 19.2471C64.7292 19.2471 65.5228 18.8727 65.957 18.124C66.1667 17.7497 66.3314 17.2555 66.4512 16.6416L65.8447 16.5518C65.5452 17.7646 65.1035 18.431 64.5195 18.5508C64.4297 18.5658 64.3398 18.5732 64.25 18.5732C63.696 18.5732 63.359 18.1839 63.2393 17.4053C63.2093 17.2256 63.1943 17.0384 63.1943 16.8437V10.0381H66.1592V9.4541H63.1943V6.84863L60.3418 7.32031V9.4541H58.792V10.0381ZM70.3145 14.126C70.3145 12.0296 70.569 10.6895 71.0781 10.1055C71.3926 9.76107 71.8343 9.58887 72.4033 9.58887C73.3617 9.58887 73.9756 10.0755 74.2451 11.0488C74.4248 11.6777 74.5146 12.6735 74.5146 14.0361C74.5146 16.2223 74.2301 17.5999 73.6611 18.1689C73.3317 18.4834 72.9049 18.6406 72.3809 18.6406C71.4525 18.6406 70.8535 18.1615 70.584 17.2031C70.4043 16.5592 70.3145 15.5335 70.3145 14.126ZM72.5156 9.00488C70.6738 9.00488 69.2588 9.63379 68.2705 10.8916C67.5817 11.79 67.2373 12.8382 67.2373 14.0361C67.2373 15.7282 67.8213 17.0684 68.9893 18.0566C69.9176 18.8353 71.0257 19.2246 72.3135 19.2246C74.0804 19.2246 75.4655 18.5882 76.4688 17.3154C77.2174 16.3571 77.5918 15.249 77.5918 13.9912C77.5918 12.3141 77.0003 11.0039 75.8174 10.0605C74.904 9.35677 73.8034 9.00488 72.5156 9.00488ZM91.1133 19H95.1338C95.1338 18.6556 95.0439 18.4609 94.8643 18.416C94.7894 18.401 94.6995 18.3936 94.5947 18.3936H93.5615V4.40039L88.665 4.40039V4.98437H90.709V9.9707C89.9453 9.31185 89.0319 8.98242 87.9688 8.98242C86.5462 8.98242 85.3857 9.52897 84.4873 10.6221C83.7087 11.6104 83.3193 12.8532 83.3193 14.3506C83.3193 16.2074 83.9258 17.5775 85.1387 18.4609C85.8275 18.9701 86.5911 19.2246 87.4297 19.2246C88.8223 19.2246 89.8555 18.6331 90.5293 17.4502C90.6341 17.2705 90.724 17.0833 90.7988 16.8887L91.1133 19ZM86.3965 14.0811C86.3965 11.8949 86.8682 10.5173 87.8115 9.94824C88.0811 9.7985 88.3656 9.72363 88.665 9.72363C89.7432 9.72363 90.4095 10.5547 90.6641 12.2168C90.724 12.666 90.7539 13.1452 90.7539 13.6543C90.7539 15.9004 90.2822 17.3304 89.3389 17.9443C89.0693 18.109 88.7773 18.1914 88.4629 18.1914C87.4147 18.1914 86.7633 17.3379 86.5088 15.6309C86.4339 15.1667 86.3965 14.6501 86.3965 14.0811ZM104.186 19.2246C105.279 19.2246 105.96 18.8278 106.229 18.0342C106.319 17.7347 106.387 17.3529 106.432 16.8887L105.848 16.8662C105.758 17.8994 105.496 18.4235 105.062 18.4385C104.732 18.4085 104.567 18.0342 104.567 17.3154V12.6211C104.567 10.7493 103.699 9.59635 101.962 9.16211C101.513 9.05729 101.026 9.00488 100.502 9.00488C98.4655 9.00488 97.1852 9.44661 96.6611 10.3301C96.5264 10.5547 96.459 10.7943 96.459 11.0488C96.459 11.6328 96.736 11.9997 97.29 12.1494C97.4248 12.1943 97.5671 12.2168 97.7168 12.2168C98.3607 12.2168 98.7949 11.9023 99.0195 11.2734C99.0495 11.1836 99.0944 11.0339 99.1543 10.8242C99.319 10.2253 99.5286 9.85091 99.7832 9.70117C99.9479 9.6263 100.135 9.58887 100.345 9.58887C101.049 9.58887 101.475 10.0156 101.625 10.8691C101.685 11.1836 101.715 11.5579 101.715 11.9922V13.4521C97.8665 13.527 95.9349 14.5452 95.9199 16.5068C95.9199 17.8395 96.5039 18.693 97.6719 19.0674C98.0163 19.1722 98.3981 19.2246 98.8174 19.2246C100.09 19.2246 101.026 18.7454 101.625 17.7871C101.745 17.5924 101.842 17.3903 101.917 17.1807C102.231 18.4684 102.988 19.1497 104.186 19.2246ZM99.9854 18.2588C99.2367 18.2288 98.8548 17.5625 98.8398 16.2598C98.8398 15.2715 99.2441 14.6276 100.053 14.3281C100.487 14.1934 101.041 14.111 101.715 14.0811V16.2598C101.43 17.3079 100.974 17.9518 100.345 18.1914C100.21 18.2363 100.09 18.2588 99.9854 18.2588ZM106.881 10.0381H108.431V15.6533C108.431 17.8245 109.329 19.015 111.126 19.2246C111.306 19.2396 111.485 19.2471 111.665 19.2471C112.818 19.2471 113.612 18.8727 114.046 18.124C114.256 17.7497 114.42 17.2555 114.54 16.6416L113.934 16.5518C113.634 17.7646 113.192 18.431 112.608 18.5508C112.519 18.5658 112.429 18.5732 112.339 18.5732C111.785 18.5732 111.448 18.1839 111.328 17.4053C111.298 17.2256 111.283 17.0384 111.283 16.8437V10.0381H114.248V9.4541H111.283V6.84863L108.431 7.32031V9.4541H106.881V10.0381ZM120.357 9.58887C121.316 9.61882 121.802 10.4349 121.817 12.0371C121.817 12.7409 121.608 13.1751 121.188 13.3398C120.889 13.4447 120.44 13.4821 119.841 13.4521L118.403 13.3848C118.508 10.8991 119.16 9.63379 120.357 9.58887ZM124.558 16.6865L124.019 16.5068C123.599 17.4202 122.94 18.0417 122.042 18.3711C121.683 18.5059 121.316 18.5732 120.941 18.5732C119.743 18.5732 118.972 17.8096 118.628 16.2822C118.493 15.6533 118.418 14.9046 118.403 14.0361L120.47 14.1035C122.881 14.1784 124.281 13.7965 124.67 12.958C124.76 12.7484 124.805 12.5163 124.805 12.2617C124.805 10.9889 124.153 10.0605 122.851 9.47656C122.117 9.16211 121.286 9.00488 120.357 9.00488C118.665 9.00488 117.348 9.58138 116.404 10.7344C115.686 11.6328 115.326 12.7484 115.326 14.0811C115.326 16.2523 116.142 17.7646 117.774 18.6182C118.553 19.0225 119.437 19.2246 120.425 19.2246C122.177 19.2246 123.435 18.6107 124.198 17.3828C124.348 17.1582 124.468 16.9261 124.558 16.6865ZM129.072 17.54C129.072 16.9111 128.788 16.4395 128.219 16.125C127.979 16.0052 127.732 15.9453 127.478 15.9453C126.849 15.9453 126.384 16.2298 126.085 16.7988C125.965 17.0384 125.905 17.2855 125.905 17.54C125.905 18.1839 126.19 18.6481 126.759 18.9326C126.983 19.0524 127.223 19.1123 127.478 19.1123C128.121 19.1123 128.593 18.8428 128.893 18.3037C129.012 18.0641 129.072 17.8096 129.072 17.54Z" fill="#454545"/>
<path d="M173 4L189 14L140 14" stroke="#454545"/>
</svg>
